<svg width="27" height="20" viewBox="0 0 27 20" fill="none" xmlns="http://www.w3.org/2000/svg">
<path fill-rule="evenodd" clip-rule="evenodd" d="M1.24311 2.22226C1.24311 1.60862 1.75862 1.11125 2.39418 1.11125H5.27208V0.000248257H2.39418C1.12265 0.000248257 0.0917969 0.995233 0.0917969 2.22251V5.00027H1.24286L1.24311 2.22226ZM1.24311 17.7777V15H0.0920541V17.7777C0.0920541 19.005 1.12291 20 2.39443 20H5.27234V18.889H2.39443C1.75847 18.8888 1.24317 18.3912 1.24317 17.7778L1.24311 17.7777ZM25.4175 17.7777C25.4175 18.3914 24.902 18.8887 24.2665 18.8887H21.3886V19.9998H24.2665C25.538 19.9998 26.5689 19.0048 26.5689 17.7775V14.9997H25.4178L25.4175 17.7777ZM24.2665 4.95757e-05H21.3886V1.11106H24.2665C24.9022 1.11106 25.4175 1.60862 25.4175 2.22206V4.99983H26.5686V2.22206C26.5686 0.994985 25.5377 0 24.2664 0L24.2665 4.95757e-05ZM1.24322 10C1.24322 10.3067 1.50118 10.5555 1.81875 10.5555H24.842C25.1598 10.5555 25.4175 10.3065 25.4175 10C25.4175 9.69327 25.1596 9.4445 24.842 9.4445H1.81875C1.50096 9.4445 1.24322 9.69328 1.24322 10ZM10.4525 3.33337H9.30146V8.33334H10.4525V3.33337ZM3.54554 3.33337V8.33334H4.6966V3.33337H3.54554ZM12.7548 3.33337H11.6038V8.33334H12.7548V3.33337ZM18.5107 3.33337H17.3596V8.33334H18.5107V3.33337ZM20.8128 3.33337H19.6618V8.33334H20.8128V3.33337ZM21.9641 3.33337V8.33334H23.1152V3.33337H21.9641ZM8.15015 3.33337H5.84777V8.33334H8.15015V3.33337ZM16.2083 3.33337H13.9059V8.33334H16.2083V3.33337ZM9.30131 16.6666H10.4524V11.6667H9.30131V16.6666ZM4.69676 16.6666V11.6667H3.5457V16.6666H4.69676ZM11.6037 16.6666H12.7548V11.6667H11.6037V16.6666ZM17.3596 16.6666H18.5106V11.6667H17.3596V16.6666ZM19.6619 16.6666H20.813V11.6667H19.6619V16.6666ZM23.1154 16.6666V11.6667H21.9643V16.6666H23.1154ZM5.84792 16.6666H8.1503V11.6667H5.84792V16.6666ZM13.9061 16.6666H16.2084V11.6667H13.9061V16.6666Z" fill="#54328E"/>
</svg>
