<svg width="14" height="16" viewBox="0 0 14 16" fill="none" xmlns="http://www.w3.org/2000/svg">
<path d="M7.75 11.75V7.25C7.75 7.05109 7.82902 6.86032 7.96967 6.71967C8.11032 6.57902 8.30109 6.5 8.5 6.5C8.69891 6.5 8.88968 6.57902 9.03033 6.71967C9.17098 6.86032 9.25 7.05109 9.25 7.25V11.75C9.25 11.9489 9.17098 12.1397 9.03033 12.2803C8.88968 12.421 8.69891 12.5 8.5 12.5C8.30109 12.5 8.11032 12.421 7.96967 12.2803C7.82902 12.1397 7.75 11.9489 7.75 11.75ZM5.5 12.5C5.69891 12.5 5.88968 12.421 6.03033 12.2803C6.17098 12.1397 6.25 11.9489 6.25 11.75V7.25C6.25 7.05109 6.17098 6.86032 6.03033 6.71967C5.88968 6.57902 5.69891 6.5 5.5 6.5C5.30109 6.5 5.11032 6.57902 4.96967 6.71967C4.82902 6.86032 4.75 7.05109 4.75 7.25V11.75C4.75 11.9489 4.82902 12.1397 4.96967 12.2803C5.11032 12.421 5.30109 12.5 5.5 12.5ZM13.75 4.25C13.75 4.44891 13.671 4.63968 13.5303 4.78033C13.3897 4.92098 13.1989 5 13 5H12.25V13.205C12.25 13.8017 12.0129 14.374 11.591 14.796C11.169 15.2179 10.5967 15.455 10 15.455H4C3.40326 15.455 2.83097 15.2179 2.40901 14.796C1.98705 14.374 1.75 13.8017 1.75 13.205V5H1C0.801088 5 0.610322 4.92098 0.46967 4.78033C0.329018 4.63968 0.25 4.44891 0.25 4.25C0.25 4.05109 0.329018 3.86032 0.46967 3.71967C0.610322 3.57902 0.801088 3.5 1 3.5H4V2.75C4 2.15326 4.23705 1.58097 4.65901 1.15901C5.08097 0.737053 5.65326 0.5 6.25 0.5H7.75C8.34674 0.5 8.91903 0.737053 9.34099 1.15901C9.76295 1.58097 10 2.15326 10 2.75V3.5H13C13.1989 3.5 13.3897 3.57902 13.5303 3.71967C13.671 3.86032 13.75 4.05109 13.75 4.25ZM5.5 3.5H8.5V2.75C8.5 2.55109 8.42098 2.36032 8.28033 2.21967C8.13968 2.07902 7.94891 2 7.75 2H6.25C6.05109 2 5.86032 2.07902 5.71967 2.21967C5.57902 2.36032 5.5 2.55109 5.5 2.75V3.5ZM10.75 5H3.25V13.205C3.25 13.4039 3.32902 13.5947 3.46967 13.7353C3.61032 13.876 3.80109 13.955 4 13.955H10C10.1989 13.955 10.3897 13.876 10.5303 13.7353C10.671 13.5947 10.75 13.4039 10.75 13.205V5Z" fill="white"/>
</svg>
