<svg width="20" height="20" viewBox="0 0 20 20" fill="none" xmlns="http://www.w3.org/2000/svg">
<path fill-rule="evenodd" clip-rule="evenodd" d="M14.8801 4.38192C14.6229 1.91976 12.531 4.3198e-05 9.98851 4.3198e-05C8.68357 -0.00542119 7.42727 0.507732 6.50043 1.42606C5.6959 2.2232 5.19715 3.26864 5.07952 4.38192H5.07864C3.29724 4.38192 1.80058 5.68308 1.38011 7.94232L0.619222 13.8123C-0.0284502 18.1105 1.99286 20 5.94875 20H14.046C17.7043 20 19.8909 17.8703 19.4419 14.0482L18.6564 7.98167C18.1528 5.69432 16.6947 4.38192 14.9516 4.38192H14.8801ZM13.4138 4.38192C13.1653 2.7215 11.7261 1.44777 9.98545 1.44777C9.06439 1.44391 8.17973 1.80526 7.52708 2.45192C6.99719 2.97695 6.65567 3.65494 6.54594 4.38192H13.4138ZM5.07864 5.82965H14.9516C15.9739 5.82965 16.8719 6.63792 17.2244 8.22989L17.968 13.9973C18.4105 17.0657 16.9375 18.5522 14.046 18.5522H5.94875C2.81775 18.5522 1.55418 17.3711 2.06021 14.0121L2.81697 8.16659C3.10614 6.61886 4.01393 5.82965 5.07864 5.82965ZM12.8652 8.5164C13.267 8.5164 13.5927 8.84048 13.5927 9.24026C13.5927 9.60673 13.319 9.90959 12.9639 9.95752L12.8652 9.96413H12.8208C12.419 9.96413 12.0933 9.64004 12.0933 9.24026C12.0933 8.8738 12.367 8.57094 12.7221 8.52301L12.8208 8.5164H12.8652ZM7.937 9.24026C7.937 8.84048 7.61129 8.5164 7.20951 8.5164H7.16512L7.0664 8.52301C6.71131 8.57094 6.43762 8.8738 6.43762 9.24026C6.43762 9.64004 6.76333 9.96413 7.16512 9.96413H7.20951L7.30822 9.95752C7.66331 9.90959 7.937 9.60673 7.937 9.24026Z" fill="#0C1A30"/>
</svg>
