<svg width="11" height="11" viewBox="0 0 11 11" fill="none" xmlns="http://www.w3.org/2000/svg">
<path d="M5.50004 0.0834961C4.42873 0.0834961 3.38147 0.401178 2.4907 0.996369C1.59994 1.59156 0.90567 2.43753 0.495696 3.42729C0.085721 4.41706 -0.0215471 5.50617 0.187456 6.5569C0.396459 7.60763 0.912347 8.57279 1.66988 9.33032C2.42742 10.0879 3.39257 10.6037 4.4433 10.8127C5.49403 11.0218 6.58315 10.9145 7.57291 10.5045C8.56268 10.0945 9.40864 9.40027 10.0038 8.5095C10.599 7.61873 10.9167 6.57148 10.9167 5.50016C10.9167 4.78884 10.7766 4.08447 10.5044 3.42729C10.2322 2.77011 9.83319 2.17298 9.3302 1.67C8.82722 1.16702 8.23009 0.768028 7.57291 0.495815C6.91573 0.223602 6.21137 0.0834961 5.50004 0.0834961V0.0834961ZM5.50004 9.8335C4.64299 9.8335 3.80518 9.57935 3.09257 9.1032C2.37996 8.62704 1.82454 7.95027 1.49657 7.15846C1.16859 6.36664 1.08277 5.49536 1.24997 4.65477C1.41718 3.81419 1.82989 3.04206 2.43591 2.43603C3.04194 1.83001 3.81407 1.4173 4.65465 1.25009C5.49524 1.08289 6.36652 1.16871 7.15834 1.49668C7.95015 1.82466 8.62692 2.38008 9.10308 3.09269C9.57923 3.8053 9.83338 4.64311 9.83338 5.50016C9.83338 6.64943 9.37683 7.75163 8.56417 8.56429C7.75151 9.37695 6.64931 9.8335 5.50004 9.8335V9.8335ZM6.96796 6.19891C7.06996 6.30091 7.12726 6.43925 7.12726 6.5835C7.12726 6.72774 7.06996 6.86608 6.96796 6.96808C6.86596 7.07008 6.72762 7.12738 6.58338 7.12738C6.43913 7.12738 6.30079 7.07008 6.19879 6.96808L5.11546 5.88475C5.06526 5.83413 5.02554 5.77411 4.99858 5.70811C4.97163 5.64212 4.95796 5.57145 4.95838 5.50016V3.87516C4.95838 3.7315 5.01544 3.59373 5.11703 3.49215C5.21861 3.39056 5.35638 3.3335 5.50004 3.3335C5.6437 3.3335 5.78148 3.39056 5.88306 3.49215C5.98464 3.59373 6.04171 3.7315 6.04171 3.87516V5.27808L6.96796 6.19891Z" fill="#54328E"/>
</svg>
