<svg width="16" height="16" viewBox="0 0 16 16" fill="none" xmlns="http://www.w3.org/2000/svg">
<path d="M14.6616 13.0049C14.8812 13.2246 15.0047 13.5225 15.0047 13.8332C15.0047 14.1439 14.8812 14.4419 14.6616 14.6616C14.4419 14.8812 14.1439 15.0047 13.8332 15.0047C13.5225 15.0047 13.2246 14.8812 13.0049 14.6616L7.99989 9.64489L2.99489 14.6616C2.7752 14.8812 2.47724 15.0047 2.16656 15.0047C1.85587 15.0047 1.55791 14.8812 1.33822 14.6616C1.11854 14.4419 0.995117 14.1439 0.995117 13.8332C0.995117 13.5225 1.11854 13.2246 1.33822 13.0049L6.35489 7.99989L1.33822 2.99489C1.11854 2.7752 0.995117 2.47724 0.995117 2.16656C0.995117 1.85587 1.11854 1.55791 1.33822 1.33822C1.55791 1.11854 1.85587 0.995117 2.16656 0.995117C2.47724 0.995117 2.7752 1.11854 2.99489 1.33822L7.99989 6.35489L13.0049 1.33822C13.2246 1.11854 13.5225 0.995117 13.8332 0.995117C14.1439 0.995117 14.4419 1.11854 14.6616 1.33822C14.8812 1.55791 15.0047 1.85587 15.0047 2.16656C15.0047 2.47724 14.8812 2.7752 14.6616 2.99489L9.64489 7.99989L14.6616 13.0049Z" fill="#54328E"/>
</svg>
