<svg width="16" height="16" viewBox="0 0 16 16" fill="none" xmlns="http://www.w3.org/2000/svg">
<path d="M8 0.552498C6.51664 0.552498 5.0666 0.992365 3.83323 1.81648C2.59986 2.64059 1.63856 3.81193 1.07091 5.18237C0.50325 6.55282 0.354725 8.06082 0.644114 9.51568C0.933503 10.9705 1.64781 12.3069 2.6967 13.3558C3.7456 14.4047 5.08197 15.119 6.53683 15.4084C7.99168 15.6978 9.49968 15.5493 10.8701 14.9816C12.2406 14.4139 13.4119 13.4526 14.236 12.2193C15.0601 10.9859 15.5 9.53586 15.5 8.0525C15.5 6.06337 14.7098 4.15572 13.3033 2.7492C11.8968 1.34267 9.98913 0.552498 8 0.552498ZM13.925 8.9675C13.7798 8.8738 13.6463 8.76301 13.5275 8.6375C13.448 8.55162 13.3799 8.45583 13.325 8.3525C13.2889 8.28814 13.2683 8.21622 13.265 8.1425V8.045C13.2965 7.94502 13.3631 7.85979 13.4525 7.805C13.6206 7.70774 13.807 7.64645 14 7.625C14 7.7675 14 7.9175 14 8.06C13.9976 8.36394 13.9726 8.66729 13.925 8.9675ZM8.4275 2.075C8.51284 2.17053 8.58591 2.27635 8.645 2.39C8.75007 2.62601 8.80375 2.88166 8.8025 3.14C8.80549 3.29401 8.77743 3.44706 8.72 3.59C8.67577 3.69944 8.60331 3.79519 8.51 3.8675C8.36717 3.96074 8.21355 4.03629 8.0525 4.0925C7.65065 4.23982 7.2618 4.42045 6.89 4.6325C6.66617 4.76959 6.47024 4.94771 6.3125 5.1575C6.13498 5.39556 6.02839 5.67896 6.005 5.975V6.0875C5.99611 6.41682 6.09923 6.73941 6.2975 7.0025C6.55246 7.3097 6.90415 7.52124 7.295 7.6025C7.57574 7.66855 7.86193 7.70872 8.15 7.7225C8.23869 7.72582 8.32457 7.75444 8.3975 7.805C8.3975 7.805 8.435 7.805 8.45 7.9475V8.0675C8.44133 8.27557 8.40861 8.48194 8.3525 8.6825C8.2925 8.9225 8.21 9.2 8.15 9.5075C8.09836 9.80468 8.07326 10.1059 8.075 10.4075C8.07439 10.73 8.10707 11.0517 8.1725 11.3675C8.18306 11.4672 8.18306 11.5678 8.1725 11.6675V11.7875L8.105 11.75C7.96743 11.6639 7.84566 11.5548 7.745 11.4275C7.60489 11.2602 7.47467 11.0849 7.355 10.9025C7.265 10.79 7.1675 10.6175 7.04 10.4225C6.90267 10.1925 6.73064 9.98503 6.53 9.8075C6.23133 9.57102 5.8938 9.3883 5.5325 9.2675C5.27711 9.18154 5.02672 9.08138 4.7825 8.9675C4.66451 8.91192 4.55575 8.83857 4.46 8.75C4.3925 8.69 4.37 8.66 4.3625 8.6375V8.5325C4.36536 8.40164 4.39073 8.27225 4.4375 8.15C4.47283 8.04647 4.52615 7.95 4.595 7.865C4.7225 7.715 4.8725 7.595 5.06 7.3775C5.27462 7.125 5.42399 6.82369 5.495 6.5C5.55155 6.26677 5.57926 6.02748 5.5775 5.7875C5.57464 5.06087 5.30814 4.35997 4.8275 3.815C4.65688 3.63676 4.46256 3.48282 4.25 3.3575C5.3124 2.5036 6.63701 2.04263 8 2.0525L8.4275 2.075ZM12.245 12.2975C11.1634 13.3446 9.72769 13.9469 8.22274 13.9848C6.7178 14.0227 5.25359 13.4934 4.12065 12.5021C2.9877 11.5108 2.26881 10.1298 2.1066 8.63313C1.9444 7.13648 2.35074 5.63353 3.245 4.4225C3.45343 4.48072 3.63918 4.60107 3.7775 4.7675C4.02832 5.04755 4.16483 5.41158 4.16 5.7875C4.15903 5.91874 4.14394 6.04949 4.115 6.1775C4.09542 6.29076 4.04626 6.39684 3.9725 6.485C3.8975 6.575 3.74 6.71 3.5375 6.935C3.34413 7.15363 3.19626 7.40859 3.1025 7.685C2.9946 7.96503 2.93868 8.2624 2.9375 8.5625C2.93648 8.75309 2.9643 8.94273 3.02 9.125C3.12524 9.41721 3.30646 9.6761 3.545 9.875C3.72622 10.0261 3.92519 10.1546 4.1375 10.2575C4.475 10.4225 4.79 10.52 5.045 10.6175C5.24962 10.6834 5.44214 10.7822 5.615 10.91C5.70939 11.0004 5.79022 11.104 5.855 11.2175C5.9525 11.36 6.0575 11.5475 6.2 11.7425C6.39914 12.049 6.62773 12.3354 6.8825 12.5975C7.0443 12.7626 7.22862 12.904 7.43 13.0175C7.65944 13.1469 7.91674 13.2189 8.18 13.2275C8.40311 13.2303 8.62386 13.1816 8.825 13.085C9.1086 12.9421 9.33197 12.7028 9.455 12.41C9.55673 12.1734 9.60537 11.9174 9.5975 11.66C9.59524 11.4558 9.57262 11.2523 9.53 11.0525C9.48413 10.8381 9.4615 10.6193 9.4625 10.4C9.46104 10.1839 9.47861 9.96804 9.515 9.755C9.5525 9.545 9.6275 9.305 9.695 9.005C9.78508 8.69278 9.83301 8.36992 9.8375 8.045C9.84496 7.95265 9.84496 7.85985 9.8375 7.7675C9.80267 7.35204 9.60606 6.96689 9.29 6.695C8.99448 6.45137 8.62971 6.30704 8.2475 6.2825C7.99283 6.27473 7.74044 6.23182 7.4975 6.155L7.43 6.1175V6.0425C7.43 5.9675 7.43 5.9675 7.505 5.8925C7.72812 5.71628 7.98261 5.58395 8.255 5.5025C8.64101 5.37901 9.01108 5.21034 9.3575 5C9.6564 4.77573 9.88953 4.47525 10.0325 4.13C10.1741 3.80584 10.2481 3.45622 10.25 3.1025C10.2477 2.88546 10.2226 2.66927 10.175 2.4575C11.0109 2.77729 11.7647 3.28004 12.3811 3.9289C12.9975 4.57776 13.461 5.35631 13.7375 6.2075C13.3803 6.27504 13.0393 6.40994 12.7325 6.605C12.3648 6.84714 12.0981 7.21517 11.9825 7.64C11.9314 7.7974 11.9061 7.96202 11.9075 8.1275C11.9107 8.41681 11.9799 8.70157 12.11 8.96C12.2821 9.30005 12.522 9.60125 12.815 9.845C13.0455 10.0506 13.2969 10.2316 13.565 10.385C13.2517 11.1012 12.8035 11.7505 12.245 12.2975Z" fill="#222221"/>
</svg>
