
<svg width="385" height="385" viewBox="0 0 385 385" fill="none" xmlns="http://www.w3.org/2000/svg">
<path d="M372 369.64L337.42 355.84C322.47 349.84 307.51 343.95 292.6 337.84C291.243 337.244 289.78 336.929 288.298 336.915C286.816 336.901 285.347 337.189 283.98 337.76C254.7 348.85 225.36 359.76 196.08 370.85C193.672 371.846 190.968 371.846 188.56 370.85C159.28 359.77 129.94 348.85 100.65 337.76C99.2195 337.17 97.6839 336.877 96.1366 336.899C94.5893 336.922 93.0628 337.259 91.65 337.89C66.56 348.04 41.4 358.04 16.26 368.08C15.01 368.58 13.73 368.99 12.19 369.55V365.48C12.19 312.493 12.1633 259.493 12.11 206.48C12.11 203.48 13 202.22 15.75 201.14C41.3967 191.027 67 180.797 92.56 170.45C93.7316 169.918 95 169.632 96.2865 169.61C97.5731 169.587 98.8505 169.829 100.04 170.32C129.33 181.4 158.67 192.32 187.95 203.43C190.727 204.546 193.832 204.52 196.59 203.36C225.99 192.247 255.427 181.23 284.9 170.31C286.95 169.599 289.18 169.599 291.23 170.31C317.34 180.59 343.38 191.07 369.45 201.46C371.2 202.16 372.26 202.82 372.25 205.1C372.163 259.467 372.133 313.83 372.16 368.19C372.18 368.55 372.11 368.8 372 369.64ZM360.2 279C360.2 258.25 360.13 237.5 360.26 216.75C360.26 212.49 358.58 210.06 354.71 208.52C334.043 200.347 313.43 192.1 292.87 183.78C291.386 183.153 289.791 182.831 288.18 182.831C286.569 182.831 284.974 183.153 283.49 183.78C254.197 194.86 224.863 205.86 195.49 216.78C193.457 217.489 191.247 217.51 189.2 216.84C159.827 205.98 130.493 195.013 101.2 183.94C98.2 182.81 95.39 182.3 92.2 183.61C71.3866 192.05 50.5333 200.383 29.64 208.61C25.71 210.16 24.14 212.61 24.15 216.85C24.2433 258.223 24.2633 299.597 24.21 340.97C24.21 348.27 27.7 350.64 34.53 347.97C54.12 340.18 73.68 332.31 93.31 324.63C95.2129 323.924 97.2979 323.878 99.23 324.5C128.603 335.367 157.937 346.347 187.23 357.44C190.466 358.765 194.094 358.765 197.33 357.44C226.5 346.44 255.72 335.54 284.88 324.44C285.951 324.003 287.099 323.79 288.256 323.816C289.412 323.842 290.55 324.105 291.6 324.59C311.04 332.437 330.5 340.23 349.98 347.97C356.77 350.68 360.22 348.28 360.22 340.91C360.213 320.263 360.207 299.627 360.2 279Z" fill="#F1EDFC"/>
<path d="M192.1 159.4C173.47 135.96 155.92 112.61 143.1 85.89C128.91 56.34 148.92 22.4 177.83 14.54C211.83 5.29 246.19 31.01 246.18 66.16C246.18 74.5 243.08 82.03 239.56 89.36C228.13 113.17 212.4 134.13 196.03 154.66C194.87 156.11 193.67 157.51 192.1 159.4ZM192.4 36.65C186.454 36.6064 180.628 38.331 175.664 41.6049C170.7 44.8787 166.82 49.554 164.519 55.0371C162.217 60.5201 161.597 66.5636 162.736 72.3999C163.876 78.2362 166.725 83.6021 170.921 87.8162C175.116 92.0302 180.47 94.9022 186.301 96.0675C192.133 97.2329 198.179 96.6389 203.672 94.361C209.165 92.0832 213.857 88.2242 217.152 83.2742C220.448 78.3243 222.198 72.5066 222.18 66.56C222.159 58.6571 219.021 51.0816 213.447 45.4793C207.872 39.877 200.313 36.7006 192.41 36.64L192.4 36.65Z" fill="#FFD10C"/>
<path d="M270.2 201.72C270.2 214.22 270.27 226.21 270.07 238.19C270.07 239.24 268.42 240.77 267.22 241.19C248.59 248.31 229.9 255.29 211.22 262.29C205.73 264.35 200.28 266.5 194.72 268.36C193.115 268.881 191.385 268.881 189.78 268.36C165.467 259.353 141.19 250.247 116.95 241.04C115.8 240.6 114.34 238.96 114.32 237.86C114.13 226 114.2 214.14 114.2 201.86C115.81 202.36 117.2 202.7 118.5 203.2C141.493 211.82 164.493 220.463 187.5 229.13C190.502 230.378 193.875 230.396 196.89 229.18C220.323 220.307 243.78 211.497 267.26 202.75C268 202.49 268.83 202.21 270.2 201.72Z" fill="#F1EDFC"/>
<path d="M36.2 283C36.2 279 36 275.49 36.32 272C36.42 271 37.82 269.62 38.93 269.17C53.83 263.09 68.78 257.17 83.72 251.17C89.72 248.78 90.2 247.99 90.2 241.42C90.2 228.047 90.2 214.677 90.2 201.31C90.2 196.81 93.96 194.2 98.31 195.7C99.6 196.14 100.84 196.7 102.2 197.26V242.01C102.2 247.7 102.95 248.76 108.36 250.79C134.98 260.79 161.59 270.79 188.28 280.64C190.815 281.511 193.564 281.528 196.11 280.69C222.8 270.89 249.41 260.84 276.03 250.84C281.48 248.84 282.2 247.66 282.21 241.64C282.21 226.9 282.21 212.16 282.21 197.09C284.37 196.42 286.49 195.19 288.57 195.24C292.68 195.34 294.21 197.41 294.21 201.63C294.21 215.38 294.29 229.12 294.21 242.87C294.21 246.96 295.84 249.25 299.64 250.74C314.86 256.74 329.97 262.91 345.18 268.88C347.49 269.79 348.55 270.88 348.31 273.44C348.04 276.44 348.25 279.44 348.25 282.94C346.65 282.36 345.4 281.94 344.17 281.45C326.91 274.56 309.63 267.72 292.41 260.72C291.05 260.135 289.585 259.833 288.105 259.833C286.625 259.833 285.16 260.135 283.8 260.72C257.267 270.74 230.747 280.693 204.24 290.58C198.91 292.58 198.24 293.58 198.24 299.43C198.24 313.177 198.24 326.923 198.24 340.67C198.212 341.501 198.002 342.317 197.624 343.058C197.246 343.799 196.71 344.448 196.054 344.96C195.398 345.471 194.637 345.832 193.826 346.017C193.015 346.202 192.173 346.206 191.36 346.03C188.1 345.2 185.93 344.03 186.08 339.59C186.52 326.11 186.25 312.59 186.24 299.11C186.24 293.81 185.42 292.53 180.6 290.71C153.75 280.6 126.91 270.46 99.99 260.55C97.5502 259.796 94.9287 259.877 92.54 260.78C74.97 267.58 57.54 274.65 40.02 281.63C38.95 282 37.9 282.36 36.2 283Z" fill="#F1EDFC"/>
<path d="M36.2 334.16C36.2 321.83 36.15 309.97 36.29 298.16C36.3938 297.557 36.6367 296.986 36.9995 296.493C37.3623 296 37.835 295.599 38.38 295.32C57.1 287.72 75.8566 280.213 94.65 272.8C95.9033 272.365 97.2667 272.365 98.52 272.8C122.947 281.873 147.347 291.02 171.72 300.24C172.72 300.62 174.08 301.97 174.1 302.88C174.26 314.97 174.21 327.05 174.21 339.59C166.35 336.66 158.9 333.9 151.45 331.11C134.64 324.8 117.81 318.53 101.04 312.11C99.4965 311.469 97.8387 311.149 96.1676 311.17C94.4965 311.191 92.8472 311.551 91.32 312.23C74.32 319.18 57.32 325.92 40.32 332.73C39.14 333.19 38 333.55 36.2 334.16Z" fill="#FFD10C"/>
<path d="M210.2 339.48C210.2 327.04 210.2 315.17 210.29 303.31C210.376 302.711 210.602 302.141 210.949 301.646C211.297 301.151 211.756 300.745 212.29 300.46C236.89 291.127 261.523 281.88 286.19 272.72C287.451 272.318 288.811 272.353 290.05 272.82C308.717 280.207 327.35 287.677 345.95 295.23C346.499 295.501 346.978 295.895 347.351 296.38C347.723 296.865 347.98 297.43 348.1 298.03C348.25 309.89 348.2 321.75 348.2 334.1C346.65 333.56 345.4 333.18 344.2 332.69C327.2 325.89 310.14 319.13 293.2 312.21C291.672 311.534 290.023 311.175 288.352 311.154C286.682 311.134 285.024 311.452 283.48 312.09C260.29 320.9 237.04 329.56 213.8 338.26C212.73 338.67 211.67 339 210.2 339.48Z" fill="#F1EDFC"/>
<path d="M348.2 257.24L306.35 240.5V202.23L315.91 206.05C325.91 210.05 335.83 213.96 345.73 218.05C346.328 218.335 346.852 218.753 347.261 219.274C347.67 219.794 347.954 220.402 348.09 221.05C348.26 232.93 348.2 244.79 348.2 257.24Z" fill="#FFD10C"/>
<path d="M78 202.26V240.53L36.2 257.27C36.2 253.19 36.2 249.53 36.2 245.87C36.2 237.75 36.2 229.64 36.26 221.52C36.26 220.52 36.83 218.83 37.57 218.52C50.92 213.05 64.33 207.73 78 202.26Z" fill="#F1EDFC"/>
<path d="M0.200012 196.39C2.20001 194.99 3.97001 193.13 6.20001 192.25C34.77 180.72 63.4 169.37 91.97 157.86C93.3328 157.28 94.7988 156.98 96.28 156.98C97.7612 156.98 99.2272 157.28 100.59 157.86C129.87 168.92 159.2 179.86 188.48 190.93C190.881 191.941 193.585 191.959 196 190.98C225.28 179.91 254.61 168.98 283.88 157.9C285.243 157.32 286.709 157.02 288.19 157.02C289.671 157.02 291.137 157.32 292.5 157.9C320.96 169.37 349.5 180.69 377.93 192.18C380.23 193.11 382.14 195.01 384.23 196.46V384.64H376C375.428 384.21 374.819 383.832 374.18 383.51C346.313 372.343 318.43 361.217 290.53 350.13C288.681 349.583 286.703 349.671 284.91 350.38C263.17 358.42 241.467 366.55 219.8 374.77C211.34 377.97 202.94 381.35 194.51 384.64H190C189.309 384.163 188.58 383.745 187.82 383.39C158.193 372.263 128.553 361.183 98.9 350.15C97.0528 349.597 95.0733 349.682 93.28 350.39C70.5667 359.357 47.9 368.417 25.28 377.57C19.66 379.83 14.12 382.28 8.54002 384.65H0.200012C0.200012 321.897 0.200012 259.143 0.200012 196.39ZM372 369.64C372.13 368.8 372.2 368.56 372.2 368.31C372.2 313.943 372.23 259.58 372.29 205.22C372.29 202.95 371.23 202.28 369.49 201.58C343.42 191.19 317.39 180.71 291.27 170.43C289.22 169.719 286.99 169.719 284.94 170.43C255.46 181.337 226.023 192.353 196.63 203.48C193.872 204.64 190.767 204.666 187.99 203.55C158.71 192.46 129.36 181.55 100.08 170.44C98.8906 169.949 97.6131 169.707 96.3265 169.73C95.04 169.752 93.7717 170.038 92.6 170.57C67.04 180.903 41.4367 191.133 15.79 201.26C13.04 202.34 12.15 203.61 12.15 206.6C12.2567 259.587 12.2834 312.587 12.23 365.6V369.67C13.78 369.11 15.05 368.67 16.3 368.2C41.44 358.2 66.59 348.2 91.69 338.01C93.1028 337.379 94.6293 337.042 96.1766 337.019C97.7239 336.997 99.2596 337.29 100.69 337.88C129.97 348.96 159.31 359.88 188.6 370.97C191.008 371.966 193.712 371.966 196.12 370.97C225.41 359.9 254.74 348.97 284.02 337.88C285.387 337.309 286.856 337.021 288.338 337.035C289.82 337.049 291.284 337.364 292.64 337.96C307.54 344.03 322.51 349.96 337.46 355.96L372 369.64Z" fill="#54328E"/>
<path d="M199 0.640015C204.89 2.19001 211 3.22001 216.63 5.39001C228.798 10.1865 239.258 18.5053 246.671 29.2815C254.084 40.0578 258.112 52.801 258.24 65.88C258.24 74.69 255.56 82.88 252.07 90.78C242.64 112.19 229.31 131.21 215.22 149.71C209.47 157.26 203.41 164.58 197.34 171.88C194.25 175.59 190.43 175.72 187.42 172.15C167.03 147.93 148.24 122.68 133.82 94.26C113.32 53.87 139.18 15.32 169.26 4.84001C174.52 3.01001 180.08 2.02001 185.5 0.640015H199ZM192.1 159.4C193.66 157.52 194.87 156.12 196.02 154.67C212.39 134.14 228.13 113.18 239.55 89.37C243.07 82.04 246.17 74.51 246.17 66.17C246.17 31.01 211.87 5.30002 177.82 14.55C148.91 22.4 128.9 56.34 143.09 85.9C155.93 112.61 173.47 136 192.1 159.4Z" fill="#54328E"/>
<path d="M360.2 279C360.2 299.627 360.2 320.25 360.2 340.87C360.2 348.25 356.75 350.64 349.96 347.93C330.487 340.17 311.027 332.377 291.58 324.55C290.53 324.065 289.392 323.802 288.236 323.776C287.08 323.75 285.93 323.963 284.86 324.4C255.7 335.45 226.48 346.32 197.31 357.4C194.074 358.725 190.446 358.725 187.21 357.4C157.923 346.307 128.59 335.327 99.21 324.46C97.2779 323.838 95.1929 323.884 93.29 324.59C73.66 332.27 54.1 340.14 34.51 347.93C27.68 350.65 24.19 348.27 24.19 340.93C24.19 299.557 24.17 258.183 24.13 216.81C24.13 212.58 25.69 210.12 29.62 208.57C50.5133 200.33 71.3667 191.997 92.18 183.57C95.39 182.27 98.18 182.77 101.18 183.9C130.513 194.92 159.847 205.887 189.18 216.8C191.227 217.47 193.437 217.449 195.47 216.74C224.837 205.867 254.17 194.867 283.47 183.74C284.954 183.113 286.549 182.791 288.16 182.791C289.771 182.791 291.366 183.113 292.85 183.74C313.437 192.06 334.05 200.307 354.69 208.48C358.57 210.01 360.27 212.48 360.24 216.71C360.13 237.51 360.2 258.26 360.2 279ZM270.2 201.72C268.83 202.21 268.02 202.49 267.2 202.79C243.733 211.597 220.28 220.407 196.84 229.22C193.825 230.436 190.452 230.418 187.45 229.17C164.497 220.443 141.497 211.8 118.45 203.24C117.13 202.75 115.76 202.4 114.15 201.9C114.15 214.21 114.08 226.07 114.27 237.9C114.27 239 115.75 240.64 116.9 241.08C141.14 250.293 165.417 259.4 189.73 268.4C191.335 268.921 193.065 268.921 194.67 268.4C200.22 266.54 205.67 264.4 211.17 262.33C229.85 255.33 248.53 248.33 267.17 241.23C268.37 240.77 270 239.23 270.02 238.23C270.27 226.21 270.2 214.22 270.2 201.72ZM36.2 283C37.89 282.4 38.95 282.06 39.97 281.65C57.46 274.65 74.97 267.59 92.49 260.8C94.8786 259.897 97.5002 259.816 99.94 260.57C126.86 270.48 153.7 280.62 180.55 290.73C185.38 292.55 186.19 293.82 186.19 299.13C186.19 312.63 186.48 326.13 186.03 339.61C185.88 344.07 188.03 345.22 191.31 346.05C192.123 346.226 192.965 346.222 193.776 346.037C194.587 345.852 195.348 345.491 196.004 344.98C196.66 344.468 197.196 343.819 197.574 343.078C197.952 342.337 198.162 341.521 198.19 340.69C198.19 326.943 198.19 313.197 198.19 299.45C198.19 293.63 198.9 292.6 204.19 290.6C230.703 280.653 257.21 270.693 283.71 260.72C285.07 260.135 286.535 259.833 288.015 259.833C289.495 259.833 290.96 260.135 292.32 260.72C309.53 267.72 326.81 274.57 344.08 281.45C345.31 281.94 346.56 282.36 348.16 282.94C348.16 279.42 347.96 276.41 348.22 273.44C348.45 270.84 347.4 269.79 345.09 268.88C329.88 262.88 314.77 256.69 299.55 250.74C295.75 249.25 294.08 246.96 294.12 242.87C294.24 229.13 294.12 215.38 294.12 201.63C294.12 197.42 292.59 195.35 288.48 195.24C286.39 195.19 284.28 196.42 282.12 197.09V241.64C282.12 247.64 281.4 248.79 275.94 250.84C249.32 260.84 222.72 270.84 196.02 280.69C193.474 281.528 190.725 281.511 188.19 280.64C161.5 270.83 134.9 260.78 108.27 250.79C102.86 248.79 102.11 247.7 102.11 242.01C102.11 227.15 102.11 212.28 102.11 197.26C100.75 196.71 99.51 196.15 98.22 195.7C93.87 194.2 90.11 196.8 90.11 201.31C90.11 214.683 90.11 228.053 90.11 241.42C90.11 247.99 89.6 248.78 83.63 251.17C68.69 257.17 53.74 263.09 38.84 269.17C37.73 269.62 36.33 270.96 36.23 272C36 275.45 36.2 279 36.2 283ZM36.2 334.2C37.95 333.59 39.13 333.2 40.28 332.77C57.28 325.96 74.35 319.22 91.28 312.27C92.8072 311.591 94.4566 311.231 96.1277 311.21C97.7987 311.189 99.4565 311.509 101 312.15C117.77 318.56 134.6 324.83 151.41 331.15C158.85 333.94 166.31 336.7 174.17 339.63C174.17 327.09 174.22 315.01 174.06 302.92C174.06 302.01 172.7 300.66 171.68 300.28C147.313 291.053 122.913 281.907 98.48 272.84C97.2267 272.405 95.8633 272.405 94.61 272.84C75.8167 280.26 57.06 287.767 38.34 295.36C37.795 295.638 37.3223 296.04 36.9596 296.533C36.5968 297.026 36.3538 297.597 36.25 298.2C36.15 310 36.2 321.83 36.2 334.16V334.2ZM210.2 339.52C211.67 339.03 212.72 338.71 213.76 338.32C236.99 329.62 260.25 320.96 283.44 312.15C284.984 311.512 286.642 311.194 288.312 311.214C289.983 311.235 291.632 311.594 293.16 312.27C310.16 319.19 327.16 325.95 344.16 332.75C345.37 333.23 346.62 333.62 348.16 334.16C348.16 321.81 348.21 309.95 348.06 298.09C347.94 297.49 347.683 296.925 347.311 296.44C346.938 295.955 346.459 295.561 345.91 295.29C327.317 287.73 308.683 280.26 290.01 272.88C288.771 272.413 287.411 272.378 286.15 272.78C261.483 281.94 236.85 291.187 212.25 300.52C211.716 300.805 211.257 301.211 210.909 301.706C210.562 302.201 210.336 302.771 210.25 303.37C210.15 315.18 210.2 327 210.2 339.48V339.52ZM348.2 257.27C348.2 244.83 348.26 232.97 348.09 221.12C347.954 220.472 347.67 219.864 347.261 219.344C346.852 218.823 346.328 218.405 345.73 218.12C335.83 214 325.86 210.12 315.91 206.12L306.35 202.3V240.5L348.2 257.27ZM78 202.26C64.31 207.73 50.89 213.06 37.55 218.54C36.81 218.85 36.25 220.54 36.24 221.54C36.13 229.66 36.18 237.77 36.18 245.89V257.29L78 240.53V202.26Z" fill="#54328E"/>
<path d="M192.41 36.6401C198.34 36.6797 204.126 38.476 209.036 41.8022C213.945 45.1283 217.759 49.8351 219.995 55.3278C222.232 60.8205 222.79 66.8527 221.599 72.6623C220.408 78.472 217.522 83.7985 213.306 87.9688C209.09 92.1391 203.732 94.9663 197.909 96.093C192.087 97.2197 186.061 96.5955 180.593 94.2992C175.126 92.0029 170.461 88.1375 167.189 83.1914C163.917 78.2453 162.184 72.4404 162.21 66.5101C162.227 62.5645 163.022 58.661 164.55 55.0232C166.078 51.3853 168.308 48.0846 171.113 45.31C173.919 42.5354 177.244 40.3414 180.898 38.8537C184.552 37.3659 188.464 36.6137 192.41 36.6401ZM192.25 84.6401C195.821 84.6397 199.312 83.5768 202.278 81.5868C205.243 79.5967 207.55 76.7694 208.904 73.4645C210.258 70.1597 210.599 66.5268 209.882 63.028C209.165 59.5291 207.424 56.3226 204.879 53.8163C202.335 51.3101 199.102 49.6174 195.593 48.9536C192.084 48.2899 188.457 48.6851 185.173 50.089C181.889 51.4929 179.096 53.8419 177.151 56.8373C175.206 59.8327 174.196 63.339 174.25 66.9101C174.341 71.6286 176.276 76.1239 179.64 79.4338C183.005 82.7437 187.531 84.6053 192.25 84.6201V84.6401Z" fill="#54328E"/>
</svg>
