
<svg width="386" height="385" viewBox="0 0 386 385" fill="none" xmlns="http://www.w3.org/2000/svg">
<path d="M223 215.05C224.37 215.163 225.746 215.193 227.12 215.14H354.32C351.15 233.14 348.07 250.72 344.97 268.29C339.57 298.897 334.17 329.503 328.77 360.11C327.4 367.96 325.56 369.64 317.71 369.64H69.86C61.94 369.64 60.14 367.99 58.76 360.16C50.6333 313.94 42.4767 267.723 34.29 221.51C33.94 219.51 33.64 217.58 33.24 215.13H160.36C161.734 215.184 163.109 215.157 164.48 215.05C166.334 214.868 168.053 213.998 169.299 212.612C170.544 211.226 171.226 209.424 171.21 207.561C171.193 205.697 170.48 203.908 169.211 202.544C167.941 201.18 166.207 200.34 164.35 200.19C163.102 200.107 161.85 200.087 160.6 200.13H27.13C18.99 200.13 16.76 197.86 16.75 189.61C16.75 184.36 16.69 179.11 16.75 173.86C16.81 168.61 19.75 165.66 24.89 165.65C73.2567 165.617 121.62 165.643 169.98 165.73C170.691 165.835 171.369 166.095 171.968 166.493C172.566 166.89 173.069 167.415 173.44 168.03C181.03 182.11 198.71 185.33 209.68 173.66C215.63 167.34 221.68 165.36 230.17 165.44C273.66 165.86 317.17 165.63 360.64 165.64C368.37 165.64 370.72 167.99 370.72 175.69V191.06C370.72 197.42 367.97 200.12 361.51 200.13C316.643 200.13 271.78 200.13 226.92 200.13C225.67 200.13 224.41 200.06 223.17 200.18M96.25 292.43C96.25 305.157 96.25 317.887 96.25 330.62C96.25 336.11 99.09 339.52 103.6 339.62C108.11 339.72 111.23 336.2 111.23 330.53C111.23 305.07 111.23 279.613 111.23 254.16C111.23 248.66 108.4 245.27 103.87 245.16C99.34 245.05 96.25 248.55 96.24 254.24C96.2333 266.973 96.2367 279.703 96.25 292.43ZM156.25 292.54C156.25 279.44 156.25 266.33 156.25 253.23C156.25 248.43 153.05 245.15 148.75 245.16C147.746 245.155 146.752 245.354 145.828 245.745C144.904 246.136 144.069 246.711 143.374 247.435C142.679 248.159 142.138 249.017 141.785 249.957C141.432 250.896 141.274 251.898 141.32 252.9C141.26 279.23 141.19 305.56 141.46 331.9C141.46 334.17 143.37 337.21 145.32 338.53C150.17 341.83 156.2 337.82 156.25 331.48C156.31 318.5 156.25 305.52 156.25 292.54ZM186.25 292.34C186.25 305.067 186.25 317.797 186.25 330.53C186.25 336.19 189.25 339.7 193.89 339.61C198.53 339.52 201.23 336.09 201.24 330.61C201.24 305.15 201.24 279.693 201.24 254.24C201.24 248.57 198.24 245.08 193.59 245.17C188.94 245.26 186.26 248.64 186.25 254.17C186.23 266.89 186.23 279.613 186.25 292.34ZM246.25 292.79C246.25 279.69 246.25 266.58 246.25 253.48C246.25 248.17 242.54 244.62 237.87 245.2C233.81 245.7 231.29 248.9 231.28 253.78C231.28 270.873 231.28 287.97 231.28 305.07C231.28 313.93 231.22 322.79 231.28 331.65C231.33 336.65 235.13 340.14 239.64 339.57C243.7 339.05 246.22 335.85 246.23 330.98C246.27 318.25 246.25 305.52 246.25 292.79ZM276.25 292.12C276.25 304.847 276.25 317.577 276.25 330.31C276.25 336.11 279.04 339.56 283.67 339.61C288.3 339.66 291.24 336.16 291.24 330.46C291.24 305.127 291.24 279.793 291.24 254.46C291.24 248.65 288.46 245.22 283.82 245.17C279.18 245.12 276.26 248.58 276.26 254.31C276.24 266.91 276.237 279.513 276.25 292.12Z" fill="#F1EDFC"/>
<path d="M198.19 163.7C196.688 164.769 194.853 165.264 193.017 165.093C191.182 164.922 189.469 164.098 188.19 162.77C187.425 161.994 186.869 161.036 186.573 159.987C186.278 158.938 186.253 157.831 186.5 156.77C187.02 153.92 189.84 151.38 190.38 150.84C234.007 107.193 277.643 63.5533 321.29 19.92C326.19 15.02 330.35 14.33 333.9 17.81C337.45 21.29 336.9 25.6 332.03 30.42C288.337 74.14 244.61 117.853 200.85 161.56C200.032 162.355 199.141 163.071 198.19 163.7Z" fill="#F1EDFC"/>
<path d="M325.604 9.46289L339.958 23.8172L192.944 170.832L178.59 156.477L325.604 9.46289Z" fill="#FFD10C"/>
<path d="M10.24 161.37H380.15V207.39H10.24V161.37Z" fill="#FFD10C"/>
<path d="M325 384.64H62.5C61.61 384.27 60.74 383.85 59.83 383.53C51.5 380.53 46.33 374.71 44.62 366.07C42.91 357.43 41.53 348.64 39.99 339.93C32.7367 298.81 25.4667 257.693 18.18 216.58C18.01 215.58 17.41 214.18 16.65 213.88C7.47001 210.32 2.95001 202.88 1.00001 193.25L0.790009 173.69C4.88001 150.58 20.57 149.29 37.6 150.89C42.26 130.47 52.72 114.4 69.92 103.07C87.12 91.74 105.92 88.41 126.25 92.07C126.25 84.19 126.25 76.7 126.25 69.21C126.274 62.9628 128.769 56.9791 133.192 52.5663C137.614 48.1535 143.603 45.6706 149.85 45.66C164.097 45.6267 178.34 45.6267 192.58 45.66C206.58 45.66 216.17 55.19 216.24 69.13V99.88C216.24 100.93 216.39 101.99 216.47 103.04L217.47 103.34C218.125 102.331 218.854 101.372 219.65 100.47C249.33 70.7567 278.997 41.04 308.65 11.32C313.4 6.55004 318.3 2.32002 324.98 0.650024H332.48C332.908 0.89684 333.357 1.10757 333.82 1.28003C351.72 6.36003 357.12 26.38 344.03 39.64C328.23 55.64 312.26 71.46 296.36 87.36C295.46 88.26 294.6 89.2 293.22 90.65H312.85C326.54 90.72 336.15 100.31 336.22 114.02C336.27 124.89 336.22 135.75 336.22 146.62V150.62C345.7 150.62 354.57 150.5 363.44 150.62C367.277 150.57 371.058 151.549 374.389 153.456C377.72 155.362 380.479 158.126 382.38 161.46C383.84 163.87 384.63 166.69 385.73 169.33V196.33C383.45 204.45 378.99 210.67 370.82 213.83C370.06 214.12 369.48 215.54 369.29 216.53C367.46 226.46 365.74 236.41 363.99 246.35C356.957 286.243 349.917 326.133 342.87 366.02C342.436 368.877 341.412 371.613 339.862 374.053C338.313 376.492 336.272 378.583 333.87 380.19C331.18 382.06 328 383.19 325 384.64ZM159.36 215.14H33.24C33.64 217.59 33.95 219.56 34.29 221.52C42.45 267.733 50.6067 313.95 58.76 360.17C60.14 368 61.94 369.65 69.86 369.65H317.68C325.53 369.65 327.37 367.96 328.74 360.12C334.073 329.507 339.473 298.9 344.94 268.3C348.04 250.73 351.12 233.16 354.29 215.15H227.09C225.72 215.15 174.33 215.23 172.97 215.06L159.36 215.14ZM176.95 200.14H361.54C367.99 200.14 370.71 197.44 370.75 191.07C370.75 185.95 370.75 180.82 370.75 175.7C370.75 167.99 368.39 165.65 360.67 165.65C317.18 165.65 273.67 165.87 230.2 165.45C221.74 165.37 215.65 167.34 209.71 173.67C198.71 185.34 181.05 182.12 173.47 168.04C173.099 167.425 172.596 166.9 171.998 166.503C171.399 166.105 170.721 165.845 170.01 165.74C121.643 165.627 73.28 165.6 24.92 165.66C19.76 165.66 16.86 168.66 16.78 173.87C16.7 179.08 16.78 184.37 16.78 189.62C16.78 197.87 19.02 200.14 27.16 200.14H176.95ZM168.95 150.51C164.37 128.79 141.61 104.06 107.7 105.72C82.22 106.96 55.59 128.91 53.7 150.51H168.95ZM181.95 138.21C187.86 132.27 194.13 126.02 200.29 119.66C200.927 118.775 201.241 117.699 201.18 116.61C201.233 100.757 201.233 84.9 201.18 69.04C201.172 66.82 200.287 64.693 198.717 63.1232C197.147 61.5534 195.02 60.6679 192.8 60.66C178.433 60.6134 164.067 60.6134 149.7 60.66C144.07 60.66 141.25 63.58 141.21 69.28C141.21 77.53 141.28 85.77 141.14 94.02C141.14 96.26 141.92 97.28 143.87 98.21C154.028 102.873 162.875 109.977 169.62 118.89C174.17 124.93 177.82 131.61 182 138.21H181.95ZM188.21 162.77C189.495 164.087 191.207 164.904 193.039 165.074C194.871 165.244 196.704 164.757 198.21 163.7C199.161 163.074 200.052 162.361 200.87 161.57C244.65 117.897 288.39 74.1834 332.09 30.43C336.91 25.61 337.54 21.32 333.96 17.82C330.38 14.32 326.25 15.03 321.35 19.93C277.71 63.57 234.073 107.21 190.44 150.85C189.374 151.875 188.412 153.004 187.57 154.22C186.718 155.518 186.321 157.062 186.442 158.61C186.564 160.157 187.196 161.621 188.24 162.77H188.21ZM321.21 150.48C321.21 138.19 321.21 126.33 321.21 114.48C321.21 108.4 318.38 105.67 312.21 105.65C301.82 105.65 291.43 105.54 281.04 105.74C279.186 105.887 277.431 106.635 276.04 107.87C262.6 121.1 249.3 134.47 235.98 147.81C235.24 148.55 234.59 149.37 233.61 150.48H321.21Z" fill="#54328E"/>
<path d="M96.25 292.43C96.25 279.703 96.25 266.973 96.25 254.24C96.25 248.55 99.25 245.07 103.88 245.16C108.51 245.25 111.24 248.64 111.24 254.16C111.24 279.62 111.24 305.077 111.24 330.53C111.24 336.2 108.24 339.71 103.61 339.62C98.98 339.53 96.27 336.12 96.26 330.62C96.2333 317.887 96.23 305.157 96.25 292.43Z" fill="#54328E"/>
<path d="M156.25 292.54C156.25 305.54 156.32 318.54 156.25 331.47C156.25 337.81 150.17 341.82 145.32 338.52C143.37 337.19 141.48 334.16 141.46 331.89C141.19 305.56 141.26 279.23 141.32 252.89C141.274 251.887 141.432 250.886 141.785 249.947C142.138 249.007 142.679 248.149 143.374 247.425C144.069 246.701 144.904 246.126 145.828 245.735C146.752 245.344 147.746 245.145 148.75 245.15C153.05 245.15 156.23 248.42 156.25 253.22C156.29 266.34 156.25 279.44 156.25 292.54Z" fill="#54328E"/>
<path d="M186.25 292.34C186.25 279.613 186.25 266.883 186.25 254.15C186.25 248.63 189.05 245.25 193.59 245.15C198.13 245.05 201.23 248.54 201.24 254.22C201.24 279.68 201.24 305.137 201.24 330.59C201.24 336.08 198.4 339.5 193.89 339.59C189.38 339.68 186.26 336.17 186.25 330.51C186.237 317.797 186.237 305.073 186.25 292.34Z" fill="#54328E"/>
<path d="M246.25 292.79V330.98C246.25 335.85 243.71 339.05 239.66 339.57C235.15 340.15 231.35 336.68 231.3 331.65C231.21 322.79 231.3 313.93 231.3 305.07C231.3 287.977 231.3 270.88 231.3 253.78C231.3 248.9 233.83 245.7 237.89 245.2C242.56 244.62 246.25 248.2 246.27 253.48C246.29 266.59 246.25 279.69 246.25 292.79Z" fill="#54328E"/>
<path d="M276.25 292.12C276.25 279.513 276.25 266.91 276.25 254.31C276.25 248.58 279.15 245.12 283.81 245.17C288.47 245.22 291.23 248.65 291.23 254.46C291.23 279.793 291.23 305.127 291.23 330.46C291.23 336.16 288.29 339.66 283.66 339.61C279.03 339.56 276.25 336.1 276.24 330.31C276.233 317.577 276.237 304.847 276.25 292.12Z" fill="#54328E"/>
</svg>
