<svg width="351" height="385" viewBox="0 0 351 385" fill="none" xmlns="http://www.w3.org/2000/svg">
<path d="M183.64 0.910034C188.99 2.01003 194.44 2.80003 199.64 4.27003C211.255 7.50304 222.104 13.0305 231.548 20.5261C240.991 28.0216 248.837 37.3333 254.622 47.9113C260.407 58.4893 264.013 70.1192 265.229 82.1143C266.445 94.1094 265.245 106.226 261.7 117.75C261.45 118.58 261.22 119.43 260.89 120.58C261.89 121.14 262.94 121.77 264.02 122.29C277.49 128.84 290.93 135.45 304.45 141.88C310.006 144.482 314.774 148.509 318.27 153.55C326.85 165.69 335.76 177.55 344.47 189.64C354.61 203.64 350.65 219.09 335.06 226.64C330.8 228.71 324.93 229.87 322.84 233.3C320.65 236.9 322.01 242.72 322 247.58C322 264.2 321.9 280.83 322 297.45C322.08 310.45 316.39 319.52 304.68 325.18C266.253 343.753 227.857 362.383 189.49 381.07C186.38 382.57 183.05 383.62 179.83 384.87H170.83C149.65 374.87 128.43 364.94 107.31 354.87C86.71 345 66.25 334.87 45.66 324.97C34.18 319.46 28.66 310.49 28.66 297.83C28.71 277.46 28.66 257.08 28.74 236.71C28.74 233.93 27.95 232.39 25.38 231.31C21.47 229.67 17.68 227.74 13.9 225.82C0.529982 219.05 -3.55001 203.37 5.12999 191.16C14.76 177.62 24.47 164.16 34.56 150.93C37.3068 147.547 40.7521 144.798 44.66 142.87C58.43 135.82 72.44 129.23 86.36 122.47C87.47 121.93 88.54 121.34 89.11 121.04C87.76 112.98 85.83 105.31 85.29 97.55C82 50.28 115.03 9.25003 161.99 1.84003C163.69 1.57003 165.38 1.22003 167.08 0.910034H183.64ZM175.43 169.43C190.857 169.42 205.934 164.836 218.756 156.257C231.578 147.678 241.567 135.49 247.462 121.233C253.356 106.977 254.891 91.2926 251.871 76.164C248.852 61.0354 241.414 47.1419 230.499 36.2404C219.583 25.3389 205.68 17.919 190.548 14.9191C175.416 11.9191 159.733 13.4738 145.484 19.3866C131.236 25.2994 119.06 35.3046 110.498 48.1371C101.935 60.9697 97.3701 76.0531 97.38 91.48C97.4513 112.149 105.7 131.95 120.325 146.556C134.95 161.161 154.761 169.385 175.43 169.43ZM309.57 239.24C307.89 239.98 306.75 240.45 305.64 240.98C281.64 252.66 257.64 264.347 233.64 276.04C220.33 282.53 209.52 279.9 200.84 268.04C195.387 260.58 189.94 253.113 184.5 245.64C183.81 244.64 183.05 243.78 181.85 242.26V370.95C183.46 370.25 184.7 369.75 185.85 369.17L235.34 345.17C256.88 334.69 278.427 324.22 299.98 313.76C305.5 311.1 309.36 307.01 309.44 300.88C309.73 280.48 309.57 260.12 309.57 239.25V239.24ZM41.16 239.06V298.25C41.16 305.52 44.27 310.51 50.85 313.7C89.2433 332.28 127.613 350.91 165.96 369.59C166.96 370.05 167.96 370.39 169.13 370.87V242.1C167.91 243.62 167.13 244.51 166.45 245.46C160.997 252.92 155.55 260.387 150.11 267.86C141.39 279.86 130.68 282.59 117.41 276.15C99.8033 267.59 82.1866 259.017 64.56 250.43L41.16 239.06ZM165.88 224.93C164.72 224.34 163.95 223.93 163.17 223.55L92.52 189.18L43.39 165.3C41.85 164.55 40.5 163.5 38.95 165.68C31.04 176.75 22.87 187.68 15.02 198.76C11.15 204.25 13.02 211.2 19.02 214.46C21.53 215.84 24.16 217 26.74 218.26L123.3 265.26C130.44 268.73 135 267.57 139.77 261.05C147.77 250.063 155.77 239.063 163.77 228.05C164.43 227.13 165 226.19 165.88 224.93ZM184.81 224.99C193.81 237.31 202.36 249.14 210.98 260.99C215.89 267.71 220.22 268.8 227.77 265.14C261.923 248.533 296.043 231.927 330.13 215.32C338.23 211.38 339.96 204.44 334.71 197.2C327.38 187.08 319.91 177.07 312.71 166.86C310.95 164.36 309.61 164.23 306.99 165.51C277.963 179.73 248.9 193.893 219.8 208C208.26 213.56 196.74 219.18 184.81 225V224.99ZM256.22 132.27C238.11 163.55 211.83 181.52 175.46 181.54C139.09 181.56 112.6 163.54 94.56 132.33L49.41 154.27C51.01 155.1 52.1 155.7 53.21 156.27C92.81 175.51 132.407 194.78 172 214.08C173.051 214.685 174.242 215.003 175.455 215.003C176.668 215.003 177.859 214.685 178.91 214.08C217.797 195.067 256.713 176.12 295.66 157.24C297.46 156.36 299.24 155.43 301.5 154.24L256.22 132.27Z" fill="#54328E"/>
<path d="M175.43 169.43C160.003 169.43 144.923 164.855 132.095 156.285C119.268 147.714 109.271 135.532 103.367 121.279C97.4637 107.027 95.9191 91.3434 98.9287 76.2129C101.938 61.0824 109.367 47.1841 120.276 36.2756C131.184 25.3671 145.082 17.9384 160.213 14.9287C175.343 11.9191 191.027 13.4637 205.279 19.3674C219.532 25.271 231.714 35.2685 240.285 48.0955C248.855 60.9225 253.43 76.003 253.43 91.43C253.377 112.101 245.142 131.91 230.526 146.526C215.91 161.142 196.101 169.377 175.43 169.43Z" fill="#FFD10C"/>
<path d="M309.57 239.25C309.57 260.12 309.73 280.48 309.47 300.83C309.39 306.96 305.53 311.05 300.01 313.71C278.437 324.123 256.89 334.593 235.37 345.12L185.88 369.12C184.68 369.7 183.44 370.19 181.88 370.9V242.27C183.08 243.79 183.88 244.69 184.53 245.65C189.983 253.117 195.43 260.583 200.87 268.05C209.54 279.92 220.36 282.54 233.67 276.05C257.67 264.35 281.67 252.663 305.67 240.99C306.74 240.45 307.88 240 309.57 239.25Z" fill="#F1EDFC"/>
<path d="M41.16 239.07L64.57 250.44C82.1767 259.007 99.7833 267.577 117.39 276.15C130.65 282.59 141.39 279.86 150.09 267.86C155.523 260.387 160.97 252.92 166.43 245.46C167.12 244.51 167.9 243.62 169.11 242.1V370.88C167.91 370.4 166.89 370.06 165.94 369.6C127.567 350.967 89.1967 332.337 50.83 313.71C44.26 310.53 41.12 305.53 41.14 298.26C41.2 278.78 41.16 259.29 41.16 239.07Z" fill="#F1EDFC"/>
<path d="M165.88 224.93C165.03 226.19 164.43 227.13 163.78 228.02C155.78 239.02 147.78 250.02 139.78 261.02C135.01 267.55 130.45 268.71 123.31 265.23L26.75 218.23C24.17 216.98 21.54 215.82 19.03 214.43C13.11 211.17 11.19 204.22 15.03 198.73C22.88 187.61 31.0301 176.73 38.9601 165.65C40.5101 163.48 41.87 164.52 43.4 165.27L92.53 189.15L163.18 223.52C164 223.93 164.72 224.34 165.88 224.93Z" fill="#F1EDFC"/>
<path d="M184.81 225C196.74 219.19 208.26 213.57 219.81 208C248.883 193.867 277.947 179.72 307 165.56C309.62 164.28 311 164.41 312.72 166.91C319.92 177.12 327.39 187.14 334.72 197.25C339.97 204.5 338.24 211.43 330.14 215.37C296.047 231.95 261.923 248.52 227.77 265.08C220.22 268.74 215.89 267.65 210.98 260.93C202.37 249.14 193.78 237.31 184.81 225Z" fill="#F1EDFC"/>
<path d="M116.235 102.58V67.54H139.846V73.648H123.644V81.9974H138.632V88.1054H123.644V96.4719H139.915V102.58H116.235ZM145.599 102.58V76.3H152.666V80.8853H152.939C153.418 79.2542 154.222 78.0223 155.352 77.1896C156.481 76.3456 157.781 75.9235 159.253 75.9235C159.618 75.9235 160.011 75.9464 160.433 75.992C160.855 76.0376 161.226 76.1003 161.545 76.1802V82.6475C161.203 82.5449 160.73 82.4536 160.125 82.3738C159.521 82.2939 158.967 82.254 158.466 82.254C157.393 82.254 156.435 82.4878 155.591 82.9555C154.759 83.4118 154.097 84.0505 153.607 84.8718C153.127 85.693 152.888 86.6397 152.888 87.7119V102.58H145.599ZM165.314 102.58V76.3H172.38V80.8853H172.654C173.133 79.2542 173.937 78.0223 175.066 77.1896C176.195 76.3456 177.496 75.9235 178.967 75.9235C179.332 75.9235 179.725 75.9464 180.147 75.992C180.57 76.0376 180.94 76.1003 181.26 76.1802V82.6475C180.917 82.5449 180.444 82.4536 179.84 82.3738C179.235 82.2939 178.682 82.254 178.18 82.254C177.108 82.254 176.15 82.4878 175.306 82.9555C174.473 83.4118 173.811 84.0505 173.321 84.8718C172.842 85.693 172.602 86.6397 172.602 87.7119V102.58H165.314ZM195.679 103.093C193.021 103.093 190.722 102.529 188.783 101.399C186.856 100.259 185.367 98.6733 184.318 96.643C183.269 94.6013 182.744 92.2345 182.744 89.5426C182.744 86.8279 183.269 84.4554 184.318 82.4251C185.367 80.3834 186.856 78.7979 188.783 77.6687C190.722 76.5281 193.021 75.9578 195.679 75.9578C198.336 75.9578 200.629 76.5281 202.556 77.6687C204.496 78.7979 205.99 80.3834 207.039 82.4251C208.089 84.4554 208.613 86.8279 208.613 89.5426C208.613 92.2345 208.089 94.6013 207.039 96.643C205.99 98.6733 204.496 100.259 202.556 101.399C200.629 102.529 198.336 103.093 195.679 103.093ZM195.713 97.4471C196.922 97.4471 197.931 97.105 198.741 96.4206C199.551 95.7248 200.161 94.7781 200.572 93.5804C200.994 92.3828 201.205 91.0197 201.205 89.4913C201.205 87.9628 200.994 86.5998 200.572 85.4021C200.161 84.2045 199.551 83.2578 198.741 82.562C197.931 81.8662 196.922 81.5183 195.713 81.5183C194.492 81.5183 193.466 81.8662 192.633 82.562C191.812 83.2578 191.19 84.2045 190.768 85.4021C190.357 86.5998 190.152 87.9628 190.152 89.4913C190.152 91.0197 190.357 92.3828 190.768 93.5804C191.19 94.7781 191.812 95.7248 192.633 96.4206C193.466 97.105 194.492 97.4471 195.713 97.4471ZM213.353 102.58V76.3H220.419V80.8853H220.692C221.171 79.2542 221.976 78.0223 223.105 77.1896C224.234 76.3456 225.534 75.9235 227.006 75.9235C227.371 75.9235 227.764 75.9464 228.186 75.992C228.608 76.0376 228.979 76.1003 229.298 76.1802V82.6475C228.956 82.5449 228.483 82.4536 227.878 82.3738C227.274 82.2939 226.721 82.254 226.219 82.254C225.147 82.254 224.188 82.4878 223.344 82.9555C222.512 83.4118 221.85 84.0505 221.36 84.8718C220.881 85.693 220.641 86.6397 220.641 87.7119V102.58H213.353Z" fill="#54328E"/>
</svg>
