<svg width="17" height="13" viewBox="0 0 17 13" fill="none" xmlns="http://www.w3.org/2000/svg">
<path d="M12.9909 1.03864L10.4267 3.57447C9.85593 3.19485 9.18553 2.99274 8.50004 2.99364C7.56688 3.00297 6.67512 3.38022 6.01857 4.04341C5.36202 4.70659 4.99374 5.6021 4.99379 6.5353C4.9929 7.22079 5.195 7.8912 5.57462 8.46197L12.9909 1.03864ZM12.9909 1.03864C13.0569 0.972593 13.1353 0.920204 13.2216 0.884462C13.3079 0.848719 13.4004 0.830322 13.4938 0.830322C13.5872 0.830322 13.6797 0.848719 13.766 0.884462C13.8523 0.920204 13.9307 0.972593 13.9967 1.03864C14.0628 1.10468 14.1151 1.18309 14.1509 1.26938C14.1866 1.35567 14.205 1.44815 14.205 1.54155C14.205 1.63495 14.1866 1.72744 14.1509 1.81373C14.1151 1.90002 14.0628 1.97843 13.9967 2.04447L12.9909 1.03864ZM3.1095 11.026L5.64473 8.53328L5.70363 8.47537L5.65789 8.40659C5.28921 7.85226 5.09292 7.20117 5.09379 6.53543V6.5353C5.09375 5.62844 5.45162 4.75822 6.08963 4.11376C6.72754 3.46941 7.59395 3.10282 8.5006 3.09364C9.16619 3.09285 9.81712 3.28913 10.3713 3.65774L10.4391 3.70283L10.497 3.64557L13.0612 1.10974L13.0616 1.10935C13.1183 1.05259 13.1857 1.00757 13.2599 0.97685C13.334 0.946132 13.4135 0.930322 13.4938 0.930322C13.5741 0.930322 13.6535 0.946132 13.7277 0.97685C13.8019 1.00757 13.8692 1.05259 13.926 1.10935C13.9828 1.16611 14.0278 1.23349 14.0585 1.30764C14.0892 1.3818 14.105 1.46129 14.105 1.54155C14.105 1.62182 14.0892 1.7013 14.0585 1.77546C14.0278 1.84962 13.9828 1.917 13.926 1.97376L11.3903 4.50241L11.3322 4.56032L11.3776 4.6286C11.7463 5.18293 11.9426 5.83402 11.9417 6.49976V6.49989C11.9417 7.41267 11.5791 8.28807 10.9337 8.93351C10.2884 9.57878 9.41328 9.94137 8.50074 9.94155C7.83167 9.93213 7.18054 9.72379 6.63027 9.34307L6.56156 9.29553L6.50256 9.35469L3.97391 11.8904L3.1095 11.026ZM3.1095 11.026C3.10942 11.0261 3.10934 11.0262 3.10926 11.0263M3.1095 11.026L3.10926 11.0263M3.10926 11.0263C2.99478 11.1409 2.93048 11.2962 2.93048 11.4582C2.93048 11.6203 2.99487 11.7758 3.1095 11.8904C3.22413 12.0051 3.3796 12.0695 3.54171 12.0695C3.70377 12.0695 3.8592 12.0051 3.97381 11.8905L3.10926 11.0263ZM10.7604 6.4975L10.7605 6.4975L10.7602 6.49303C10.7377 6.16554 10.6441 5.84688 10.486 5.55922L10.4218 5.44249L10.3277 5.53668L7.49433 8.37001L7.39734 8.46699L7.51935 8.52967C7.86253 8.70597 8.24566 8.79 8.63112 8.77352C9.01659 8.75703 9.39114 8.6406 9.71802 8.43565C10.0449 8.23069 10.3129 7.94426 10.4956 7.60447C10.6784 7.26468 10.7696 6.88321 10.7604 6.4975ZM6.27507 6.50227L6.27497 6.50227L6.27528 6.50675C6.29779 6.83423 6.39137 7.15289 6.54949 7.44056L6.61365 7.55728L6.70783 7.4631L9.54117 4.62976L9.63815 4.53278L9.51615 4.4701C9.17297 4.2938 8.78984 4.20977 8.40438 4.22626C8.01891 4.24274 7.64435 4.35917 7.31748 4.56413C6.9906 4.76908 6.72263 5.05551 6.53988 5.3953C6.35713 5.73509 6.26587 6.11656 6.27507 6.50227ZM1.28199 7.86366L1.28211 7.86358L1.27906 7.85922C0.998511 7.4583 0.835532 6.98701 0.808447 6.49848C0.816672 6.19966 0.888091 5.90594 1.01802 5.63668L1.01835 5.63599C1.16254 5.33129 1.33459 5.04057 1.53233 4.76755C2.02844 4.11992 2.60534 3.53839 3.24898 3.03712L3.24905 3.0372L3.25263 3.03414C4.72286 1.77375 6.56869 1.03509 8.50249 0.93323C9.02843 0.935212 9.55221 1.0008 10.0624 1.12856L10.0624 1.12864L10.0665 1.12948C10.1466 1.14606 10.2226 1.17864 10.2899 1.22528C10.3572 1.27193 10.4144 1.33168 10.458 1.40095C10.5017 1.47022 10.5309 1.54758 10.5439 1.62841C10.5569 1.70924 10.5535 1.79186 10.5339 1.87134C10.5142 1.95081 10.4787 2.0255 10.4295 2.09092C10.3803 2.15635 10.3183 2.21117 10.2474 2.2521C10.1765 2.29302 10.0981 2.31922 10.0168 2.3291C9.93555 2.33899 9.85312 2.33238 9.77447 2.30965L9.77449 2.30957L9.77055 2.3086C9.35491 2.20658 8.9288 2.15332 8.50084 2.14989L8.50084 2.14981L8.49692 2.14994C7.41757 2.18359 6.36309 2.48232 5.42647 3.01979C4.51566 3.52083 3.69001 4.16303 2.98022 4.92251C2.64109 5.27866 2.35627 5.68281 2.13491 6.12196L2.1349 6.12195L2.13409 6.12362C2.07898 6.23819 2.04245 6.36081 2.02589 6.48686L2.02392 6.50184L2.02647 6.51673C2.06984 6.77057 2.16958 7.01145 2.31835 7.22164C2.58644 7.64001 2.90236 8.02572 3.25973 8.37097L3.26 8.37123C3.37799 8.48438 3.44621 8.63977 3.44964 8.80321C3.45307 8.96665 3.39143 9.12476 3.27828 9.24276C3.16513 9.36075 3.00975 9.42897 2.8463 9.4324C2.68299 9.43582 2.52501 9.37429 2.40704 9.26132C1.97725 8.84231 1.59951 8.37304 1.28199 7.86366ZM15.9821 7.36309L15.982 7.36307L15.9805 7.36638C15.8477 7.66915 15.6877 7.95925 15.5025 8.23312C14.9958 8.88232 14.4075 9.4634 13.752 9.96196L13.7519 9.96183L13.7475 9.96563C12.2772 11.226 10.4314 11.9647 8.4976 12.0665C7.97227 12.0646 7.4491 11.9991 6.93946 11.8717C6.7891 11.8278 6.66146 11.7275 6.58314 11.5918C6.50452 11.4556 6.48171 11.2943 6.51948 11.1416C6.55725 10.989 6.65267 10.8569 6.78573 10.773C6.91828 10.6895 7.07792 10.6604 7.23139 10.6916C7.64644 10.7934 8.07191 10.8465 8.49924 10.8499L8.49924 10.85L8.50316 10.8498C9.58251 10.8162 10.637 10.5175 11.5736 9.97999C12.4844 9.47895 13.3101 8.83674 14.0199 8.07726C14.359 7.72111 14.6438 7.31696 14.8652 6.87782L14.8652 6.87782L14.866 6.87615C14.9211 6.76158 14.9576 6.63897 14.9742 6.51291L14.9757 6.5011L14.9745 6.48926C14.9488 6.24897 14.8661 6.0183 14.7332 5.81646C14.5018 5.42538 14.2146 5.07016 13.8806 4.76204C13.7633 4.65215 13.6943 4.50032 13.6886 4.3397C13.6829 4.17902 13.7411 4.02263 13.8503 3.90469C13.9602 3.78737 14.1121 3.71832 14.2727 3.71262C14.4335 3.70692 14.5899 3.76511 14.7079 3.87447L14.7082 3.87471C15.1344 4.26703 15.5005 4.71999 15.7947 5.21901L15.7952 5.21977C16.0291 5.60864 16.1651 6.04846 16.1916 6.50145C16.1834 6.80022 16.112 7.09388 15.9821 7.36309Z" fill="#BCBDBF" stroke="white" stroke-width="0.2"/>
</svg>
