<svg width="15" height="16" viewBox="0 0 15 16" fill="none" xmlns="http://www.w3.org/2000/svg">
<path d="M14.9974 8.69005C14.9955 8.27523 14.9056 7.86553 14.7336 7.48802C14.5617 7.11051 14.3116 6.77377 13.9999 6.50005C13.9994 5.61287 13.8022 4.73684 13.4224 3.93505V3.93505C12.9361 2.9084 12.1684 2.04089 11.2085 1.4334C10.2486 0.825913 9.1359 0.503418 7.99991 0.503418C6.86391 0.503418 5.75126 0.825913 4.79134 1.4334C3.83142 2.04089 3.06368 2.9084 2.57741 3.93505V3.93505C2.19881 4.73725 2.00164 5.61301 1.99991 6.50005C1.99991 6.50005 1.99991 6.50005 1.99991 6.50005L1.83491 6.64255C1.29416 7.23193 0.994141 8.0027 0.994141 8.80255C0.994141 9.60241 1.29416 10.3732 1.83491 10.9626C2.10194 11.2514 2.42545 11.4823 2.7854 11.641C3.14534 11.7997 3.53404 11.8828 3.92741 11.8851H4.24991C4.34861 11.8856 4.44646 11.8667 4.53784 11.8294C4.62921 11.7921 4.71233 11.7371 4.78241 11.6676C4.91564 11.5335 4.99332 11.354 4.99991 11.1651V6.50005C4.99991 6.30114 4.92089 6.11038 4.78024 5.96972C4.63958 5.82907 4.44882 5.75005 4.24991 5.75005H3.93491C3.80927 5.75511 3.68405 5.76763 3.55991 5.78755C3.62545 5.36654 3.75177 4.95727 3.93491 4.57255C4.30004 3.80359 4.8758 3.15396 5.59533 2.6991C6.31486 2.24423 7.14865 2.00278 7.99991 2.00278C8.85116 2.00278 9.68495 2.24423 10.4045 2.6991C11.124 3.15396 11.6998 3.80359 12.0649 4.57255V4.57255C12.248 4.95727 12.3744 5.36654 12.4399 5.78755C12.3158 5.76763 12.1905 5.75511 12.0649 5.75005H11.7499C11.551 5.75005 11.3602 5.82907 11.2196 5.96972C11.0789 6.11038 10.9999 6.30114 10.9999 6.50005V10.8726C10.9993 10.9713 11.0183 11.0691 11.0556 11.1605C11.0929 11.2519 11.1479 11.335 11.2174 11.4051C11.2875 11.4746 11.3706 11.5296 11.462 11.5669C11.5534 11.6042 11.6512 11.6231 11.7499 11.6226H12.0649C12.2109 11.6191 12.3563 11.604 12.4999 11.5776V13.2501C12.4999 13.449 12.4209 13.6397 12.2802 13.7804C12.1396 13.921 11.9488 14.0001 11.7499 14.0001H10.9999C11.0239 13.8765 11.0365 13.7509 11.0374 13.6251C11.0375 13.3756 10.9877 13.1287 10.8912 12.8988C10.7946 12.6688 10.6531 12.4604 10.475 12.2858C10.2969 12.1112 10.0858 11.9739 9.85396 11.8819C9.62213 11.7899 9.37427 11.7451 9.12491 11.7501H7.62491C7.12762 11.7501 6.65071 11.9476 6.29908 12.2992C5.94745 12.6509 5.74991 13.1278 5.74991 13.6251C5.74991 14.1223 5.94745 14.5992 6.29908 14.9509C6.65071 15.3025 7.12762 15.5001 7.62491 15.5001H11.7499C12.3466 15.5001 12.9189 15.263 13.3409 14.841C13.7629 14.4191 13.9999 13.8468 13.9999 13.2501V11.0001C14.0034 10.9651 14.0034 10.93 13.9999 10.8951C14.315 10.6209 14.5673 10.282 14.7394 9.90148C14.9116 9.52093 14.9996 9.10772 14.9974 8.69005V8.69005ZM2.50241 8.83255C2.49833 8.41351 2.65385 8.00862 2.93741 7.70005C3.09312 7.53469 3.28592 7.40873 3.49991 7.33255V10.3326C3.28773 10.2563 3.09547 10.1333 2.93741 9.97255C2.65402 9.66089 2.49867 9.25377 2.50241 8.83255V8.83255ZM7.99991 14.0001H7.62491C7.52545 14.0001 7.43007 13.9605 7.35974 13.8902C7.28941 13.8199 7.24991 13.7245 7.24991 13.6251C7.24991 13.5256 7.28941 13.4302 7.35974 13.3599C7.43007 13.2896 7.52545 13.2501 7.62491 13.2501H9.12491C9.22436 13.2501 9.31974 13.2896 9.39007 13.3599C9.4604 13.4302 9.49991 13.5256 9.49991 13.6251C9.49991 13.7245 9.4604 13.8199 9.39007 13.8902C9.31974 13.9605 9.22436 14.0001 9.12491 14.0001H7.99991ZM12.4999 10.0476V7.32505C12.7906 7.41506 13.0449 7.59576 13.2254 7.84071C13.406 8.08566 13.5035 8.38199 13.5035 8.6863C13.5035 8.99062 13.406 9.28695 13.2254 9.5319C13.0449 9.77685 12.7906 9.95755 12.4999 10.0476V10.0476Z" fill="#222221"/>
</svg>
