<svg width="16" height="17" viewBox="0 0 16 17" fill="none" xmlns="http://www.w3.org/2000/svg">
<path d="M2.00402 11.071L2.004 11.071L2.00468 11.0722C2.37744 11.7725 2.88038 12.3952 3.48652 12.9069C4.39748 13.6826 5.51415 14.1768 6.70077 14.3297C7.88745 14.4826 9.09299 14.2874 10.1708 13.7679C11.2486 13.2484 12.1523 12.4269 12.772 11.4034C13.3917 10.3799 13.7006 9.19839 13.6614 8.00255C13.6221 6.80671 13.2362 5.64804 12.5507 4.6674C11.8652 3.68676 10.9095 2.9264 9.79996 2.47875C8.69037 2.03111 7.47462 1.91546 6.30053 2.14588C5.12644 2.37629 4.04458 2.94284 3.18647 3.77664L3.09811 3.8625H3.22131H4.87506C5.09387 3.8625 5.30371 3.94942 5.45843 4.10414C5.61314 4.25885 5.70006 4.4687 5.70006 4.6875C5.70006 4.9063 5.61314 5.11615 5.45843 5.27086C5.30371 5.42558 5.09387 5.5125 4.87506 5.5125H1.37506C1.15626 5.5125 0.946417 5.42558 0.791699 5.27086C0.636982 5.11615 0.550062 4.9063 0.550062 4.6875V1.1875C0.550062 0.968696 0.636982 0.758854 0.791699 0.604137C0.946417 0.449419 1.15626 0.3625 1.37506 0.3625C1.59387 0.3625 1.80371 0.449419 1.95843 0.604137C2.11314 0.758854 2.20006 0.968696 2.20006 1.1875V2.325V2.4368L2.2834 2.36227C3.40885 1.35563 4.80151 0.696119 6.2934 0.463274C7.78528 0.230429 9.31268 0.434198 10.6914 1.05C12.07 1.66581 13.2411 2.66735 14.0633 3.93382C14.8855 5.20029 15.3237 6.6776 15.3251 8.18755L15.3751 8.1875L15.3251 8.18793C15.3402 9.94823 14.7614 11.6622 13.6821 13.0529C12.6028 14.4436 11.0861 15.4297 9.37716 15.8519C7.66818 16.2742 5.86676 16.1078 4.26402 15.3797C2.66127 14.6517 1.35084 13.4044 0.544509 11.8396L0.500062 11.8625L0.543767 11.8382C0.490348 11.7421 0.456686 11.6363 0.444759 11.5269C0.432832 11.4176 0.442882 11.307 0.474316 11.2016C0.50575 11.0963 0.557936 10.9982 0.627804 10.9133C0.697672 10.8284 0.783813 10.7583 0.881162 10.7071C0.978511 10.656 1.0851 10.6248 1.19467 10.6155C1.30424 10.6061 1.41458 10.6187 1.51919 10.6526C1.62381 10.6865 1.72059 10.741 1.80385 10.8128C1.88711 10.8847 1.95516 10.9724 2.00402 11.071ZM8.32506 7.82875V7.84963L8.33992 7.86431L9.83596 9.34286C9.83597 9.34287 9.83599 9.34289 9.836 9.3429C9.99136 9.49829 10.0786 9.70902 10.0786 9.92875C10.0786 10.1485 9.99135 10.3593 9.83596 10.5146C9.68057 10.67 9.46982 10.7573 9.25006 10.7573C9.03031 10.7573 8.81956 10.67 8.66417 10.5146L6.91431 8.76479C6.91427 8.76475 6.91424 8.76471 6.9142 8.76468C6.76188 8.61105 6.676 8.40374 6.67506 8.1874C6.67506 8.18736 6.67506 8.18733 6.67506 8.18729L6.67506 6.4375C6.67506 6.2187 6.76198 6.00885 6.9167 5.85414C7.07142 5.69942 7.28126 5.6125 7.50006 5.6125C7.71887 5.6125 7.92871 5.69942 8.08343 5.85414C8.23814 6.00885 8.32506 6.2187 8.32506 6.4375V7.82875Z" fill="#888888" stroke="#F5F6F5" stroke-width="0.1"/>
</svg>
