<svg width="20" height="20" viewBox="0 0 20 20" fill="none" xmlns="http://www.w3.org/2000/svg">
<path d="M7.45646 17.7955V15.0515C7.45644 14.3536 8.02542 13.7865 8.73038 13.7818H11.3127C12.021 13.7818 12.5952 14.3503 12.5952 15.0515V15.0515V17.804C12.595 18.3965 13.0728 18.8808 13.6711 18.8947H15.3927C17.1088 18.8947 18.5 17.5175 18.5 15.8185V15.8185V8.0128C18.4908 7.34442 18.1738 6.71679 17.6392 6.3085L11.7516 1.61316C10.7202 0.795612 9.25397 0.795612 8.22253 1.61316L2.36076 6.31702C1.82413 6.72365 1.50661 7.35233 1.5 8.02132V15.8185C1.5 17.5175 2.8912 18.8947 4.60734 18.8947H6.32886C6.94211 18.8947 7.43924 18.4026 7.43924 17.7955V17.7955" stroke="black" stroke-width="1.8" stroke-linecap="round" stroke-linejoin="round"/>
</svg>
