
<svg version="1.1" id="Layer_1" xmlns="http://www.w3.org/2000/svg" xmlns:xlink="http://www.w3.org/1999/xlink" x="0px" y="0px"
	 width="100%" viewBox="0 0 70 54" enable-background="new 0 0 70 54" xml:space="preserve">
<path fill="#FBFDFB" opacity="1.000000" stroke="none" 
	d="
M50.000557,55.000000 
	C33.333740,55.000000 17.167093,55.000000 1.000335,55.000000 
	C1.000223,37.000172 1.000223,19.000343 1.000111,1.000385 
	C24.333132,1.000257 47.666264,1.000257 70.999542,1.000128 
	C70.999695,18.999777 70.999695,36.999554 70.999847,54.999664 
	C64.166908,55.000000 57.333820,55.000000 50.000557,55.000000 
M4.268711,34.049126 
	C4.266171,37.532455 4.491153,41.034626 4.204645,44.494442 
	C3.829759,49.021484 5.422185,50.716774 10.120111,50.439175 
	C18.452454,49.946808 18.829172,52.211327 18.743526,41.818012 
	C18.732592,40.491112 18.742638,39.164051 18.741858,37.837063 
	C18.737391,30.253616 18.734718,30.143507 11.102035,30.320932 
	C8.613317,30.378784 5.106544,28.756891 4.268711,34.049126 
M36.732227,36.694939 
	C37.517677,31.855398 35.556183,30.421782 30.680391,30.696396 
	C22.289452,31.168991 22.271069,30.850273 22.269979,39.068729 
	C22.269670,41.401012 22.353910,43.736767 22.254427,46.064735 
	C22.117552,49.267624 23.493750,50.467514 26.733246,50.387962 
	C37.803776,50.116108 36.654839,51.844212 36.731674,40.641060 
	C36.738529,39.641560 36.732487,38.641964 36.732227,36.694939 
M16.897049,7.278363 
	C15.645198,8.086209 13.359758,8.834550 13.309267,9.711560 
	C12.982020,15.395716 13.141494,21.107891 13.141494,26.961897 
	C15.473637,26.849348 16.782236,26.753788 18.092201,26.728148 
	C27.761091,26.538906 27.440495,28.855015 27.425524,16.873474 
	C27.411446,5.606550 27.937191,7.418694 16.897049,7.278363 
M67.825928,16.997995 
	C65.500877,14.000000 63.788406,15.309608 62.068558,17.715315 
	C58.615665,22.545170 55.074886,27.312193 51.281021,32.500889 
	C49.673454,30.265593 48.509220,28.222038 46.923046,26.588085 
	C45.836182,25.468475 44.162117,24.918898 42.750546,24.114500 
	C42.492039,26.054708 41.411686,28.410063 42.139969,29.851805 
	C43.844776,33.226711 46.456673,36.136082 48.625378,39.286213 
	C50.489170,41.993450 52.152374,41.825958 54.003723,39.247147 
	C58.174664,33.437290 62.485077,27.726580 66.591728,21.872404 
	C67.389038,20.735817 67.518555,19.130777 67.825928,16.997995 
z"/>
<path fill="#13A31C" opacity="1.000000" stroke="none" 
	d="
M4.292739,33.605640 
	C5.106544,28.756891 8.613317,30.378784 11.102035,30.320932 
	C18.734718,30.143507 18.737391,30.253616 18.741858,37.837063 
	C18.742638,39.164051 18.732592,40.491112 18.743526,41.818012 
	C18.829172,52.211327 18.452454,49.946808 10.120111,50.439175 
	C5.422185,50.716774 3.829759,49.021484 4.204645,44.494442 
	C4.491153,41.034626 4.266171,37.532455 4.292739,33.605640 
z"/>
<path fill="#10A119" opacity="1.000000" stroke="none" 
	d="
M36.732330,37.168678 
	C36.732487,38.641964 36.738529,39.641560 36.731674,40.641060 
	C36.654839,51.844212 37.803776,50.116108 26.733246,50.387962 
	C23.493750,50.467514 22.117552,49.267624 22.254427,46.064735 
	C22.353910,43.736767 22.269670,41.401012 22.269979,39.068729 
	C22.271069,30.850273 22.289452,31.168991 30.680391,30.696396 
	C35.556183,30.421782 37.517677,31.855398 36.732330,37.168678 
z"/>
<path fill="#0DA017" opacity="1.000000" stroke="none" 
	d="
M17.343224,7.277469 
	C27.937191,7.418694 27.411446,5.606550 27.425524,16.873474 
	C27.440495,28.855015 27.761091,26.538906 18.092201,26.728148 
	C16.782236,26.753788 15.473637,26.849348 13.141494,26.961897 
	C13.141494,21.107891 12.982020,15.395716 13.309267,9.711560 
	C13.359758,8.834550 15.645198,8.086209 17.343224,7.277469 
z"/>
<path fill="#10A119" opacity="1.000000" stroke="none" 
	d="
M67.891014,17.369907 
	C67.518555,19.130777 67.389038,20.735817 66.591728,21.872404 
	C62.485077,27.726580 58.174664,33.437290 54.003723,39.247147 
	C52.152374,41.825958 50.489170,41.993450 48.625378,39.286213 
	C46.456673,36.136082 43.844776,33.226711 42.139969,29.851805 
	C41.411686,28.410063 42.492039,26.054708 42.750546,24.114500 
	C44.162117,24.918898 45.836182,25.468475 46.923046,26.588085 
	C48.509220,28.222038 49.673454,30.265593 51.281021,32.500889 
	C55.074886,27.312193 58.615665,22.545170 62.068558,17.715315 
	C63.788406,15.309608 65.500877,14.000000 67.891014,17.369907 
z"/>
</svg>