<svg width="14" height="15" viewBox="0 0 14 15" fill="none" xmlns="http://www.w3.org/2000/svg">
<path d="M12.875 10.5601C13.0806 9.94314 13.1881 9.2978 13.1938 8.64755C13.2094 7.88338 13.0238 7.12853 12.6554 6.4588C12.4767 6.15609 12.2352 5.89522 11.9471 5.6938C11.6266 5.48004 11.2486 5.36887 10.8633 5.37505H9.33334C9.29502 5.37633 9.25687 5.36941 9.22144 5.35475C9.18602 5.34009 9.15413 5.31804 9.12792 5.29006C9.07585 5.234 9.04568 5.16109 9.04292 5.08464V5.00672L9.61667 3.71047C9.73357 3.44235 9.79385 3.15297 9.79375 2.86047C9.79326 2.29708 9.56905 1.75694 9.17042 1.35881L9.01459 1.20297C8.87136 1.06102 8.69948 0.951272 8.51044 0.881078C8.3214 0.810884 8.11955 0.781857 7.91839 0.795939C7.71723 0.81002 7.52139 0.866885 7.34397 0.962731C7.16655 1.05858 7.01164 1.1912 6.88959 1.35172L3.83667 5.37505C3.54998 5.05325 3.17221 4.82623 2.75349 4.72411C2.33478 4.62199 1.89491 4.64961 1.49225 4.80329C1.08959 4.95698 0.743186 5.22947 0.498994 5.5846C0.254802 5.93974 0.124369 6.36073 0.125002 6.79172V12.4584C0.125002 13.022 0.348886 13.5625 0.7474 13.961C1.14592 14.3595 1.68642 14.5834 2.25 14.5834C2.74651 14.5824 3.22632 14.404 3.60292 14.0805C3.98327 14.4024 4.46464 14.5804 4.96292 14.5834H9.27667C9.74442 14.588 10.2047 14.4656 10.6083 14.2292C11.1874 13.863 11.6534 13.3431 11.9542 12.7276C12.3219 12.0324 12.6299 11.3073 12.875 10.5601ZM2.25 13.1667C2.06214 13.1667 1.88197 13.0921 1.74914 12.9593C1.6163 12.8264 1.54167 12.6462 1.54167 12.4584V6.79172C1.54167 6.60386 1.6163 6.42369 1.74914 6.29085C1.88197 6.15802 2.06214 6.08339 2.25 6.08339C2.43786 6.08339 2.61803 6.15802 2.75087 6.29085C2.88371 6.42369 2.95834 6.60386 2.95834 6.79172V12.4584C2.95834 12.6462 2.88371 12.8264 2.75087 12.9593C2.61803 13.0921 2.43786 13.1667 2.25 13.1667ZM10.4383 12.4584C10.2923 12.6668 10.107 12.8449 9.89292 12.9826C9.70557 13.0898 9.49246 13.1436 9.27667 13.1384H4.96292C4.8697 13.1389 4.77729 13.1211 4.69099 13.0858C4.60468 13.0506 4.52619 12.9986 4.46 12.933L4.375 12.8338C4.38582 12.7089 4.38582 12.5833 4.375 12.4584V7.02547L7.99459 2.20172L8.15042 2.35755C8.21607 2.42374 8.26801 2.50224 8.30326 2.58854C8.33851 2.67484 8.35637 2.76725 8.35584 2.86047C8.35438 2.95831 8.33268 3.05478 8.29209 3.14381L7.70417 4.48255V4.5463C7.64273 4.71911 7.61158 4.90123 7.61209 5.08464C7.61208 5.31001 7.6567 5.53316 7.74337 5.7412C7.83004 5.94924 7.95706 6.13806 8.11708 6.29676C8.2771 6.45547 8.46696 6.58091 8.67571 6.66587C8.88446 6.75082 9.10797 6.79359 9.33334 6.79172H10.8988C10.9897 6.7911 11.0787 6.81828 11.1538 6.86964C11.3497 7.02143 11.4954 7.22879 11.5717 7.46464C11.7145 7.84237 11.7842 8.2438 11.7771 8.64755C11.7737 9.14413 11.69 9.63688 11.5292 10.1067C11.2793 10.9385 10.912 11.7304 10.4383 12.4584Z" fill="#222221"/>
</svg>
