<svg width="19" height="17" viewBox="0 0 19 17" fill="none" xmlns="http://www.w3.org/2000/svg">
<path d="M6.00003 1.00016C6.08775 1.08417 6.15756 1.18507 6.20526 1.29678C6.25295 1.40849 6.27753 1.5287 6.27753 1.65016C6.27753 1.77163 6.25295 1.89183 6.20526 2.00354C6.15756 2.11525 6.08775 2.21615 6.00003 2.30016L3.70003 4.58016C3.5538 4.70915 3.37305 4.79257 3.18003 4.82016H3.06003C2.987 4.82969 2.91305 4.82969 2.84003 4.82016C2.80016 4.8247 2.7599 4.8247 2.72003 4.82016C2.65579 4.79093 2.59534 4.75399 2.54003 4.71016L2.42003 4.63016L1.24003 3.40016C1.14104 3.31986 1.06003 3.21966 1.00224 3.10606C0.944445 2.99245 0.911163 2.86797 0.904547 2.74069C0.897931 2.6134 0.918129 2.48614 0.963832 2.36715C1.00954 2.24817 1.07973 2.14011 1.16985 2.04999C1.25998 1.95986 1.36804 1.88967 1.48702 1.84397C1.60601 1.79826 1.73327 1.77806 1.86055 1.78468C1.98784 1.7913 2.11232 1.82458 2.22593 1.88237C2.33953 1.94016 2.43973 2.02118 2.52003 2.12016L3.06003 2.67016L4.70003 1.00016C4.78404 0.912437 4.88494 0.842627 4.99665 0.794935C5.10836 0.747243 5.22856 0.722656 5.35003 0.722656C5.47149 0.722656 5.5917 0.747243 5.70341 0.794935C5.81512 0.842627 5.91602 0.912437 6.00003 1.00016ZM4.70003 7.00016L3.06003 8.67016L2.52003 8.12016C2.34528 7.9784 2.12421 7.90642 1.8995 7.9181C1.67479 7.92978 1.46238 8.02429 1.30327 8.1834C1.14416 8.34251 1.04964 8.55493 1.03796 8.77964C1.02628 9.00435 1.09827 9.22542 1.24003 9.40016L2.42003 10.5802L2.54003 10.6602C2.59534 10.704 2.65579 10.7409 2.72003 10.7702H2.84003C2.91305 10.7797 2.987 10.7797 3.06003 10.7702H3.18003C3.37305 10.7426 3.5538 10.6591 3.70003 10.5302L6.00003 8.30016C6.08539 8.2148 6.1531 8.11347 6.19929 8.00194C6.24549 7.89041 6.26927 7.77088 6.26927 7.65016C6.26927 7.52944 6.24549 7.40991 6.19929 7.29838C6.1531 7.18686 6.08539 7.08552 6.00003 7.00016C5.91467 6.9148 5.81333 6.84709 5.70181 6.8009C5.59028 6.7547 5.47074 6.73092 5.35003 6.73092C5.22931 6.73092 5.10978 6.7547 4.99825 6.8009C4.88672 6.84709 4.78539 6.9148 4.70003 7.00016ZM4.70003 13.0002L3.06003 14.6702L2.52003 14.1202C2.43973 14.0212 2.33953 13.9402 2.22593 13.8824C2.11232 13.8246 1.98784 13.7913 1.86055 13.7847C1.73327 13.7781 1.60601 13.7983 1.48702 13.844C1.36804 13.8897 1.25998 13.9599 1.16985 14.05C1.07973 14.1401 1.00954 14.2482 0.963832 14.3672C0.918129 14.4861 0.897931 14.6134 0.904547 14.7407C0.911163 14.868 0.944445 14.9925 1.00224 15.1061C1.06003 15.2197 1.14104 15.3199 1.24003 15.4002L2.42003 16.5802L2.54003 16.6602C2.59534 16.704 2.65579 16.7409 2.72003 16.7702H2.84003C2.91305 16.7797 2.987 16.7797 3.06003 16.7702H3.18003C3.37305 16.7426 3.5538 16.6591 3.70003 16.5302L6.00003 14.3002C6.08539 14.2148 6.1531 14.1135 6.19929 14.0019C6.24549 13.8904 6.26927 13.7709 6.26927 13.6502C6.26927 13.5294 6.24549 13.4099 6.19929 13.2984C6.1531 13.1869 6.08539 13.0855 6.00003 13.0002C5.91467 12.9148 5.81333 12.8471 5.70181 12.8009C5.59028 12.7547 5.47074 12.7309 5.35003 12.7309C5.22931 12.7309 5.10978 12.7547 4.99825 12.8009C4.88672 12.8471 4.78539 12.9148 4.70003 13.0002ZM9.00003 4.00016H17.5C17.7652 4.00016 18.0196 3.8948 18.2071 3.70727C18.3947 3.51973 18.5 3.26538 18.5 3.00016C18.5 2.73494 18.3947 2.48059 18.2071 2.29305C18.0196 2.10552 17.7652 2.00016 17.5 2.00016H9.00003C8.73481 2.00016 8.48046 2.10552 8.29292 2.29305C8.10539 2.48059 8.00003 2.73494 8.00003 3.00016C8.00003 3.26538 8.10539 3.51973 8.29292 3.70727C8.48046 3.8948 8.73481 4.00016 9.00003 4.00016ZM17.5 14.0002H9.00003C8.73481 14.0002 8.48046 14.1055 8.29292 14.2931C8.10539 14.4806 8.00003 14.7349 8.00003 15.0002C8.00003 15.2654 8.10539 15.5197 8.29292 15.7073C8.48046 15.8948 8.73481 16.0002 9.00003 16.0002H17.5C17.7652 16.0002 18.0196 15.8948 18.2071 15.7073C18.3947 15.5197 18.5 15.2654 18.5 15.0002C18.5 14.7349 18.3947 14.4806 18.2071 14.2931C18.0196 14.1055 17.7652 14.0002 17.5 14.0002ZM17.5 8.00016H9.00003C8.73481 8.00016 8.48046 8.10552 8.29292 8.29305C8.10539 8.48059 8.00003 8.73494 8.00003 9.00016C8.00003 9.26538 8.10539 9.51973 8.29292 9.70727C8.48046 9.8948 8.73481 10.0002 9.00003 10.0002H17.5C17.7652 10.0002 18.0196 9.8948 18.2071 9.70727C18.3947 9.51973 18.5 9.26538 18.5 9.00016C18.5 8.73494 18.3947 8.48059 18.2071 8.29305C18.0196 8.10552 17.7652 8.00016 17.5 8.00016Z" fill="#222221"/>
</svg>
