<svg width="9" height="11" viewBox="0 0 9 11" fill="none" xmlns="http://www.w3.org/2000/svg">
<path d="M7.3285 7.32835L4.942 9.71485L4.94182 9.71503C4.82465 9.83199 4.66585 9.89768 4.50028 9.89768C4.33469 9.89768 4.17588 9.83197 4.0587 9.71498C4.05865 9.71494 4.05861 9.71489 4.05856 9.71485L1.6715 7.32835C1.11211 6.76893 0.73117 6.0562 0.576846 5.28028C0.422522 4.50436 0.501747 3.70011 0.804503 2.96922C1.10726 2.23833 1.61995 1.61362 2.27774 1.17411C2.93553 0.734591 3.70888 0.5 4.5 0.5C5.29112 0.5 6.06447 0.734591 6.72226 1.17411C7.38005 1.61362 7.89274 2.23833 8.1955 2.96922C8.49825 3.70011 8.57748 4.50436 8.42315 5.28028C8.26883 6.0562 7.88789 6.76892 7.32851 7.32834C7.32851 7.32834 7.3285 7.32835 7.3285 7.32835Z" fill="black" stroke="#54328E" stroke-linecap="round" stroke-linejoin="round"/>
<path d="M4.5 6.1875C5.43198 6.1875 6.1875 5.43198 6.1875 4.5C6.1875 3.56802 5.43198 2.8125 4.5 2.8125C3.56802 2.8125 2.8125 3.56802 2.8125 4.5C2.8125 5.43198 3.56802 6.1875 4.5 6.1875Z" fill="white" stroke="#54328E" stroke-linecap="round" stroke-linejoin="round"/>
</svg>
