<svg width="15" height="16" viewBox="0 0 15 16" fill="none" xmlns="http://www.w3.org/2000/svg">
<path d="M8.66683 14.6667C8.66683 14.8877 8.57903 15.0996 8.42275 15.2559C8.26647 15.4122 8.05451 15.5 7.8335 15.5H2.8335C2.17045 15.5 1.53457 15.2366 1.06573 14.7678C0.596888 14.2989 0.333496 13.663 0.333496 13V3C0.333496 2.33696 0.596888 1.70107 1.06573 1.23223C1.53457 0.763392 2.17045 0.5 2.8335 0.5H7.8335C8.05451 0.5 8.26647 0.587797 8.42275 0.744078C8.57903 0.900358 8.66683 1.11232 8.66683 1.33333C8.66683 1.55435 8.57903 1.76631 8.42275 1.92259C8.26647 2.07887 8.05451 2.16667 7.8335 2.16667H2.8335C2.61248 2.16667 2.40052 2.25446 2.24424 2.41074C2.08796 2.56702 2.00016 2.77899 2.00016 3V13C2.00016 13.221 2.08796 13.433 2.24424 13.5893C2.40052 13.7455 2.61248 13.8333 2.8335 13.8333H7.8335C8.05451 13.8333 8.26647 13.9211 8.42275 14.0774C8.57903 14.2337 8.66683 14.4457 8.66683 14.6667ZM14.1668 7.5L10.8335 4.16667C10.7694 4.09451 10.6912 4.03623 10.6037 3.99539C10.5163 3.95455 10.4214 3.93202 10.3249 3.92918C10.2284 3.92634 10.1323 3.94325 10.0426 3.97887C9.95291 4.0145 9.87142 4.06808 9.80317 4.13634C9.73491 4.20459 9.68133 4.28608 9.6457 4.37579C9.61008 4.46551 9.59317 4.56156 9.59601 4.65805C9.59885 4.75453 9.62138 4.84942 9.66222 4.93689C9.70306 5.02435 9.76134 5.10254 9.8335 5.16667L11.8335 7.16667H5.3335C5.11248 7.16667 4.90052 7.25446 4.74424 7.41074C4.58796 7.56702 4.50016 7.77899 4.50016 8C4.50016 8.22101 4.58796 8.43297 4.74424 8.58926C4.90052 8.74554 5.11248 8.83333 5.3335 8.83333H11.8335L9.8335 10.8333C9.71349 10.9684 9.64962 11.1441 9.65493 11.3247C9.66025 11.5053 9.73435 11.677 9.86209 11.8047C9.98983 11.9325 10.1615 12.0066 10.3421 12.0119C10.5227 12.0172 10.6985 11.9533 10.8335 11.8333L14.1668 8.5C14.2991 8.36723 14.3734 8.18744 14.3734 8C14.3734 7.81256 14.2991 7.63277 14.1668 7.5Z" fill="#54328E"/>
</svg>
