<svg width="12" height="14" viewBox="0 0 12 14" fill="none" xmlns="http://www.w3.org/2000/svg">
<path d="M9.51479 9.89801L6.67108 12.7417C6.41974 12.9928 6.079 13.1338 5.72373 13.1338C5.36846 13.1338 5.02773 12.9928 4.77639 12.7417L1.932 9.89801C1.18219 9.14815 0.67156 8.19279 0.4647 7.15273C0.25784 6.11267 0.364036 5.03463 0.769858 4.05492C1.17568 3.07521 1.8629 2.23785 2.74462 1.64871C3.62635 1.05957 4.66296 0.745117 5.7234 0.745117C6.78383 0.745117 7.82045 1.05957 8.70217 1.64871C9.58389 2.23785 10.2711 3.07521 10.6769 4.05492C11.0828 5.03463 11.189 6.11267 10.9821 7.15273C10.7752 8.19279 10.2646 9.14815 9.51479 9.89801Z" fill="#54328E"/>
<path d="M5.72328 8.11698C6.83373 8.11698 7.73392 7.21678 7.73392 6.10634C7.73392 4.9959 6.83373 4.0957 5.72328 4.0957C4.61284 4.0957 3.71265 4.9959 3.71265 6.10634C3.71265 7.21678 4.61284 8.11698 5.72328 8.11698Z" fill="white"/>
</svg>
