<svg width="18" height="18" viewBox="0 0 18 18" fill="none" xmlns="http://www.w3.org/2000/svg">
<path d="M3 0.1H5C5.76913 0.1 6.50675 0.405535 7.05061 0.94939C7.59447 1.49325 7.9 2.23087 7.9 3V5C7.9 5.76913 7.59447 6.50675 7.05061 7.05061C6.50675 7.59447 5.76913 7.9 5 7.9H3C2.23087 7.9 1.49325 7.59447 0.94939 7.05061C0.405535 6.50675 0.1 5.76913 0.1 5V3C0.1 2.23087 0.405535 1.49325 0.94939 0.94939C1.49325 0.405535 2.23087 0.1 3 0.1ZM5.77782 5.77782C5.98411 5.57153 6.1 5.29174 6.1 5V3C6.1 2.70826 5.98411 2.42847 5.77782 2.22218C5.57153 2.01589 5.29174 1.9 5 1.9H3C2.70826 1.9 2.42847 2.01589 2.22218 2.22218C2.01589 2.42847 1.9 2.70826 1.9 3V5C1.9 5.29174 2.01589 5.57153 2.22218 5.77782C2.42847 5.98411 2.70826 6.1 3 6.1H5C5.29174 6.1 5.57153 5.98411 5.77782 5.77782ZM3 10.1H5C5.76913 10.1 6.50675 10.4055 7.05061 10.9494C7.59447 11.4932 7.9 12.2309 7.9 13V15C7.9 15.7691 7.59447 16.5068 7.05061 17.0506C6.50675 17.5945 5.76913 17.9 5 17.9H3C2.23087 17.9 1.49325 17.5945 0.94939 17.0506C0.405535 16.5068 0.1 15.7691 0.1 15V13C0.1 12.2309 0.405535 11.4932 0.94939 10.9494C1.49325 10.4055 2.23087 10.1 3 10.1ZM5.77782 15.7778C5.98411 15.5715 6.1 15.2917 6.1 15V13C6.1 12.7083 5.98411 12.4285 5.77782 12.2222C5.57153 12.0159 5.29174 11.9 5 11.9H3C2.70826 11.9 2.42847 12.0159 2.22218 12.2222C2.01589 12.4285 1.9 12.7083 1.9 13V15C1.9 15.2917 2.01589 15.5715 2.22218 15.7778C2.42847 15.9841 2.70826 16.1 3 16.1H5C5.29174 16.1 5.57153 15.9841 5.77782 15.7778ZM13 0.1H15C15.7691 0.1 16.5068 0.405535 17.0506 0.94939C17.5945 1.49325 17.9 2.23087 17.9 3V5C17.9 5.76913 17.5945 6.50675 17.0506 7.05061C16.5068 7.59447 15.7691 7.9 15 7.9H13C12.2309 7.9 11.4932 7.59447 10.9494 7.05061C10.4055 6.50675 10.1 5.76913 10.1 5V3C10.1 2.23087 10.4055 1.49325 10.9494 0.94939C11.4932 0.405535 12.2309 0.1 13 0.1ZM15.7778 5.77782C15.9841 5.57153 16.1 5.29174 16.1 5V3C16.1 2.70826 15.9841 2.42847 15.7778 2.22218C15.5715 2.01589 15.2917 1.9 15 1.9H13C12.7083 1.9 12.4285 2.01589 12.2222 2.22218C12.0159 2.42847 11.9 2.70826 11.9 3V5C11.9 5.29174 12.0159 5.57153 12.2222 5.77782C12.4285 5.98411 12.7083 6.1 13 6.1H15C15.2917 6.1 15.5715 5.98411 15.7778 5.77782ZM13 10.1H15C15.7691 10.1 16.5068 10.4055 17.0506 10.9494C17.5945 11.4932 17.9 12.2309 17.9 13V15C17.9 15.7691 17.5945 16.5068 17.0506 17.0506C16.5068 17.5945 15.7691 17.9 15 17.9H13C12.2309 17.9 11.4932 17.5945 10.9494 17.0506C10.4055 16.5068 10.1 15.7691 10.1 15V13C10.1 12.2309 10.4055 11.4932 10.9494 10.9494C11.4932 10.4055 12.2309 10.1 13 10.1ZM15.7778 15.7778C15.9841 15.5715 16.1 15.2917 16.1 15V13C16.1 12.7083 15.9841 12.4285 15.7778 12.2222C15.5715 12.0159 15.2917 11.9 15 11.9H13C12.7083 11.9 12.4285 12.0159 12.2222 12.2222C12.0159 12.4285 11.9 12.7083 11.9 13V15C11.9 15.2917 12.0159 15.5715 12.2222 15.7778C12.4285 15.9841 12.7083 16.1 13 16.1H15C15.2917 16.1 15.5715 15.9841 15.7778 15.7778Z" fill="#222221" stroke="white" stroke-width="0.2"/>
</svg>
