<svg width="145" height="143" viewBox="0 0 145 143" fill="none" xmlns="http://www.w3.org/2000/svg">
<path d="M72.8922 103.593C69.3237 103.593 65.8353 104.748 62.8683 106.913C59.9012 109.079 57.5886 112.156 56.223 115.756C54.8574 119.357 54.5001 123.318 55.1963 127.14C55.8925 130.963 57.6109 134.473 60.1342 137.229C62.6575 139.985 65.8723 141.861 69.3722 142.622C72.8722 143.382 76.4999 142.992 79.7968 141.5C83.0936 140.009 85.9115 137.484 87.894 134.243C89.8765 131.003 90.9347 127.194 90.9347 123.296C90.9347 118.071 89.0338 113.059 85.6502 109.364C82.2665 105.669 77.6774 103.593 72.8922 103.593ZM72.8922 133.148C71.1079 133.148 69.3638 132.571 67.8802 131.488C66.3967 130.405 65.2404 128.867 64.5576 127.067C63.8748 125.266 63.6961 123.286 64.0442 121.374C64.3923 119.463 65.2515 117.708 66.5132 116.33C67.7748 114.952 69.3822 114.014 71.1322 113.634C72.8822 113.254 74.696 113.449 76.3445 114.195C77.9929 114.94 79.4018 116.203 80.3931 117.823C81.3844 119.443 81.9134 121.348 81.9134 123.296C81.9134 125.909 80.963 128.415 79.2712 130.263C77.5794 132.11 75.2848 133.148 72.8922 133.148Z" fill="#D5D5D5"/>
<path d="M109.924 90.9324C110.273 90.4059 110.522 89.8094 110.659 89.1772C110.795 88.5449 110.816 87.8895 110.719 87.2485C110.623 86.6076 110.411 85.9937 110.097 85.4424C109.782 84.8911 109.371 84.4132 108.887 84.0361C102.131 78.738 94.4569 75.0002 86.3335 73.0513L103.79 92.1146C104.755 92.8168 105.931 93.0858 107.074 92.8656C108.216 92.6455 109.237 91.9531 109.924 90.9324V90.9324Z" fill="#D5D5D5"/>
<path d="M73.1173 36.1069C66.8134 36.1254 60.5271 36.835 54.353 38.2251L62.2015 46.7962C65.8201 46.2634 69.4661 45.9837 73.1173 45.9588C90.1667 45.9662 106.816 51.5979 120.885 62.1158C121.871 62.7331 123.035 62.9207 124.143 62.6412C125.251 62.3616 126.221 61.6355 126.859 60.6082C127.498 59.5809 127.758 58.3281 127.587 57.1006C127.416 55.8731 126.826 54.7614 125.937 53.988C110.381 42.354 91.9711 36.1215 73.1173 36.1069V36.1069Z" fill="#D5D5D5"/>
<path d="M143.033 23.6939C126.285 11.6089 107.15 4.03892 87.2003 1.60682C67.2509 -0.825279 47.0578 1.94997 28.2822 9.70424L35.409 17.4379C52.3951 11.1128 70.4839 9.12922 88.2824 11.64C106.081 14.1508 123.114 21.0889 138.071 31.9202C139.07 32.613 140.278 32.8495 141.435 32.5785C142.592 32.3076 143.605 31.5509 144.256 30.4717C144.907 29.3925 145.144 28.0772 144.915 26.8093C144.686 25.5414 144.01 24.4225 143.033 23.6939V23.6939Z" fill="#D5D5D5"/>
<path d="M0 6.69926L10.9608 18.6693C8.16425 20.3441 5.41277 22.1174 2.70638 24.0878C2.21474 24.45 1.79324 24.9145 1.46596 25.4546C1.13868 25.9948 0.912021 26.6 0.798931 27.2358C0.570536 28.5199 0.818585 29.8505 1.48851 30.9348C2.15844 32.0192 3.19536 32.7685 4.37117 33.0179C5.54699 33.2673 6.76537 32.9964 7.7583 32.2648C10.9157 29.9496 14.2536 27.6344 17.5915 25.9104L35.0477 44.9737C29.7109 47.5314 24.6064 50.632 19.8017 54.2344C19.0921 55.062 18.6656 56.1315 18.5942 57.2626C18.5228 58.3937 18.8109 59.517 19.4098 60.4431C20.0087 61.3691 20.8818 62.0412 21.8817 62.346C22.8817 62.6508 23.9473 62.5695 24.8987 62.1159C30.2067 58.1385 35.9117 54.8333 41.9038 52.2641L60.6681 72.7559C52.0271 74.7458 43.8855 78.7628 36.8068 84.5289C35.9251 85.3313 35.3567 86.4706 35.2173 87.7146C35.0779 88.9587 35.378 90.214 36.0564 91.2249C36.7349 92.2359 37.7407 92.9263 38.869 93.1557C39.9973 93.3851 41.1632 93.1362 42.1294 92.4596C49.8236 86.3564 58.9039 82.6761 68.3813 81.8196L117.096 135.02L123.456 128.074L6.17957 0L0 6.69926Z" fill="#D5D5D5"/>
</svg>
