<svg width="17" height="17" viewBox="0 0 17 17" fill="none" xmlns="http://www.w3.org/2000/svg">
<path d="M8.50004 0.583496C6.93428 0.583496 5.40367 1.0478 4.10178 1.9177C2.79989 2.78759 1.78519 4.024 1.186 5.47059C0.586804 6.91717 0.430028 8.50894 0.735494 10.0446C1.04096 11.5803 1.79495 12.9909 2.90212 14.0981C4.00928 15.2053 5.4199 15.9592 6.95558 16.2647C8.49126 16.5702 10.083 16.4134 11.5296 15.8142C12.9762 15.215 14.2126 14.2003 15.0825 12.8984C15.9524 11.5965 16.4167 10.0659 16.4167 8.50016C16.4167 7.46053 16.2119 6.43108 15.8141 5.47059C15.4162 4.51009 14.8331 3.63736 14.098 2.90223C13.3628 2.1671 12.4901 1.58397 11.5296 1.18612C10.5691 0.788267 9.53968 0.583496 8.50004 0.583496ZM8.50004 14.8335C7.24743 14.8335 6.02294 14.4621 4.98143 13.7661C3.93992 13.0702 3.12816 12.0811 2.64881 10.9238C2.16945 9.76656 2.04403 8.49314 2.2884 7.26459C2.53278 6.03604 3.13597 4.90755 4.0217 4.02182C4.90743 3.13609 6.03593 2.5329 7.26447 2.28852C8.49302 2.04415 9.76644 2.16957 10.9237 2.64893C12.081 3.12828 13.0701 3.94004 13.766 4.98155C14.4619 6.02306 14.8334 7.24755 14.8334 8.50016C14.8334 10.1799 14.1661 11.7908 12.9784 12.9785C11.7907 14.1662 10.1797 14.8335 8.50004 14.8335ZM10.875 7.281L9.61629 8.50016L10.875 9.71933C11.0283 9.8726 11.1144 10.0805 11.1144 10.2972C11.1144 10.514 11.0283 10.7219 10.875 10.8752C10.7218 11.0284 10.5139 11.1145 10.2971 11.1145C10.0804 11.1145 9.87248 11.0284 9.71921 10.8752L8.50004 9.61641L7.28088 10.8752C7.1276 11.0284 6.91972 11.1145 6.70296 11.1145C6.4862 11.1145 6.27832 11.0284 6.12504 10.8752C5.97177 10.7219 5.88566 10.514 5.88566 10.2972C5.88566 10.0805 5.97177 9.8726 6.12504 9.71933L7.38379 8.50016L6.12504 7.281C5.97177 7.12772 5.88566 6.91984 5.88566 6.70308C5.88566 6.48632 5.97177 6.27844 6.12504 6.12516C6.27832 5.97189 6.4862 5.88578 6.70296 5.88578C6.91972 5.88578 7.1276 5.97189 7.28088 6.12516L8.50004 7.38391L9.71921 6.12516C9.87248 5.97189 10.0804 5.88578 10.2971 5.88578C10.5139 5.88578 10.7218 5.97189 10.875 6.12516C11.0283 6.27844 11.1144 6.48632 11.1144 6.70308C11.1144 6.91984 11.0283 7.12772 10.875 7.281Z" fill="#FE3A30"/>
</svg>
