<svg width="28" height="24" viewBox="0 0 28 24" fill="none" xmlns="http://www.w3.org/2000/svg">
<path d="M11.5 3.6601C11.5 3.13059 11.7423 2.62277 12.1736 2.24834C12.605 1.87392 13.19 1.66357 13.8 1.66357C14.41 1.66357 14.995 1.87392 15.4263 2.24834C15.8577 2.62277 16.1 3.13059 16.1 3.6601C17.4206 4.20219 18.5465 5.04602 19.3568 6.10116C20.1672 7.1563 20.6315 8.38296 20.7 9.64969V12.6445C20.7865 13.2651 21.0397 13.8594 21.4392 14.3796C21.8387 14.8997 22.3733 15.3312 23 15.6393H4.59998C5.22665 15.3312 5.76126 14.8997 6.16074 14.3796C6.56023 13.8594 6.81343 13.2651 6.89998 12.6445V9.64969C6.96847 8.38296 7.43277 7.1563 8.24312 6.10116C9.05346 5.04602 10.1793 4.20219 11.5 3.6601" stroke="#54328E" stroke-width="1.5" stroke-linecap="round" stroke-linejoin="round"/>
<path d="M10.35 15.6396V16.6379C10.35 17.4322 10.7135 18.1939 11.3605 18.7555C12.0075 19.3172 12.885 19.6327 13.8 19.6327C14.715 19.6327 15.5925 19.3172 16.2395 18.7555C16.8865 18.1939 17.25 17.4322 17.25 16.6379V15.6396" stroke="#54328E" stroke-width="1.5" stroke-linecap="round" stroke-linejoin="round"/>
</svg>
