<svg viewBox="0 0 500 500" xmlns="http://www.w3.org/2000/svg">
    <path d="M418.24 240.29c93 53.7 93 140.78 0 194.48s-243.83 53.7-336.85 0-93-140.78 0-194.48 243.83-53.7 336.85 0z" fill="#f5f5f5"/>
    <path d="M421.52 361.94a1.31 1.31 0 0 0-.16-.26 1.94 1.94 0 0 0-.13-.17 1.24 1.24 0 0 0-.16-.19l-.18-.17a4.11 4.11 0 0 0-.64-.46L197.57 232.15a8 8 0 0 0-7.18 0L74.51 298.87c-.16.09-.3.18-.43.27l-.15.11a2.76 2.76 0 0 0-.6.67 1 1 0 0 0-.1.18 1.06 1.06 0 0 0-.11.28 1.67 1.67 0 0 0-.05.22 1.44 1.44 0 0 0 0 .36 2 2 0 0 0 0 .25 2.79 2.79 0 0 0 .07.28 2.11 2.11 0 0 0 .11.27 3.14 3.14 0 0 0 1.26 1.24l222.7 128.56a6.58 6.58 0 0 0 2.14.73 9.57 9.57 0 0 0 1.45.12 9.44 9.44 0 0 0 1.44-.11 3.1 3.1 0 0 0 .47-.09 6.58 6.58 0 0 0 1.3-.44c.14-.06.26-.13.38-.21l115.87-66.72c1.36-.78 1.74-1.9 1.26-2.9zM442.33 319.15c-19.34 11.17-50.7 11.17-70 0s-19.34-29.27 0-40.44 50.7-11.17 70 0 19.35 29.29 0 40.44z" fill="#e0e0e0"/>
    <path d="M411.86 347.2a1.31 1.31 0 0 0-.16-.26 2 2 0 0 0-.13-.17 1.24 1.24 0 0 0-.16-.19l-.18-.17a4.11 4.11 0 0 0-.64-.46L194 220.9a8 8 0 0 0-7.18 0L80.58 282.21c-.16.09-.3.18-.43.27l-.15.11a2.76 2.76 0 0 0-.6.67 1 1 0 0 0-.1.18 1.06 1.06 0 0 0-.11.28 1.66 1.66 0 0 0-.05.22 1.45 1.45 0 0 0 0 .36 2 2 0 0 0 0 .25 2.78 2.78 0 0 0 .07.28 2.12 2.12 0 0 0 .11.27 3.14 3.14 0 0 0 1.28 1.25l216.61 125.08a6.58 6.58 0 0 0 2.14.73 9.55 9.55 0 0 0 1.45.12 9.43 9.43 0 0 0 1.44-.11 3.11 3.11 0 0 0 .47-.09 6.57 6.57 0 0 0 1.3-.44c.14-.06.26-.13.38-.21l106.21-61.32c1.4-.79 1.78-1.91 1.26-2.91zm-23.33-4.44-6.8 3.92-90.49 52.21a6.79 6.79 0 0 1-.73.36 6.14 6.14 0 0 1-4.66 0 6.93 6.93 0 0 1-.74-.36L113.32 299.7l-8.32-4.79a3.24 3.24 0 0 1-.78-.61c-.86-.94-.59-2.15.78-2.95l97.24-56.14a6.19 6.19 0 0 1 3.78-1 3.82 3.82 0 0 1 .92.25 3.34 3.34 0 0 1 .48.23L388.53 339.2a2.06 2.06 0 0 1 0 3.56z" fill="#455a64"/>
    <path d="M80.16 282.49a8 8 0 0 0-3.16 5.95v4.74a7.92 7.92 0 0 0 3.59 6.23l216.59 125.06a6.78 6.78 0 0 0 2.64.8 8.61 8.61 0 0 0 1 .06v-13.05a9.82 9.82 0 0 1-1.45-.12 6.53 6.53 0 0 1-2.14-.73L80.58 286.35c-1.83-1.05-1.98-2.72-.42-3.86z" fill="#37474f"/>
    <path d="M354.49 372.67a14.42 14.42 0 0 0-12.82 0 5.15 5.15 0 0 0-1.92 1.75c-1.15 2 1 3.5 1.92 4.06a14.42 14.42 0 0 0 12.82 0 5.32 5.32 0 0 0 1.92-1.75c1.15-2-.97-3.5-1.92-4.06z" fill="#27debf"/>
    <path d="M142.37 257.18a1.07 1.07 0 0 0 0-2 3.88 3.88 0 0 0-3.51 0 1.07 1.07 0 0 0 0 2 3.88 3.88 0 0 0 3.51 0zM136.86 266.78a1 1 0 0 0 0-1.8 3.44 3.44 0 0 0-3.11 0 1 1 0 0 0 0 1.8 3.44 3.44 0 0 0 3.11 0zM142.13 263.81l17.44-10.07c1-.55 1-1.42.11-1.94a3.71 3.71 0 0 0-3.35.06l-17.44 10.07c-1 .55-1 1.42-.11 1.94a3.71 3.71 0 0 0 3.35-.06zM411.07 346.29c1.49 1.16 1.33 2.79-.47 3.82l-106.22 61.32a7.32 7.32 0 0 1-3.59.85v13.05a7.28 7.28 0 0 0 3.58-.87l106.21-61.3a7.93 7.93 0 0 0 3.59-6.22v-4.76a8.05 8.05 0 0 0-3.1-5.89z" fill="#263238"/>
    <path d="M131.24 319.27a4 4 0 0 1 1.86 3.08 1.15 1.15 0 0 1-.51 1.08l-1.3.76a1.36 1.36 0 0 1-1.34-.15L105.8 310.1a4 4 0 0 1-1.86-3.08 1.18 1.18 0 0 1 .47-1.06c.23-.14 1.11-.65 1.34-.78a1.36 1.36 0 0 1 1.34.15z" fill="#455a64"/>
    <path d="m129.94 320-24.15-13.94c-1-.59-1.86-.17-1.86.94a4 4 0 0 0 1.86 3.08L129.94 324c1 .59 1.86.17 1.86-.94a4 4 0 0 0-1.86-3.06z" fill="#263238"/>
    <path d="M98.91 300.6a4 4 0 0 1 1.86 3.08 1.15 1.15 0 0 1-.51 1.08l-1.3.76a1.36 1.36 0 0 1-1.34-.15l-11.39-6.57a4 4 0 0 1-1.86-3.08 1.18 1.18 0 0 1 .47-1.06c.23-.14 1.11-.65 1.34-.78a1.36 1.36 0 0 1 1.34.15z" fill="#455a64"/>
    <path d="m97.62 301.35-11.39-6.57c-1-.59-1.86-.17-1.86.94a4 4 0 0 0 1.86 3.08l11.39 6.57c1 .59 1.86.17 1.86-.94a4 4 0 0 0-1.86-3.08z" fill="#263238"/>
    <path d="m388.53 342.71-6.8 3.92-90.49 52.21a6.77 6.77 0 0 1-.73.36 6.14 6.14 0 0 1-4.66 0 6.91 6.91 0 0 1-.74-.36l-171.79-99.19-8.32-4.8a3.24 3.24 0 0 1-.78-.61c-.86-.94-.59-2.15.78-2.95l97.24-56.14a6.19 6.19 0 0 1 3.78-1 3.82 3.82 0 0 1 .92.25 3.34 3.34 0 0 1 .48.23l181.11 104.52a2.06 2.06 0 0 1 0 3.56z" fill="#ba00ff" opacity=".05"/>
    <path d="m388.53 342.71-6.8 3.92-90.49 52.21a6.77 6.77 0 0 1-.73.36 6.14 6.14 0 0 1-4.66 0 6.91 6.91 0 0 1-.74-.36l-171.79-99.19-8.32-4.8a3.24 3.24 0 0 1-.78-.61c-.86-.94-.59-2.15.78-2.95l97.24-56.14a6.19 6.19 0 0 1 3.78-1 3.82 3.82 0 0 1 .92.25 3.34 3.34 0 0 1 .48.23l181.11 104.52a2.06 2.06 0 0 1 0 3.56z" fill="#fff" opacity=".8"/>

    <path d="M266 378.05v.87a4.84 4.84 0 0 0 2.19 3.8l17.16 9.9a4.84 4.84 0 0 0 4.38 0l84.57-48.86a4.84 4.84 0 0 0 2.19-3.8v-.87a4.84 4.84 0 0 0-2.19-3.8l-17.16-9.9a4.84 4.84 0 0 0-4.38 0l-84.57 48.86a4.84 4.84 0 0 0-2.19 3.8z" fill="#8b60c4"/>
    <path d="M374.55 335.5c.91.7.81 1.7-.29 2.34l-84.58 48.86a4.51 4.51 0 0 1-2.19.53v5.92a4.46 4.46 0 0 0 2.2-.52l84.56-48.85a4.84 4.84 0 0 0 2.19-3.8v-.87a4.91 4.91 0 0 0-1.89-3.61z" opacity=".15"/>
    <path d="M267.82 374.49A4.87 4.87 0 0 0 266 378v.88a4.85 4.85 0 0 0 2.2 3.79l17.15 9.9a4.38 4.38 0 0 0 2.19.52v-5.92a4.58 4.58 0 0 1-2.19-.52l-17.16-9.9c-1.13-.58-1.19-1.56-.37-2.26z" opacity=".3"/>
    <path d="M293.21 368.25a.85.85 0 0 1 .44-.12 1.56 1.56 0 0 1 .39 0l9 2.52.2.07a.14.14 0 0 1 0 .27l-1.34.77a.79.79 0 0 1-.39.12.87.87 0 0 1-.29 0l-1.18-.34-2.82 1.63.58.68a.22.22 0 0 1 .06.16c0 .07-.07.15-.21.23l-1.34.77a.44.44 0 0 1-.23.06.45.45 0 0 1-.23-.06.43.43 0 0 1-.12-.12l-4.37-5.2a.36.36 0 0 1-.08-.22c0-.09.06-.17.21-.25zm2.92 3.67 1.72-1-3.41-1zm3.87-7.59a6.56 6.56 0 0 1 1.56-.65 7.24 7.24 0 0 1 1.66-.25 6.72 6.72 0 0 1 1.63.14 5.82 5.82 0 0 1 1.47.53l.42.23.36.21.35.2.38.23a3 3 0 0 1 .92.85 1.46 1.46 0 0 1 .26.93 1.73 1.73 0 0 1-.42.94 3.89 3.89 0 0 1-1.11.89l-2.87 1.65a.64.64 0 0 1-.57 0l-6.86-4a.17.17 0 0 1 0-.33zm4.31.88a2.62 2.62 0 0 0-2.66.13l-1.08.62 4 2.33 1.13-.66q1.34-.77.17-1.51l-.41-.25-.38-.22-.38-.22zm3.36-5.31a6.56 6.56 0 0 1 1.56-.65 7.25 7.25 0 0 1 1.66-.25 6.72 6.72 0 0 1 1.63.14 5.82 5.82 0 0 1 1.47.53l.42.23.35.21.35.2.38.23a3 3 0 0 1 .92.85 1.46 1.46 0 0 1 .26.93 1.72 1.72 0 0 1-.42.94 3.9 3.9 0 0 1-1.11.89l-2.87 1.65a.64.64 0 0 1-.57 0l-6.86-4a.17.17 0 0 1 0-.33zm4.31.88a2.62 2.62 0 0 0-2.66.13l-1.08.62 4 2.33 1.13-.66q1.34-.77.17-1.51l-.41-.25-.38-.22-.38-.22zm7.72-7.78a.63.63 0 0 1 .57 0l1.13.65a.18.18 0 0 1 0 .33l-1.87 1.02 5.44 3.14a.18.18 0 0 1 0 .33l-1.39.8a.63.63 0 0 1-.57 0l-5.44-3.14-1.87 1.08a.64.64 0 0 1-.57 0l-1.13-.65a.18.18 0 0 1 0-.33zm3.64 1.06a3 3 0 0 1-.86-.8 1.39 1.39 0 0 1-.27-.9 1.73 1.73 0 0 1 .4-.94 4 4 0 0 1 1.16-.93 6.45 6.45 0 0 1 1.61-.66 7.11 7.11 0 0 1 1.64-.24 6.38 6.38 0 0 1 1.56.15 5.77 5.77 0 0 1 1.38.5l1 .54.91.55a3 3 0 0 1 .86.8 1.42 1.42 0 0 1 .27.9 1.68 1.68 0 0 1-.41.95 4.06 4.06 0 0 1-1.16.92 6.57 6.57 0 0 1-1.61.67 6.85 6.85 0 0 1-1.63.23 6.41 6.41 0 0 1-1.57-.16 5.73 5.73 0 0 1-1.38-.5l-1-.53zm6.49-1.63-.4-.26-.47-.28-.48-.27-.43-.22a2.94 2.94 0 0 0-.6-.22 2.64 2.64 0 0 0-.64-.08 2.73 2.73 0 0 0-.67.09 2.57 2.57 0 0 0-.67.28 1.56 1.56 0 0 0-.48.39.63.63 0 0 0-.15.39.62.62 0 0 0 .13.37 1.5 1.5 0 0 0 .38.35l.38.25.47.28.48.27.45.23a2.92 2.92 0 0 0 1.25.3 2.52 2.52 0 0 0 1.33-.37q.66-.38.63-.77a1 1 0 0 0-.51-.73zm5.38-5.17.37.23.5.29.51.29.4.21a3.57 3.57 0 0 0 .56.22 2.41 2.41 0 0 0 .63.09 2.59 2.59 0 0 0 1.38-.37 1.84 1.84 0 0 0 .51-.39.76.76 0 0 0 .18-.34.45.45 0 0 0 0-.29 1.15 1.15 0 0 0-.15-.23.41.41 0 0 1-.12-.2c0-.05.05-.11.17-.18l1.39-.8a.53.53 0 0 1 .47 0 2 2 0 0 1 .75.74 1.29 1.29 0 0 1 .13.88 2.13 2.13 0 0 1-.49.92 4.1 4.1 0 0 1-1.09.87 6.35 6.35 0 0 1-1.59.66 7.18 7.18 0 0 1-1.65.23 6.39 6.39 0 0 1-1.57-.15 5.65 5.65 0 0 1-1.37-.49l-1-.53-.93-.56a2.74 2.74 0 0 1-.85-.79 1.46 1.46 0 0 1-.27-.91 1.7 1.7 0 0 1 .4-.95 3.92 3.92 0 0 1 1.14-.92 6.59 6.59 0 0 1 1.51-.63 8 8 0 0 1 1.6-.28 6.36 6.36 0 0 1 1.53.07 4.08 4.08 0 0 1 1.28.44.14.14 0 0 1 0 .27l-1.39.8a.62.62 0 0 1-.31.1 1.45 1.45 0 0 1-.36-.07l-.4-.09a2.17 2.17 0 0 0-.5 0 3 3 0 0 0-.59.1 2.87 2.87 0 0 0-.68.29 1.62 1.62 0 0 0-.5.41.6.6 0 0 0-.13.39.59.59 0 0 0 .16.36 1.94 1.94 0 0 0 .37.31zm6.72-7.14a.86.86 0 0 1 .44-.12 1.65 1.65 0 0 1 .39 0l9 2.52.2.07a.16.16 0 0 1 .09.13.16.16 0 0 1-.09.13l-1.34.77a.8.8 0 0 1-.39.12.9.9 0 0 1-.29 0l-1.18-.34-2.82 1.63.58.68a.22.22 0 0 1 .06.17c0 .07-.07.14-.21.23l-1.34.77a.52.52 0 0 1-.47 0 .41.41 0 0 1-.12-.12l-4.37-5.2a.36.36 0 0 1-.08-.22c0-.09.07-.17.21-.25zm2.92 3.67 1.72-1-3.41-1zm3.94-7.63a7.57 7.57 0 0 1 1.4-.64 5.82 5.82 0 0 1 1.39-.29 4.63 4.63 0 0 1 1.35.1 4.47 4.47 0 0 1 1.28.5 2.16 2.16 0 0 1 1 1 1 1 0 0 1-.13 1l3.84.7h.15a.14.14 0 0 1 0 .27l-1.44.83a.77.77 0 0 1-.4.12h-.33l-3.45-.63-1 .56 2.27 1.31a.2.2 0 0 1 .12.17.19.19 0 0 1-.12.17l-1.39.8a.64.64 0 0 1-.57 0l-6.86-4a.18.18 0 0 1 0-.33zm2 2.55L352 338a1.32 1.32 0 0 0 .57-.52q.12-.27-.32-.52a1.36 1.36 0 0 0-.91-.19 2.58 2.58 0 0 0-.91.33l-1.2.69zm7.6-8.09a.64.64 0 0 1 .57 0l1.13.65a.18.18 0 0 1 0 .33l-1.87 1.08 5.44 3.14a.2.2 0 0 1 .12.17.2.2 0 0 1-.12.16l-1.39.8a.64.64 0 0 1-.57 0l-5.44-3.14-1.87 1.08a.64.64 0 0 1-.57 0l-1.12-.65a.18.18 0 0 1 0-.33zM279.95 374c-2.68 1.55-2.68 4.06 0 5.61a10.73 10.73 0 0 0 9.71 0c2.68-1.55 2.68-4.06 0-5.61a10.73 10.73 0 0 0-9.71 0zm8 1.83-1.8 1 1.8 1a.36.36 0 0 1 0 .69 1.32 1.32 0 0 1-1.2 0l-1.8-1-1.8 1a1.32 1.32 0 0 1-1.2 0 .36.36 0 0 1 0-.69l1.8-1-1.8-1a.36.36 0 0 1 0-.69 1.32 1.32 0 0 1 1.2 0l1.8 1 1.8-1a1.32 1.32 0 0 1 1.2 0 .36.36 0 0 1-.03.72z" fill="#fff"/>
    <path d="M298.2 308.63a14.88 14.88 0 0 0-6.66-11.7c-1.94-1.14-3.69-1.19-4.93-.38l-4.56 2.56 9.55 16.46 4.52-2.56c1.26-.68 2.06-2.19 2.08-4.38z" fill="#37474f"/>
    <path d="M286.81 299.61a14.88 14.88 0 0 1 6.66 11.7c0 4.29-3.05 6-6.76 3.84a14.88 14.88 0 0 1-6.66-11.7c.03-4.29 3.06-6.01 6.76-3.84z" fill="#455a64"/>
    <path d="M284.49 306.06c0-1.68 1-2.44 2.29-1.71a5.46 5.46 0 0 1 2.25 4.37c0 1.68-1 2.44-2.29 1.71a5.46 5.46 0 0 1-2.25-4.37z" fill="#263238"/>
    <path d="M293.47 311.31a12.43 12.43 0 0 0-.91-4.5L281 300.1a5.76 5.76 0 0 0-.93 3.36v.16l13.4 7.78z" opacity=".15"/>
    <path d="M250.32 345.22a14.42 14.42 0 0 1-7.12-1.28l-63-36.32c-3.81-1.92-8.09-6.9-8.35-11.61l-1.94-44.91 3.51-.2 1.94 44.91c.18 3.21 3.54 7.22 6.42 8.67l63 36.32a12.1 12.1 0 0 0 10.58-.61l42-24.22c1-.66 1.58-1.45 1.54-2.11s-.67-1.34-1.73-1.87l-67.45-39.19c-3.8-1.91-8.06-6.9-8.33-11.62l-.94-24.91 3.51-.2.94 24.93c.18 3.21 3.53 7.23 6.39 8.67l67.49 39.18c2.25 1.13 3.56 2.84 3.67 4.82s-1 3.87-3.12 5.25l-42 24.22a14.44 14.44 0 0 1-7.01 2.08z" fill="#455a64"/>
    <path d="M239 344.21a14.88 14.88 0 0 0-6.66-11.7c-1.94-1.14-3.69-1.19-4.93-.38l-4.56 2.56 9.55 16.46 4.52-2.56c1.25-.68 2.08-2.19 2.08-4.38z" fill="#37474f"/>
    <path d="M227.59 335.19a14.88 14.88 0 0 1 6.66 11.7c0 4.29-3.05 6-6.76 3.84a14.88 14.88 0 0 1-6.66-11.7c.04-4.28 3.06-6.03 6.76-3.84z" fill="#455a64"/>
    <path d="M225.27 341.64c0-1.68 1-2.44 2.29-1.71a5.46 5.46 0 0 1 2.25 4.37c0 1.68-1 2.44-2.29 1.71a5.46 5.46 0 0 1-2.25-4.37z" fill="#263238"/>
    <path d="M192.42 317.36a14.88 14.88 0 0 0-6.63-11.71c-1.94-1.14-3.69-1.2-4.93-.39l-4.56 2.55 9.52 16.48 4.52-2.55c1.26-.68 2.06-2.19 2.08-4.38z" fill="#37474f"/>
    <path d="M181.05 308.33a14.88 14.88 0 0 1 6.64 11.67c0 4.29-3.06 6-6.76 3.83a14.88 14.88 0 0 1-6.63-11.71c.02-4.26 3.05-5.97 6.75-3.79z" fill="#455a64"/>
    <path d="M178.72 314.76c0-1.68 1-2.44 2.29-1.7a5.46 5.46 0 0 1 2.24 4.37c0 1.68-1 2.44-2.29 1.7a5.46 5.46 0 0 1-2.24-4.37z" fill="#263238"/>
    <path d="M162.38 196.68a11.7 11.7 0 0 1 4.49-12.46l41.91-23.69c3.81-2.5 8-.76 9.32 3.59l2.91 9.43-2.88 1.68-3.13-9.53a3.16 3.16 0 0 0-5-1.76L169.19 187a7.69 7.69 0 0 0-2.94 8l2.46 9-3.43 2z" fill="#455a64"/>
    <path d="m227.18 242.12-56.3 32.51 82.28 47.5 56.3-32.51zM165.29 206.11l55.72-32.55 6.17 68.56-56.3 32.51z" fill="#3e3056"/>
    <path d="m165.29 206.11 55.72-32.55 6.17 68.56-56.3 32.51z" fill="#664c8c" opacity=".5"/>
    <path d="m221 173.56 6.17 68.57 82.28 47.49 13-57.51zm28.77 65.92a4.71 4.71 0 0 1-5.9-3.06l-13.6-35.29a4.44 4.44 0 1 1 8.23-3.13l13.6 35.29a4.71 4.71 0 0 1-2.32 6.19zm25.69 12.09a4.71 4.71 0 0 1-5.9-3.06L256 213.22a4.44 4.44 0 1 1 8.22-3.17l13.6 35.29a4.71 4.71 0 0 1-2.35 6.22zm25.69 12.09a4.71 4.71 0 0 1-5.9-3.06l-13.6-35.29a4.44 4.44 0 1 1 8.22-3.17l13.6 35.29a4.71 4.71 0 0 1-2.31 6.22z" fill="#7352a2"/>
    <path d="m221 173.56 6.17 68.57 82.28 47.49 13-57.51zm28.77 65.92a4.71 4.71 0 0 1-5.9-3.06l-13.6-35.29a4.44 4.44 0 1 1 8.23-3.13l13.6 35.29a4.71 4.71 0 0 1-2.32 6.19zm25.69 12.09a4.71 4.71 0 0 1-5.9-3.06L256 213.22a4.44 4.44 0 1 1 8.22-3.17l13.6 35.29a4.71 4.71 0 0 1-2.35 6.22zm25.69 12.09a4.71 4.71 0 0 1-5.9-3.06l-13.6-35.29a4.44 4.44 0 1 1 8.22-3.17l13.6 35.29a4.71 4.71 0 0 1-2.31 6.22z" opacity=".05"/>
    <path d="m165.29 206.11 5.59 68.52 82.28 47.51 13-57.51zm32.48 67.45a4.71 4.71 0 0 1-5.9-3.06l-13.6-35.29a4.44 4.44 0 1 1 8.22-3.17l13.6 35.29a4.71 4.71 0 0 1-2.32 6.23zm25.69 12.09a4.71 4.71 0 0 1-5.9-3.05L204 247.3a4.44 4.44 0 1 1 8.22-3.17l13.6 35.29a4.71 4.71 0 0 1-2.36 6.22zm25.69 12.09a4.71 4.71 0 0 1-5.9-3.06l-13.6-35.29a4.44 4.44 0 1 1 8.22-3.17l13.6 35.29a4.71 4.71 0 0 1-2.32 6.22z" fill="#7b56af"/>
    <path d="m165.29 206.11 5.59 68.52 82.28 47.51 13-57.51zm32.48 67.45a4.71 4.71 0 0 1-5.9-3.06l-13.6-35.29a4.44 4.44 0 1 1 8.22-3.17l13.6 35.29a4.71 4.71 0 0 1-2.32 6.23zm25.69 12.09a4.71 4.71 0 0 1-5.9-3.05L204 247.3a4.44 4.44 0 1 1 8.22-3.17l13.6 35.29a4.71 4.71 0 0 1-2.36 6.22zm25.69 12.09a4.71 4.71 0 0 1-5.9-3.06l-13.6-35.29a4.44 4.44 0 1 1 8.22-3.17l13.6 35.29a4.71 4.71 0 0 1-2.32 6.22z" opacity=".05"/>
    <path d="m266.15 264.63 56.3-32.51-12.99 57.51-56.3 32.5z" fill="#604881"/>
    <path d="m266.15 264.63 56.3-32.51-12.99 57.51-56.3 32.5z" fill="#604881" opacity=".4"/>
    <path d="m286.43 140.48-6.5 3.81.02-19.69-3.94-2.27-17.84 10.3-.03 24.29-10.4 5.89 23.28 15.1 19.35-35.16z" fill="#37474f"/>
    <path d="m262.11 134.9-.03 24.29-10.4 5.9 19.34 12.82 19.35-35.16-10.45 6.14.03-24.29z" fill="#455a64"/>
    <path d="m258.17 132.63 3.94 2.27-.03 24.29-3.94-2.27z" fill="#263238"/>
    <path d="M387.24 122.1c-2.91 6.26-7.89 16.62-10.62 22.36l-10.68-12.57h-9s10.8 23 17.24 28.38a5.08 5.08 0 0 0 7.37-.44 94.08 94.08 0 0 0 7.23-10c5.1-7.87 7.38-11.28 7.38-11.28l6.43-27c-5.59-.43-11.31 1.86-15.35 10.55z" fill="#ffa8a7"/>
    <path d="M403.65 111.51c-3.43-.13-7.16-.56-10.44 2.3a26.61 26.61 0 0 0-7.13 10c-2.21 5.2-5.64 11.79-5.64 11.79a28.72 28.72 0 0 0 6.41 6.68 16.19 16.19 0 0 0 7.68 3.23z" fill="#584778"/>
    <path d="M403.65 111.51c-3.43-.13-7.16-.56-10.44 2.3a26.61 26.61 0 0 0-7.13 10c-2.21 5.2-5.64 11.79-5.64 11.79a28.72 28.72 0 0 0 6.41 6.68 16.19 16.19 0 0 0 7.68 3.23z" opacity=".2"/>
    <path d="M376.62 144.46a37.7 37.7 0 0 1 3.28 4.48s-1.15-4.24-2.71-5.69z" fill="#f28f8f"/>
    <path d="m354.27 115.17.85-.89a1.06 1.06 0 0 1 .95-.2l10.34 1.76a3.73 3.73 0 0 1 2.47 1.89l9.3 20.21a1 1 0 0 1 0 1.08l-.88.92a1.05 1.05 0 0 1-1 .21L366 138.4a3.73 3.73 0 0 1-2.47-1.89l-9.3-20.21a.92.92 0 0 1 .04-1.13z" fill="#455a64"/>
    <path d="m377.3 138.85-9.3-20.22a3.73 3.73 0 0 0-2.47-1.89L355.19 115c-1-.16-1.41.42-1 1.3l9.3 20.21a3.73 3.73 0 0 0 2.51 1.89l10.34 1.76c.92.16 1.37-.43.96-1.31z" fill="#263238"/>
    <path d="M366.69 117.21a3.66 3.66 0 0 1 1.32 1.42l9.3 20.21a1 1 0 0 1 0 1.06l.83-.86a1 1 0 0 0 0-1.08l-9.3-20.22a3.57 3.57 0 0 0-1.22-1.35z" fill="#37474f"/>
    <path d="M359.16 135.16c-4.28-4.91-4.16-11.06-2.19-12.84l1.31 2.84s6.55 1.46 9.7 1.21 5.72-1 6.59-.38c1.83 1.29 2.35 6.78-2.88 8.77-4.47 1.7-12.53.4-12.53.4zM434.41 296.51c-2.76 1.48-6.13 1.36-9.42 0l-1.37-17.92 10.79 1.41zM401.34 285.8c-2.33 5-6.55 3.65-11.3.42l.83-18h11.45z" fill="#ffa8a7"/>
    <path d="M414.23 313.47a4.17 4.17 0 0 0 .12 2.77c.36.56 2.43 2.33 6.16 2.59 3.57.26 6.76-.23 8.85-1.56s3.11-2.8 3.31-4.83 0-4 .94-5.56 2.32-3.07 2.63-3.86a7.92 7.92 0 0 0 0-4.14z" fill="#263238"/>
    <path d="M424 295.72a9.63 9.63 0 0 1-.44 2.26 20.71 20.71 0 0 1-2.19 4.47 18.33 18.33 0 0 1-1.49 2.1c-1.08 1.28-2.42 2.34-3.56 3.57a7.3 7.3 0 0 0-2.2 4.38c-.15 2.8 2.89 3.75 5.23 4.17a17.17 17.17 0 0 0 7.6-.38 7 7 0 0 0 5.12-5.58c.13-.78.08-1.57.17-2.35a11 11 0 0 1 2.18-4.9 14.77 14.77 0 0 0 1.67-2.67c.73-1.73.14-3.68-.32-5.41-.4-1.49-.86-3.18-1.38-3a1.91 1.91 0 0 1-.12.9 4 4 0 0 0-.41.88 6.83 6.83 0 0 1-.43 1.15 3 3 0 0 1-1.24 1.37l-.1-3.17a1.11 1.11 0 0 0-1.14-1.32 19.9 19.9 0 0 0-6-.5 1.1 1.1 0 0 0-.8.35 1.16 1.16 0 0 0-.13.72 27.12 27.12 0 0 1-.02 2.96z" fill="#37474f"/>
    <path d="M421 303c1-.78 3.38-.79 4.66-.65a7.74 7.74 0 0 1 3.63 1.27.83.83 0 0 0 1.07-.08.78.78 0 0 0-.08-1.19 7.88 7.88 0 0 0-4.09-1.51c-3.14-.22-4.07.32-4.07.32s-1.41.95-1.12 1.84zM418.62 305.91c1.31-.77 3.88-.66 5.16-.53a7.27 7.27 0 0 1 3.53 1.34.83.83 0 0 0 1.07-.08.78.78 0 0 0-.08-1.19 8.18 8.18 0 0 0-4.17-1.63c-3.14-.22-4 .42-4 .42a2.6 2.6 0 0 0-1.51 1.67zM427.46 297.87a7.8 7.8 0 0 0-4 .33c-.55.31-.92 1.19-.56 1.41a7.26 7.26 0 0 1 3.5-.48 10.38 10.38 0 0 1 3.4.93c.27.12.59.29.87.44a.75.75 0 0 0 1-.32.7.7 0 0 0-.27-.9 10.08 10.08 0 0 0-3.94-1.41z" fill="#f5f5f5"/>
    <path d="M371.28 297.32a3.39 3.39 0 0 0 .14 2.49c.35.73 4.16 2.88 9.29 2.53a21.39 21.39 0 0 0 10.62-3.71c2-1.3 4-1.54 6.54-1.68s5.88-1.41 6.44-2.6a5.63 5.63 0 0 0-.08-3.24z" fill="#263238"/>
    <path d="m391.93 281.52-1.33-.52a1.11 1.11 0 0 0-.76-.09c-.33.12-.46.51-.54.85a12.67 12.67 0 0 1-.56 2.23 5.58 5.58 0 0 1-1.44 1.51 23.56 23.56 0 0 1-4.11 2.65c-1.68.9-3.32 1.6-5.06 2.38s-4.11 1.28-5.5 2.21c-2 1.36-2.28 4.77 0 6.12 2 1.16 7.19 2.42 12.66.87 3-.84 6.29-4 10.19-4.33 2.49-.19 7.19-.89 8.79-2.78.59-.84-.2-3.49-.85-5.78-.71-2.5-1-6.41-1.81-6.19-.06.83-.78 1.31-1.21 2a14.61 14.61 0 0 0-.89 2 3.64 3.64 0 0 1-1.3 1.71 1.66 1.66 0 0 1-2-.11c-.73-.76-.3-2.08-.83-3a3.15 3.15 0 0 0-1.75-1.15z" fill="#37474f"/>
    <path d="M385.5 286.84a2.31 2.31 0 0 1 1.84-1.23c1.13-.21 3.13.62 4.37 1.65a.93.93 0 0 1-.13 1.53.93.93 0 0 1-1.06-.12 7.09 7.09 0 0 0-5.02-1.83zM382 288.8a2.66 2.66 0 0 1 2.18-1.12 8.27 8.27 0 0 1 4.78 1.79.91.91 0 0 1-.12 1.48.89.89 0 0 1-1-.12 7.11 7.11 0 0 0-5.84-2.03zM378.12 290.57a3 3 0 0 1 2.26-1 8 8 0 0 1 4.58 1.81.91.91 0 0 1-.12 1.48.89.89 0 0 1-1-.12 6.79 6.79 0 0 0-5.72-2.17z" fill="#f5f5f5"/>
    <path d="M433 161.62c.65 19.61.6 67 .6 67 .21 2.44 1.2 7.45 2 17.22 1.06 12.7-1.24 40.64-1.24 40.64a13 13 0 0 1-10.23.06s-6.13-39.78-8.03-52.34c-1.71-11-5.06-35.83-5.06-35.83l-3.86 32.24a66 66 0 0 1-.4 16.11c-.9 5.78-4.9 29.54-4.9 29.54a20.22 20.22 0 0 1-11.35-.43s-.38-41.17-.48-46.52c-.12-6.1 2.7-72.52 2.7-72.52z" fill="#37474f"/>
    <path d="m411 198.36-2.9-16.07s-8-.7-12.48-5.19c0 0 .79 4.39 10.9 7l2.9 16.26-2.28 30.21z" fill="#263238"/>
    <path d="M393.74 126.61c.87-6.28 1.69-14.72 11.43-15.1l12.56.6c3.09.8 15.11 2.23 15.11 2.23l.22 27.24s.77 19.64.53 30.15c-9 5.7-28.55 7.55-40.84-1.78-.37-8.68.13-37.12.99-43.34z" fill="#fafafa"/>
    <path d="M395.35 79.19a12.44 12.44 0 0 0 5.5 17.38l-2.27 1.55 22.58 2-.29 5.44a4.06 4.06 0 0 0 2.41-1.82c.81-1.45 3-10.35 3-10.35 2.12-4.86 3.16-9.86 1.64-11.52a4.31 4.31 0 0 0-2.25-1.3l3-1.5a2.4 2.4 0 0 0-3.26-1.2 2.46 2.46 0 0 0-.68.51 6 6 0 0 0 .15-1 4.47 4.47 0 0 0-.68-2.83 5.24 5.24 0 0 0-1.58-1.39c-2.54-1.59-5.56-2.18-8.38-3.18-1.6-.57-3.15-1.27-4.73-1.9a6 6 0 0 0-3.32-.61 2.19 2.19 0 0 0-1.85 2.43 4.28 4.28 0 0 0-4.67-.71 3.69 3.69 0 0 0-2.28 3.68 4.66 4.66 0 0 0-3.06.3 2.66 2.66 0 0 0-1.49 2.54c.16 1.29 1.32 2.52 2.51 3.48z" fill="#37474f"/>
    <path d="M411.25 82.37c2.07-.25 4.14-.58 6.2-.91a.68.68 0 0 1 .54.07.66.66 0 0 1 .18.31c1.35 4 1.32 8.25 2.39 12.29.1.36.33 1 .77 1 .8.09 1.35-.62 1.69-1.24l.77-1.39a3.66 3.66 0 0 1 .56-.71c1-.89 3.83-2 5.16 1.06s-1.51 7.17-3.82 7.82c-4 1.11-4.49-1.44-4.49-1.44l-.76 14.19c-3.52 3.68-15.09 2.4-12.8-.79l.15-4.32a24.84 24.84 0 0 1-5.32.1c-2.88-.54-4.63-2.89-5.4-6-1.25-5.08-1.11-11.3-.13-19a10.9 10.9 0 0 1 .71-2.66c4.07 2.25 9 2.17 13.6 1.62z" fill="#ffa8a7"/>
    <path d="M407.81 108.35s6.51-1.09 8.8-2.22a7.45 7.45 0 0 0 3.22-3 10.19 10.19 0 0 1-1.89 3.59c-1.72 2.06-10.19 3.34-10.19 3.34z" fill="#f28f8f"/>
    <ellipse cx="410.13" cy="92.37" fill="#263238" rx="1.44" ry="1.39" transform="rotate(-88.3 410.118 92.372)"/>
    <path d="m410.67 86.55 2.91 1.25a1.66 1.66 0 0 0-.86-2.13 1.55 1.55 0 0 0-2.05.88z" fill="#263238"/>
    <path d="m410.42 99.88-4.56 1.54a2.37 2.37 0 0 0 3 1.59 2.52 2.52 0 0 0 1.56-3.13z" fill="#b16668"/>
    <path d="M408.87 103a2.46 2.46 0 0 0 1.58-1.74 2 2 0 0 0-2.86 1.79 2.29 2.29 0 0 0 1.28-.05z" fill="#f28f8f"/>
    <path d="m397.18 87.72 2.9-1.11a1.5 1.5 0 0 0-2-.88 1.58 1.58 0 0 0-.9 1.99z" fill="#263238"/>
    <ellipse cx="399.6" cy="92.37" fill="#263238" rx="1.45" ry="1.4" transform="rotate(-88.3 399.61 92.366)"/>
    <path d="m405 91.9-.21 7.67-4.28-1.24 4-6.5a1.1 1.1 0 0 1 .49.07z" fill="#f28f8f"/>
    <path d="M392.21 134.42c.34-8 1-15 3.92-18.71s4.56-4.44 11.58-4.33v.48a2.62 2.62 0 0 0-2 1.16 41.38 41.38 0 0 0-5.4 12c-2 7.73-2.39 25-2.49 34.29s0 16.79 0 16.79-4.7-1.1-6.16-3.45c-.01-.01.21-30.27.55-38.23z" fill="#9579db"/>
    <path d="M392.21 134.42c.34-8 1-15 3.92-18.71s4.56-4.44 11.58-4.33v.48a2.62 2.62 0 0 0-2 1.16 41.38 41.38 0 0 0-5.4 12c-2 7.73-2.39 25-2.49 34.29s0 16.79 0 16.79-4.7-1.1-6.16-3.45c-.01-.01.21-30.27.55-38.23z" opacity=".35"/>
    <path d="M416.48 121.76c1-4.24 3.07-7 4-9.19l8.78 1.24c3.23 1.49 7.44 5.05 7.12 8.6l-2.3 26.06.64 24.67c-5 7.8-20 6.36-20 6.36s-.43-11.1.06-32.55c.29-12.01.43-19.78 1.7-25.19z" fill="#9579db"/>
    <path d="M416.48 121.76c1-4.24 3.07-7 4-9.19l8.78 1.24c3.23 1.49 7.44 5.05 7.12 8.6l-2.3 26.06.64 24.67c-5 7.8-20 6.36-20 6.36s-.43-11.1.06-32.55c.29-12.01.43-19.78 1.7-25.19z" opacity=".35"/>
    <path d="M416.07 123.85c.58-2.72.89-7.78 1.37-8.8s3.09-3 3.19-4.41v-.89a4.44 4.44 0 0 1 2.19 1.13c.82.73 3.25 2.42 3.25 2.42a11.05 11.05 0 0 1-1.82 4.68c-1.44 2.07-3.44 3.42-3.75 2.91s-.26-1.29-.79-2.5c-.66-1.51-.82-2.15-1.52-.66-.52 1.2-2.12 6.12-2.12 6.12zm-14.97-1.49c-.71 2.29 1.17-7.94 2.38-9.74s4.32-2.51 4.32-2.51l-.13 2.21a3.31 3.31 0 0 0-2 1.38 38.11 38.11 0 0 0-4.57 8.66z" fill="#493d66"/>
    <path d="M415.75 126a186.14 186.14 0 0 1 20 3.13l-.07.74a185.64 185.64 0 0 0-20.05-3.14c.07-.22.09-.47.12-.73zm-22.92-.14c2.19-.26 4.68-.48 7.41-.62q-.09.36-.18.75c-2.7.14-5.16.36-7.31.62.02-.25.05-.51.08-.75z" fill="#927ace" opacity=".45"/>
    <path d="M452.76 148.94c-9.38-23.82-11.44-31.23-18.05-34a18 18 0 0 0-5.45-1.16c-1.62 3-4 14.52 3.82 22.54 0 0 5.68 14 8.54 20.63-.09 6.65.39 12.21-1.64 21.21a6 6 0 0 1-2.26 3c-2.38 1.31-2.77 2.79-4.53 4.48-1.38 1.32-2.58 1.62-2.37 2.06a2.58 2.58 0 0 0 3 1.07 21.73 21.73 0 0 0 3.68-1.93c.23.27-2 3.82-4.31 6.41-3.42 3.81-4.25 6.56 2.59 6.83 4.29.17 8.92-3.35 11.83-11.9.58-1.69 1.17-4.14 1.78-6.51.44-1 3.58-17.06 4.24-22 .88-6.11.66-6.86-.87-10.73z" fill="#ffa8a7"/>
    <path d="M428.09 113.81a13.6 13.6 0 0 1 8.3 1.46c3.71 2.24 5 4.2 9.47 14.62s5.35 12.43 5.35 12.43-2 5.94-13.94 6.62l-5.35-12.2s-4.45-5.53-4.85-12.37 1.02-10.56 1.02-10.56z" fill="#584778"/>
    <path d="M428.09 113.81a13.6 13.6 0 0 1 8.3 1.46c3.71 2.24 5 4.2 9.47 14.62s5.35 12.43 5.35 12.43-2 5.94-13.94 6.62l-5.35-12.2s-4.45-5.53-4.85-12.37 1.02-10.56 1.02-10.56z" fill="#584778" opacity=".45"/>
</svg>
