<svg viewBox="0 0 500 500" xmlns="http://www.w3.org/2000/svg">
    <path d="M400.95 279.64c85.52 49.38 85.52 129.43 0 178.81s-224.18 49.38-309.7 0S5.72 329 91.24 279.64s224.18-49.38 309.71 0z" fill="#f5f5f5"/>
    <path d="m301.62 449.5 54.46-31.44c6.59-3.8 6.59-10 0-13.77l-91.74-53c-6.59-3.8-17.26-3.8-23.85 0L186 382.77c-6.59 3.8-6.59 10 0 13.77l91.74 53c6.61 3.77 17.26 3.77 23.88-.04z" fill="#e0e0e0"/>
    <path d="M221.2 328.84c22.16 12.79 22.16 33.53 0 46.32s-58.08 12.79-80.23 0-22.16-33.53 0-46.32 58.03-12.84 80.23 0z" fill="#e0e0e0"/>
    <path d="M350.85 93.19v-4.88a1.67 1.67 0 0 1 1-1.3l29.33-16.93a5 5 0 0 1 4.51 0L470 118.76a1.67 1.67 0 0 1 1 1.3v4.88a1.67 1.67 0 0 1-1 1.3l-29.33 16.93a5 5 0 0 1-4.51 0L351.82 94.5a1.67 1.67 0 0 1-1-1.3z" fill="#f0f0f0"/>
    <path d="m470 121.36-29.33 16.93a5 5 0 0 1-4.51 0l-84.34-48.68a1.37 1.37 0 0 1 0-2.6l29.33-16.93a5 5 0 0 1 4.51 0L470 118.76a1.37 1.37 0 0 1 0 2.6z" fill="#fafafa"/>
    <path d="M438.4 138.84v4.88a4.66 4.66 0 0 0 2.25-.54L470 126.25a1.65 1.65 0 0 0 1-1.3v-4.88a1.21 1.21 0 0 0-.18-.55c.34.63.08 1.35-.78 1.85l-29.33 16.93a4.52 4.52 0 0 1-2.31.54z" fill="#e0e0e0"/>
    <path d="M389.06 92.17c4.48-2.56 4.48-6.71 0-9.27s-11.74-2.56-16.22 0-4.48 6.71 0 9.27 11.74 2.56 16.22 0z" opacity=".03"/>
    <path d="M372.41 52.41a11.51 11.51 0 0 1 1.49-.72 2.53 2.53 0 0 0 1.62-2.34v-4.22h9.33v4.22a2.53 2.53 0 0 0 1.62 2.34 11.51 11.51 0 0 1 1.49.72 6.62 6.62 0 0 1 3.22 5.3v28.4c0 1.63-1.07 3.25-3.22 4.49a17.19 17.19 0 0 1-15.55 0c-2.15-1.24-3.22-2.86-3.22-4.49v-28.4a6.62 6.62 0 0 1 3.22-5.3z" fill="#f0f0f0"/>
    <path d="M372.41 63.54a17.33 17.33 0 0 0 15.54 0c2.15-1.23 3.22-2.83 3.22-4.44v20.13c0 1.61-1.07 3.22-3.22 4.44a17.33 17.33 0 0 1-15.54 0c-2.15-1.23-3.22-2.83-3.22-4.44V59.09c0 1.61 1.07 3.22 3.22 4.45z" fill="#e0e0e0"/>
    <path d="M387.64 86.17v-27.8c0-1.35-.28-3.18-1.9-4-3.23-1.63-3.64-3-3.64-4.61v-4.63h2.75v4.22a2.53 2.53 0 0 0 1.62 2.34 11.51 11.51 0 0 1 1.49.72 6.62 6.62 0 0 1 3.22 5.3v28.4c0 1.63-1.07 3.25-3.22 4.49a17.2 17.2 0 0 1-11.42 1.49c8.93.62 11.1-3.17 11.1-5.92z" fill="#ebebeb" opacity=".3"/>
    <path d="M375.24 43.88v1.25a2.5 2.5 0 0 0 1.48 2.06 7.88 7.88 0 0 0 7.12 0 3.4 3.4 0 0 0 1.1-1 1.88 1.88 0 0 0 .37-1.09v-1.23a1.33 1.33 0 0 0 0-.34 2.69 2.69 0 0 0-1.43-1.72h-.07a7.89 7.89 0 0 0-7 0 2.71 2.71 0 0 0-1.44 1.72 1.44 1.44 0 0 0-.13.35z" fill="#e6e6e6"/>
    <path d="M383.83 45.92c2-1.13 2-3 0-4.11a7.87 7.87 0 0 0-7.12 0c-2 1.13-2 3 0 4.11a7.87 7.87 0 0 0 7.12 0z" fill="#e0e0e0"/>
    <path d="M375.24 40v3.15a1.44 1.44 0 0 0 0 .35 2.71 2.71 0 0 0 1.44 1.72 7 7 0 0 0 3.15.84 7.44 7.44 0 0 0 4-.84 3.44 3.44 0 0 0 1.1-1 1.91 1.91 0 0 0 .33-.75 1.36 1.36 0 0 0 0-.34V40a2.5 2.5 0 0 0-1.43-2l-.27-.14a7.92 7.92 0 0 0-6.85.14 2.5 2.5 0 0 0-1.47 2z" fill="#e6e6e6"/>
    <ellipse cx="380.27" cy="40" fill="#f5f5f5" rx="5.03" ry="2.89"/>
    <path d="M409.46 103.75c4.48-2.56 4.48-6.71 0-9.27s-11.74-2.56-16.22 0-4.48 6.71 0 9.27 11.76 2.56 16.22 0z" opacity=".03"/>
    <path d="M392.81 64a11.53 11.53 0 0 1 1.49-.72 2.53 2.53 0 0 0 1.62-2.34v-4.23h9.33v4.22a2.53 2.53 0 0 0 1.62 2.34 11.51 11.51 0 0 1 1.49.72 6.62 6.62 0 0 1 3.22 5.3v28.4c0 1.63-1.07 3.25-3.22 4.49a17.19 17.19 0 0 1-15.55 0c-2.15-1.24-3.22-2.86-3.22-4.49v-28.4a6.62 6.62 0 0 1 3.22-5.29z" fill="#f0f0f0"/>
    <path d="M392.81 75.12a17.33 17.33 0 0 0 15.54 0c2.15-1.23 3.22-2.83 3.22-4.44v20.13c0 1.61-1.07 3.22-3.22 4.44a17.33 17.33 0 0 1-15.54 0c-2.15-1.23-3.22-2.83-3.22-4.44V70.68c0 1.6 1.07 3.21 3.22 4.44z" fill="#e0e0e0"/>
    <path d="M408 97.76V70c0-1.35-.28-3.18-1.9-4-3.23-1.63-3.64-3-3.64-4.61v-4.68h2.75v4.22a2.53 2.53 0 0 0 1.62 2.34 11.51 11.51 0 0 1 1.49.72 6.62 6.62 0 0 1 3.22 5.3v28.4c0 1.63-1.07 3.25-3.22 4.49a17.2 17.2 0 0 1-11.42 1.49c8.97.62 11.1-3.17 11.1-5.91z" fill="#ebebeb" opacity=".3"/>
    <path d="M395.64 55.46v1.25a2.5 2.5 0 0 0 1.48 2.06 7.88 7.88 0 0 0 7.12 0 3.4 3.4 0 0 0 1.1-1 1.88 1.88 0 0 0 .37-1.09v-1.23a1.32 1.32 0 0 0 0-.34 2.69 2.69 0 0 0-1.43-1.72h-.07a7.89 7.89 0 0 0-7 0 2.71 2.71 0 0 0-1.44 1.72 1.44 1.44 0 0 0-.13.35z" fill="#e6e6e6"/>
    <path d="M404.23 57.5c2-1.13 2-3 0-4.11a7.87 7.87 0 0 0-7.12 0c-2 1.13-2 3 0 4.11a7.87 7.87 0 0 0 7.12 0z" fill="#e0e0e0"/>
    <path d="M395.64 51.61v3.15a1.44 1.44 0 0 0 0 .35 2.71 2.71 0 0 0 1.44 1.72 7 7 0 0 0 3.15.84 7.44 7.44 0 0 0 4-.84 3.44 3.44 0 0 0 1.1-1 1.91 1.91 0 0 0 .33-.75 1.36 1.36 0 0 0 0-.34V51.6a2.5 2.5 0 0 0-1.47-2.06l-.19-.14a7.92 7.92 0 0 0-6.85.14 2.5 2.5 0 0 0-1.51 2.07z" fill="#e6e6e6"/>
    <ellipse cx="400.67" cy="51.58" fill="#f5f5f5" rx="5.03" ry="2.89"/>
    <path d="M429.86 115.34c4.48-2.56 4.48-6.71 0-9.27s-11.74-2.56-16.22 0-4.48 6.71 0 9.27 11.74 2.56 16.22 0z" opacity=".03"/>
    <path d="M413.21 75.58a11.5 11.5 0 0 1 1.49-.72 2.53 2.53 0 0 0 1.62-2.34V68.3h9.33v4.22a2.53 2.53 0 0 0 1.62 2.34 11.51 11.51 0 0 1 1.49.72 6.62 6.62 0 0 1 3.22 5.3v28.4c0 1.63-1.07 3.25-3.22 4.49a17.19 17.19 0 0 1-15.55 0c-2.15-1.24-3.22-2.86-3.22-4.49V80.87a6.62 6.62 0 0 1 3.22-5.29z" fill="#f0f0f0"/>
    <path d="M413.2 86.7a17.33 17.33 0 0 0 15.54 0c2.15-1.23 3.22-2.83 3.22-4.44v20.14c0 1.61-1.07 3.22-3.22 4.44a17.33 17.33 0 0 1-15.54 0c-2.15-1.23-3.22-2.83-3.22-4.44V82.26c.02 1.61 1.08 3.21 3.22 4.44z" fill="#e0e0e0"/>
    <path d="M428.43 109.34V81.53c0-1.35-.28-3.18-1.9-4-3.23-1.63-3.64-3-3.64-4.61V68.3h2.75v4.22a2.53 2.53 0 0 0 1.62 2.34 11.49 11.49 0 0 1 1.49.72 6.62 6.62 0 0 1 3.22 5.3v28.4c0 1.63-1.07 3.25-3.22 4.49a17.2 17.2 0 0 1-11.42 1.49c8.94.61 11.1-3.18 11.1-5.92z" fill="#ebebeb" opacity=".3"/>
    <path d="M416 67v1.25a2.5 2.5 0 0 0 1.48 2.06 7.88 7.88 0 0 0 7.12 0 3.4 3.4 0 0 0 1.1-1 1.88 1.88 0 0 0 .37-1.09V67a1.33 1.33 0 0 0 0-.34 2.69 2.69 0 0 0-1.44-1.66h-.07a7.89 7.89 0 0 0-7 0 2.71 2.71 0 0 0-1.44 1.72 1.44 1.44 0 0 0-.12.28z" fill="#e6e6e6"/>
    <path d="M424.63 69.09c2-1.13 2-3 0-4.11a7.87 7.87 0 0 0-7.12 0c-2 1.13-2 3 0 4.11a7.87 7.87 0 0 0 7.12 0z" fill="#e0e0e0"/>
    <path d="M416 63.19v3.15a1.44 1.44 0 0 0 0 .35 2.71 2.71 0 0 0 1.44 1.72 7 7 0 0 0 3.15.84 7.44 7.44 0 0 0 4-.84 3.44 3.44 0 0 0 1.1-1 1.91 1.91 0 0 0 .33-.75 1.36 1.36 0 0 0 0-.34v-3.14a2.5 2.5 0 0 0-1.47-2.06l-.27-.14a7.92 7.92 0 0 0-6.85.14 2.5 2.5 0 0 0-1.43 2.07z" fill="#e6e6e6"/>
    <ellipse cx="421.07" cy="63.17" fill="#f5f5f5" rx="5.03" ry="2.89"/>
    <path d="M450.26 126.92c4.48-2.56 4.48-6.71 0-9.27s-11.74-2.56-16.22 0-4.48 6.71 0 9.27 11.74 2.56 16.22 0z" opacity=".03"/>
    <path d="M433.61 87.16a11.51 11.51 0 0 1 1.49-.72 2.53 2.53 0 0 0 1.62-2.34v-4.22H446v4.22a2.53 2.53 0 0 0 1.62 2.34 11.51 11.51 0 0 1 1.49.72 6.62 6.62 0 0 1 3.22 5.3v28.4c0 1.63-1.07 3.25-3.22 4.49a17.19 17.19 0 0 1-15.55 0c-2.15-1.24-3.22-2.86-3.22-4.49V92.45a6.62 6.62 0 0 1 3.27-5.29z" fill="#f0f0f0"/>
    <path d="M433.6 98.28a17.33 17.33 0 0 0 15.54 0c2.15-1.23 3.22-2.83 3.22-4.44V114c0 1.61-1.07 3.22-3.22 4.44a17.33 17.33 0 0 1-15.54 0c-2.15-1.23-3.22-2.83-3.22-4.44V93.84c0 1.61 1.08 3.22 3.22 4.44z" fill="#e0e0e0"/>
    <path d="M448.83 120.92V93.11c0-1.35-.28-3.18-1.9-4-3.23-1.63-3.64-3-3.64-4.61v-4.62H446v4.22a2.53 2.53 0 0 0 1.62 2.34 11.51 11.51 0 0 1 1.49.72 6.62 6.62 0 0 1 3.22 5.3v28.4c0 1.63-1.07 3.25-3.22 4.49a17.2 17.2 0 0 1-11.42 1.49c8.98.61 11.14-3.18 11.14-5.92z" fill="#ebebeb" opacity=".3"/>
    <path d="M436.43 78.62v1.25a2.5 2.5 0 0 0 1.48 2.06 7.88 7.88 0 0 0 7.12 0 3.4 3.4 0 0 0 1.1-1 1.88 1.88 0 0 0 .37-1.09v-1.22a1.33 1.33 0 0 0 0-.34 2.69 2.69 0 0 0-1.5-1.72h-.07a7.89 7.89 0 0 0-7 0 2.71 2.71 0 0 0-1.44 1.72 1.44 1.44 0 0 0-.06.34z" fill="#e6e6e6"/>
    <path d="M445 80.67c2-1.13 2-3 0-4.11a7.87 7.87 0 0 0-7.12 0c-2 1.13-2 3 0 4.11a7.87 7.87 0 0 0 7.12 0z" fill="#e0e0e0"/>
    <path d="M436.43 74.77v3.15a1.44 1.44 0 0 0 0 .35 2.71 2.71 0 0 0 1.48 1.73 7 7 0 0 0 3.15.84 7.44 7.44 0 0 0 4-.84 3.44 3.44 0 0 0 1.1-1 1.91 1.91 0 0 0 .33-.75 1.36 1.36 0 0 0 0-.34v-3.15a2.5 2.5 0 0 0-1.49-2.05l-.27-.14a7.92 7.92 0 0 0-6.85.14 2.5 2.5 0 0 0-1.45 2.06z" fill="#e6e6e6"/>
    <ellipse cx="441.47" cy="74.75" fill="#f5f5f5" rx="5.03" ry="2.89"/>
    <path d="M125.83 72v-4.9a1.67 1.67 0 0 0-1-1.3l-29.3-16.94a5 5 0 0 0-4.51 0L6.7 97.55a1.67 1.67 0 0 0-1 1.3v4.88a1.67 1.67 0 0 0 1 1.3L36 122a5 5 0 0 0 4.51 0l84.32-48.68a1.66 1.66 0 0 0 1-1.3z" fill="#f0f0f0"/>
    <path d="M6.7 100.15 36 117.08a5 5 0 0 0 4.51 0l84.35-48.68a1.37 1.37 0 0 0 0-2.6L95.53 48.86a5 5 0 0 0-4.51 0L6.7 97.55a1.37 1.37 0 0 0 0 2.6z" fill="#fafafa"/>
    <path d="M38.28 117.63v4.88A4.66 4.66 0 0 1 36 122L6.7 105a1.65 1.65 0 0 1-1-1.3v-4.85a1.21 1.21 0 0 1 .18-.55c-.34.63-.08 1.35.78 1.85L36 117.08a4.52 4.52 0 0 0 2.28.55z" fill="#e0e0e0"/>
    <path d="M87.21 69c5.37 3.1 14.06 3.1 19.43 0s5.37-8.12 0-11.22-14.06-3.1-19.43 0-5.36 8.08 0 11.22z" opacity=".03"/>
    <path d="M109.89 63.27V40.1H86.71v23.17c-.1 1.78 1 3.59 3.38 4.95 4.53 2.62 11.88 2.62 16.41 0 2.37-1.37 3.5-3.17 3.39-4.95z" fill="#ebebeb"/>
    <path d="M90.11 44.84c4.53 2.62 11.88 2.62 16.41 0s4.53-6.86 0-9.47-11.88-2.62-16.41 0-4.53 6.85 0 9.47z" fill="#fafafa"/>
    <path d="M90.61 44.45a17.37 17.37 0 0 0 15.4 0c4.25-2.4 4.25-6.3 0-8.7a17.36 17.36 0 0 0-15.4 0c-4.25 2.41-4.25 6.25 0 8.7z" fill="#ebebeb"/>
    <path d="M106 36.88a17.37 17.37 0 0 0-15.4 0 5.67 5.67 0 0 0-3.14 3.79 5.67 5.67 0 0 0 3.14 3.79 17.36 17.36 0 0 0 15.4 0 5.67 5.67 0 0 0 3.14-3.79 5.67 5.67 0 0 0-3.14-3.79z" fill="#f5f5f5"/>
    <path d="M86.71 59.35c0 1.73 1.12 3.45 3.4 4.77 4.53 2.62 11.88 2.62 16.41 0 2.27-1.31 3.4-3 3.4-4.74v-15.5c0 1.71-1.13 3.43-3.4 4.74-4.53 2.62-11.88 2.62-16.41 0-2.28-1.32-3.41-3-3.4-4.77z" fill="#e0e0e0"/>
    <path d="M103.06 69.59c-4.27 1.1-9.45.65-13-1.37-2.36-1.36-3.48-3.16-3.38-4.95V40.1c0 1.72 1.14 3.43 3.4 4.74a9.46 9.46 0 0 0 1.12.56v20.69c.03 1.91 6.5 4.24 11.86 3.5z" opacity=".05"/>
    <path d="m101 44.23-1.23-.71c-1-.58-1.27-1.36-.6-1.74a3.49 3.49 0 0 1 3 .34l1.23.71c1 .58 1.27 1.36.6 1.74a3.49 3.49 0 0 1-3-.34z" fill="#e0e0e0"/>
    <path d="M99.67 42.85a1.46 1.46 0 0 0 1.32 0 .4.4 0 0 0 0-.76 1.46 1.46 0 0 0-1.32 0 .4.4 0 0 0 0 .76zm2.44 1.32a1.46 1.46 0 0 0 1.32 0 .4.4 0 0 0 0-.76 1.46 1.46 0 0 0-1.32 0 .4.4 0 0 0 0 .76z" fill="#f5f5f5"/>
    <path d="M66.06 81.14c5.37 3.1 14.06 3.1 19.43 0s5.37-8.12 0-11.22-14.06-3.1-19.43 0-5.37 8.08 0 11.22z" opacity=".03"/>
    <path d="M88.74 75.46V52.29H65.55v23.17c-.1 1.78 1 3.59 3.38 4.95 4.53 2.62 11.88 2.62 16.41 0 2.37-1.41 3.49-3.17 3.4-4.95z" fill="#ebebeb"/>
    <path d="M69 57c4.53 2.62 11.88 2.62 16.41 0s4.53-6.86 0-9.47-11.88-2.62-16.41 0-4.58 6.88 0 9.47z" fill="#fafafa"/>
    <path d="M69.45 56.64a17.36 17.36 0 0 0 15.4 0c4.25-2.4 4.25-6.3 0-8.7a17.36 17.36 0 0 0-15.4 0c-4.25 2.41-4.25 6.3 0 8.7z" fill="#ebebeb"/>
    <path d="M84.85 49.07a17.36 17.36 0 0 0-15.4 0 5.67 5.67 0 0 0-3.14 3.79 5.67 5.67 0 0 0 3.14 3.79 17.36 17.36 0 0 0 15.4 0A5.67 5.67 0 0 0 88 52.86a5.67 5.67 0 0 0-3.15-3.79z" fill="#f5f5f5"/>
    <path d="M65.55 71.54c0 1.73 1.12 3.45 3.4 4.77 4.53 2.62 11.88 2.62 16.41 0 2.27-1.31 3.4-3 3.4-4.74v-15.5c0 1.71-1.13 3.43-3.4 4.74-4.53 2.62-11.88 2.62-16.41 0-2.28-1.32-3.41-3-3.4-4.77z" fill="#e0e0e0"/>
    <path d="M81.9 81.78c-4.27 1.1-9.45.65-13-1.37-2.36-1.36-3.48-3.16-3.38-4.95V52.29c0 1.72 1.14 3.43 3.4 4.74a9.45 9.45 0 0 0 1.12.56v20.69c.03 1.93 6.5 4.24 11.86 3.5z" opacity=".05"/>
    <path d="m79.8 56.42-1.23-.71c-1-.58-1.27-1.36-.6-1.74a3.49 3.49 0 0 1 3 .34l1.23.71c1 .58 1.27 1.36.6 1.74a3.49 3.49 0 0 1-3-.34z" fill="#e0e0e0"/>
    <path d="M78.51 55a1.46 1.46 0 0 0 1.32 0 .4.4 0 0 0 0-.76 1.46 1.46 0 0 0-1.32 0 .4.4 0 0 0 0 .76zM81 56.36a1.46 1.46 0 0 0 1.32 0 .4.4 0 0 0 0-.76 1.46 1.46 0 0 0-1.32 0 .4.4 0 0 0 0 .76z" fill="#f5f5f5"/>
    <path d="M44.9 93.34c5.37 3.1 14.06 3.1 19.43 0s5.37-8.12 0-11.22-14.06-3.1-19.43 0-5.37 8.12 0 11.22z" opacity=".03"/>
    <path d="M67.58 87.65V64.48H44.39v23.17c-.1 1.78 1 3.59 3.38 4.95 4.53 2.62 11.88 2.62 16.41 0 2.38-1.37 3.5-3.17 3.4-4.95z" fill="#ebebeb"/>
    <path d="M47.79 69.22c4.53 2.62 11.88 2.62 16.41 0s4.53-6.86 0-9.47-11.88-2.62-16.41 0-4.53 6.85 0 9.47z" fill="#fafafa"/>
    <path d="M48.29 68.83a17.36 17.36 0 0 0 15.4 0c4.25-2.4 4.25-6.3 0-8.7a17.36 17.36 0 0 0-15.4 0c-4.29 2.41-4.29 6.3 0 8.7z" fill="#ebebeb"/>
    <path d="M63.7 61.26a17.37 17.37 0 0 0-15.4 0A5.67 5.67 0 0 0 45.15 65a5.67 5.67 0 0 0 3.14 3.79 17.36 17.36 0 0 0 15.4 0A5.67 5.67 0 0 0 66.84 65a5.67 5.67 0 0 0-3.14-3.74z" fill="#f5f5f5"/>
    <path d="M44.4 83.73c0 1.73 1.12 3.45 3.4 4.77 4.53 2.62 11.88 2.62 16.41 0 2.27-1.31 3.4-3 3.4-4.74v-15.5c0 1.71-1.13 3.43-3.4 4.74-4.53 2.62-11.88 2.62-16.41 0-2.28-1.32-3.41-3-3.4-4.77z" fill="#e0e0e0"/>
    <path d="M60.75 94c-4.27 1.1-9.45.65-13-1.37-2.36-1.36-3.48-3.16-3.38-4.95v-23.2c0 1.72 1.14 3.43 3.4 4.74a9.47 9.47 0 0 0 1.12.56v20.69c.02 1.93 6.49 4.24 11.86 3.53z" opacity=".05"/>
    <path d="m58.64 68.61-1.23-.71c-1-.58-1.27-1.36-.6-1.74a3.49 3.49 0 0 1 3 .34l1.23.71c1 .58 1.27 1.36.6 1.74a3.49 3.49 0 0 1-3-.34z" fill="#e0e0e0"/>
    <path d="M57.36 67.24a1.46 1.46 0 0 0 1.32 0 .4.4 0 0 0 0-.76 1.46 1.46 0 0 0-1.32 0 .4.4 0 0 0 0 .76zm2.43 1.31a1.46 1.46 0 0 0 1.32 0 .4.4 0 0 0 0-.76 1.46 1.46 0 0 0-1.32 0 .4.4 0 0 0 0 .76z" fill="#f5f5f5"/>
    <path d="M23.74 105.53c5.37 3.1 14.06 3.1 19.43 0s5.37-8.12 0-11.22-14.06-3.1-19.43 0-5.36 8.12 0 11.22z" opacity=".03"/>
    <path d="M46.42 99.84V76.67H23.24v23.17c-.1 1.78 1 3.59 3.38 4.95 4.53 2.62 11.88 2.62 16.41 0 2.37-1.37 3.49-3.17 3.39-4.95z" fill="#ebebeb"/>
    <path d="M26.64 81.41C31.17 84 38.51 84 43 81.41s4.53-6.86 0-9.47-11.88-2.62-16.41 0-4.49 6.85.05 9.47z" fill="#fafafa"/>
    <path d="M27.14 81a17.36 17.36 0 0 0 15.4 0c4.25-2.4 4.25-6.3 0-8.7a17.36 17.36 0 0 0-15.4 0c-4.26 2.43-4.26 6.32 0 8.7z" fill="#ebebeb"/>
    <path d="M42.54 73.45a17.37 17.37 0 0 0-15.4 0A5.67 5.67 0 0 0 24 77.24 5.67 5.67 0 0 0 27.14 81a17.36 17.36 0 0 0 15.4 0 5.67 5.67 0 0 0 3.14-3.79 5.67 5.67 0 0 0-3.14-3.76z" fill="#f5f5f5"/>
    <path d="M23.24 95.92c0 1.73 1.12 3.45 3.4 4.77 4.53 2.62 11.88 2.62 16.41 0 2.27-1.31 3.4-3 3.4-4.74v-15.5c0 1.71-1.13 3.43-3.4 4.74-4.53 2.62-11.88 2.62-16.41 0-2.28-1.32-3.41-3-3.4-4.77z" fill="#e0e0e0"/>
    <path d="M39.59 106.16c-4.27 1.1-9.45.65-13-1.37-2.36-1.36-3.48-3.16-3.38-4.95V76.67c0 1.72 1.14 3.43 3.4 4.74a9.45 9.45 0 0 0 1.12.56v20.69c.03 1.93 6.49 4.24 11.86 3.5z" opacity=".05"/>
    <path d="m37.49 80.81-1.23-.71c-1-.58-1.27-1.36-.6-1.74a3.49 3.49 0 0 1 3 .34l1.23.71c1 .58 1.27 1.36.6 1.74a3.49 3.49 0 0 1-3-.34z" fill="#e0e0e0"/>
    <path d="M36.2 79.43a1.46 1.46 0 0 0 1.32 0 .4.4 0 0 0 0-.76 1.46 1.46 0 0 0-1.32 0 .4.4 0 0 0 0 .76zm2.44 1.31a1.46 1.46 0 0 0 1.32 0A.4.4 0 0 0 40 80a1.46 1.46 0 0 0-1.32 0 .4.4 0 0 0-.04.74z" fill="#f5f5f5"/>
    <path d="M9.28 155.32a1.42 1.42 0 0 0-.22.31 1.56 1.56 0 0 1 .22-.31z" fill="#e0e0e0"/>
    <path d="M125.83 140.95v-4.88a1.67 1.67 0 0 0-1-1.3l-29.3-16.94a5 5 0 0 0-4.51 0L6.7 166.51a1.67 1.67 0 0 0-1 1.3v4.88a1.67 1.67 0 0 0 1 1.3L36 190.93a5 5 0 0 0 4.51 0l84.32-48.68a1.67 1.67 0 0 0 1-1.3z" fill="#f0f0f0"/>
    <path d="M6.7 169.11 36 186a5 5 0 0 0 4.51 0l84.32-48.68a1.37 1.37 0 0 0 0-2.6l-29.3-16.89a5 5 0 0 0-4.51 0L6.7 166.51a1.37 1.37 0 0 0 0 2.6z" fill="#fafafa"/>
    <path d="M38.28 186.59v4.88a4.66 4.66 0 0 1-2.25-.54L6.7 174a1.65 1.65 0 0 1-1-1.3v-4.88a1.21 1.21 0 0 1 .18-.55c-.34.63-.08 1.35.78 1.85L36 186.05a4.52 4.52 0 0 0 2.28.54z" fill="#e0e0e0"/>
    <path d="M87.21 137.92c5.37 3.1 14.06 3.1 19.43 0s5.37-8.12 0-11.22-14.06-3.1-19.43 0-5.36 8.12 0 11.22z" opacity=".03"/>
    <path d="M109.89 132.23v-23.16H86.71v23.16c-.1 1.78 1 3.59 3.38 4.95 4.53 2.62 11.88 2.62 16.41 0 2.37-1.36 3.5-3.18 3.39-4.95z" fill="#ebebeb"/>
    <path d="M90.11 113.8c4.53 2.62 11.88 2.62 16.41 0s4.53-6.86 0-9.47-11.88-2.62-16.41 0-4.53 6.86 0 9.47z" fill="#fafafa"/>
    <path d="M90.61 113.42a17.36 17.36 0 0 0 15.4 0c4.25-2.4 4.25-6.3 0-8.7a17.36 17.36 0 0 0-15.4 0c-4.25 2.4-4.25 6.28 0 8.7z" fill="#ebebeb"/>
    <path d="M106 105.84a17.37 17.37 0 0 0-15.4 0 5.67 5.67 0 0 0-3.14 3.79 5.67 5.67 0 0 0 3.14 3.79 17.36 17.36 0 0 0 15.4 0 5.67 5.67 0 0 0 3.14-3.79 5.67 5.67 0 0 0-3.14-3.79z" fill="#f5f5f5"/>
    <path d="M86.71 128.32c0 1.73 1.12 3.45 3.4 4.77 4.53 2.62 11.88 2.62 16.41 0 2.27-1.31 3.4-3 3.4-4.74v-15.51c0 1.71-1.13 3.43-3.4 4.74-4.53 2.62-11.88 2.62-16.41 0-2.28-1.32-3.41-3-3.4-4.77z" fill="#e0e0e0"/>
    <path d="M103.06 138.55c-4.27 1.1-9.45.65-13-1.37-2.36-1.36-3.48-3.16-3.38-4.95v-23.16c0 1.72 1.14 3.43 3.4 4.74a9.48 9.48 0 0 0 1.12.56v20.69c.03 1.94 6.5 4.23 11.86 3.49z" opacity=".05"/>
    <path d="m101 113.2-1.23-.71c-1-.58-1.27-1.36-.6-1.74a3.49 3.49 0 0 1 3 .34l1.23.71c1 .58 1.27 1.36.6 1.74a3.49 3.49 0 0 1-3-.34z" fill="#e0e0e0"/>
    <path d="M99.67 111.82a1.46 1.46 0 0 0 1.32 0 .4.4 0 0 0 0-.76 1.46 1.46 0 0 0-1.32 0 .4.4 0 0 0 0 .76zm2.44 1.32a1.46 1.46 0 0 0 1.32 0 .4.4 0 0 0 0-.76 1.46 1.46 0 0 0-1.32 0 .4.4 0 0 0 0 .76z" fill="#f5f5f5"/>
    <path d="M66.06 150.11c5.37 3.1 14.06 3.1 19.43 0s5.37-8.12 0-11.22-14.06-3.1-19.43 0-5.37 8.11 0 11.22z" opacity=".03"/>
    <path d="M88.74 144.42v-23.16H65.55v23.16c-.1 1.78 1 3.59 3.38 4.95 4.53 2.62 11.88 2.62 16.41 0 2.37-1.37 3.49-3.16 3.4-4.95z" fill="#ebebeb"/>
    <path d="M69 126c4.53 2.62 11.88 2.62 16.41 0s4.53-6.86 0-9.47-11.88-2.62-16.41 0-4.58 6.85 0 9.47z" fill="#fafafa"/>
    <path d="M69.45 125.61a17.37 17.37 0 0 0 15.4 0c4.25-2.4 4.25-6.3 0-8.7a17.37 17.37 0 0 0-15.4 0c-4.25 2.4-4.25 6.3 0 8.7z" fill="#ebebeb"/>
    <path d="M84.85 118a17.36 17.36 0 0 0-15.4 0 5.67 5.67 0 0 0-3.14 3.79 5.67 5.67 0 0 0 3.14 3.79 17.37 17.37 0 0 0 15.4 0 5.67 5.67 0 0 0 3.15-3.76 5.67 5.67 0 0 0-3.15-3.82z" fill="#f5f5f5"/>
    <path d="M65.55 140.51c0 1.73 1.12 3.45 3.4 4.77 4.53 2.62 11.88 2.62 16.41 0 2.27-1.31 3.4-3 3.4-4.74V125c0 1.71-1.13 3.43-3.4 4.74-4.53 2.62-11.88 2.62-16.41 0-2.28-1.32-3.41-3-3.4-4.77z" fill="#e0e0e0"/>
    <path d="M81.9 150.74c-4.27 1.1-9.45.65-13-1.37-2.36-1.36-3.48-3.16-3.38-4.95v-23.16c0 1.72 1.14 3.43 3.4 4.74a9.47 9.47 0 0 0 1.12.56v20.69c.03 1.93 6.5 4.23 11.86 3.49z" opacity=".05"/>
    <path d="m79.8 125.39-1.23-.71c-1-.58-1.27-1.36-.6-1.74a3.49 3.49 0 0 1 3 .34l1.23.71c1 .58 1.27 1.36.6 1.74a3.49 3.49 0 0 1-3-.34z" fill="#e0e0e0"/>
    <path d="M78.51 124a1.46 1.46 0 0 0 1.32 0 .4.4 0 0 0 0-.76 1.46 1.46 0 0 0-1.32 0 .4.4 0 0 0 0 .76zm2.49 1.33a1.46 1.46 0 0 0 1.32 0 .4.4 0 0 0 0-.76 1.46 1.46 0 0 0-1.32 0 .4.4 0 0 0 0 .76z" fill="#f5f5f5"/>
    <path d="M44.9 162.3c5.37 3.1 14.06 3.1 19.43 0s5.37-8.12 0-11.22-14.06-3.1-19.43 0-5.37 8.12 0 11.22z" opacity=".03"/>
    <path d="M67.58 156.61v-23.16H44.39v23.16c-.1 1.78 1 3.59 3.38 4.95 4.53 2.62 11.88 2.62 16.41 0 2.38-1.36 3.5-3.16 3.4-4.95z" fill="#ebebeb"/>
    <path d="M47.79 138.18c4.53 2.62 11.88 2.62 16.41 0s4.53-6.86 0-9.47-11.88-2.62-16.41 0-4.53 6.86 0 9.47z" fill="#fafafa"/>
    <path d="M48.29 137.8a17.36 17.36 0 0 0 15.4 0c4.25-2.4 4.25-6.3 0-8.7a17.36 17.36 0 0 0-15.4 0c-4.29 2.4-4.29 6.3 0 8.7z" fill="#ebebeb"/>
    <path d="M63.7 130.23a17.37 17.37 0 0 0-15.4 0 5.67 5.67 0 0 0-3.15 3.77 5.67 5.67 0 0 0 3.14 3.79 17.36 17.36 0 0 0 15.4 0 5.67 5.67 0 0 0 3.15-3.79 5.67 5.67 0 0 0-3.14-3.77z" fill="#f5f5f5"/>
    <path d="M44.4 152.7c0 1.73 1.12 3.45 3.4 4.77 4.53 2.62 11.88 2.62 16.41 0 2.27-1.31 3.4-3 3.4-4.74v-15.51c0 1.71-1.13 3.43-3.4 4.74-4.53 2.62-11.88 2.62-16.41 0-2.28-1.32-3.41-3-3.4-4.77z" fill="#e0e0e0"/>
    <path d="M60.75 162.93c-4.27 1.1-9.45.65-13-1.37-2.36-1.36-3.48-3.16-3.38-4.95v-23.16c0 1.72 1.14 3.43 3.4 4.74a9.45 9.45 0 0 0 1.12.56v20.69c.02 1.93 6.49 4.23 11.86 3.49z" opacity=".05"/>
    <path d="m58.64 137.58-1.23-.71c-1-.58-1.27-1.36-.6-1.74a3.49 3.49 0 0 1 3 .34l1.23.71c1 .58 1.27 1.36.6 1.74a3.49 3.49 0 0 1-3-.34z" fill="#e0e0e0"/>
    <path d="M57.36 136.2a1.46 1.46 0 0 0 1.32 0 .4.4 0 0 0 0-.76 1.46 1.46 0 0 0-1.32 0 .4.4 0 0 0 0 .76zm2.43 1.32a1.46 1.46 0 0 0 1.32 0 .4.4 0 0 0 0-.76 1.46 1.46 0 0 0-1.32 0 .4.4 0 0 0 0 .76z" fill="#f5f5f5"/>
    <path d="M23.74 174.49c5.37 3.1 14.06 3.1 19.43 0s5.37-8.12 0-11.22-14.06-3.1-19.43 0-5.36 8.12 0 11.22z" opacity=".03"/>
    <path d="M46.42 168.8v-23.16H23.24v23.16c-.1 1.78 1 3.59 3.38 4.95 4.53 2.62 11.88 2.62 16.41 0 2.37-1.36 3.49-3.16 3.39-4.95z" fill="#ebebeb"/>
    <path d="M26.64 150.38c4.53 2.62 11.88 2.62 16.41 0s4.53-6.86 0-9.47-11.88-2.62-16.41 0-4.54 6.85 0 9.47z" fill="#fafafa"/>
    <path d="M27.14 150a17.37 17.37 0 0 0 15.4 0c4.25-2.4 4.25-6.3 0-8.7a17.36 17.36 0 0 0-15.4 0c-4.26 2.39-4.26 6.29 0 8.7z" fill="#ebebeb"/>
    <path d="M42.54 142.42a17.37 17.37 0 0 0-15.4 0A5.67 5.67 0 0 0 24 146.2a5.67 5.67 0 0 0 3.14 3.8 17.36 17.36 0 0 0 15.4 0 5.67 5.67 0 0 0 3.14-3.79 5.67 5.67 0 0 0-3.14-3.79z" fill="#f5f5f5"/>
    <path d="M23.24 164.89c0 1.73 1.12 3.45 3.4 4.77 4.53 2.62 11.88 2.62 16.41 0 2.27-1.31 3.4-3 3.4-4.74v-15.51c0 1.71-1.13 3.43-3.4 4.74-4.53 2.62-11.88 2.62-16.41 0-2.28-1.32-3.41-3-3.4-4.77z" fill="#e0e0e0"/>
    <path d="M39.59 175.12c-4.27 1.1-9.45.65-13-1.37-2.36-1.36-3.48-3.16-3.38-4.95v-23.16c0 1.72 1.14 3.43 3.4 4.74a9.45 9.45 0 0 0 1.12.56v20.69c.03 1.93 6.49 4.23 11.86 3.49z" opacity=".05"/>
    <path d="m37.49 149.77-1.23-.71c-1-.58-1.27-1.36-.6-1.74a3.49 3.49 0 0 1 3 .34l1.23.71c1 .58 1.27 1.36.6 1.74a3.49 3.49 0 0 1-3-.34z" fill="#e0e0e0"/>
    <path d="M36.2 148.39a1.46 1.46 0 0 0 1.32 0 .4.4 0 0 0 0-.76 1.46 1.46 0 0 0-1.32 0 .4.4 0 0 0 0 .76zm2.44 1.32a1.46 1.46 0 0 0 1.32 0 .4.4 0 0 0 0-.76 1.46 1.46 0 0 0-1.32 0 .4.4 0 0 0 0 .76z" fill="#f5f5f5"/>
    <path d="M202.67 116a12.4 12.4 0 0 1 9.84 2.24c4.57 3.55 6.22 8.28 7.51 16.71s3.21 23.38 3.21 23.38l27.7 19.67c-.92.56-6.91 7.62-7.46 10.75 0 0-21.88-8.25-31-13.23s-8.92-7.22-9.84-11-4.72-32.73-3.85-39.19 1.7-8.46 3.89-9.33zM66.12 303.49c-1-.54-3.77.91-4.64 1.7s-1.87 3.65-2 6.18c-.05 1.75.81 4.12-.61 7.6-1.94 4.76-3.9 9.2-3.3 15.06s2 7.42 3.76 9.54a10.26 10.26 0 0 0 8.45 3.57 4.69 4.69 0 0 0 3.98-2.14z" fill="#263238"/>
    <path d="m162.67 343.99 13.49 2.74 5.02-23.43-13.5-2.73z" fill="#ffa8a7"/>
    <path d="M178.56 272.38c.3 2.65-1.39 6.47-3.06 9.76-5.12 10.13-10.62 43.27-12.23 52.55a22.05 22.05 0 0 0 15.73 3.44s24.4-56.08 25.62-60.89c1.83-7.25 3.74-40.34 4.33-53 .73-15.51 2-31.23 2-31.23l-59.2-5s-3.76 14.44-6.36 23-9 33.43-12.81 40.13a18 18 0 0 1-8.08 7.2c-17 6.49-36.38 33.24-44.09 39.08 0 10.88 9 12.92 9 12.92s51.66-32.75 55.93-35.53c6.45-4.19 11.39-10.67 16.49-21.23 5.65-11.71 15.31-34 15.31-34s.44 44.04 1.42 52.8z" fill="#8646d1"/>
    <path d="M178.56 272.38c.3 2.65-1.39 6.47-3.06 9.76-5.12 10.13-10.62 43.27-12.23 52.55a22.05 22.05 0 0 0 15.73 3.44s24.4-56.08 25.62-60.89c1.83-7.25 3.74-40.34 4.33-53 .73-15.51 2-31.23 2-31.23l-59.2-5s-3.76 14.44-6.36 23-9 33.43-12.81 40.13a18 18 0 0 1-8.08 7.2c-17 6.49-36.38 33.24-44.09 39.08 0 10.88 9 12.92 9 12.92s51.66-32.75 55.93-35.53c6.45-4.19 11.39-10.67 16.49-21.23 5.65-11.71 15.31-34 15.31-34s.44 44.04 1.42 52.8z" opacity=".5"/>
    <path d="M177 219.5c0 .19.36 40.44 1.38 51.57l2.67-49.84a25.59 25.59 0 0 0 10-8.47c-7.79 5.51-14 6.73-14 6.73z" opacity=".2"/>
    <path d="M202.77 260c-2.84-.53-5.29-2.31-8.19-2.38a2.57 2.57 0 0 0-1.92.57 11.53 11.53 0 0 0-2.33 5c-.09 1.18.21 2.52-.56 3.44s-1.84.94-2.77 1.42a6.15 6.15 0 0 0-1.88 1.66c-.87 1.08-1.58 2.66-.7 3.73.72.87 2.09.87 3.22.65a6.53 6.53 0 0 1 3.41-.2c1.49.54 2.09 2.3 2 3.81s-.76 3-.93 4.48a3.94 3.94 0 0 0 .6 2.81c1.21 1.61 3.92 1.48 5.55.25s2.43-3.18 3.17-5l2.19-5.53a13.22 13.22 0 0 1 2-3.73c.34-2.83.67-6.27 1-10a20.51 20.51 0 0 0-3.86-.98zm-16.13-.35a4.07 4.07 0 0 0 2.35-4.4 7.46 7.46 0 0 0-2.87-4.43c-1.28-1.05-2.85-2-3.39-3.52a5.46 5.46 0 0 1 .62-4.11 15.85 15.85 0 0 0 1.68-3.92 3.35 3.35 0 0 0-1.54-3.68c-1.67-.79-3.63.4-4.88 1.73a16.25 16.25 0 0 0-1.25 1.52c.11 5.74.25 12 .42 17.59a13.65 13.65 0 0 1 3 1.7c1.75 1.16 3.91 2.26 5.86 1.52z" opacity=".05"/>
    <path d="M171.68 228.07c-.67-1.84-.24-3.85.23-5.74s1-3.86.51-5.75a4.71 4.71 0 0 0-4.9-3.37 4.35 4.35 0 0 0-3.2 3.14c-.48 1.47-.49 3-.82 4.55a5.23 5.23 0 0 1-1.91 3.3c-1.12.7-2.08.89-3 1.94a5 5 0 0 0-1.48 2.92 3.37 3.37 0 0 0 .89 2.52c.55.59 1.31 1 1.69 1.71.61 1.13 0 2.48-.18 3.75a6 6 0 0 0 1.43 4.6 8.13 8.13 0 0 0 5.14 2.71c2.24-4.91 4.58-10.17 6.53-14.59a9.66 9.66 0 0 1-.93-1.69z" opacity=".15"/>
    <path d="m163.32 250.21-.4-.39a9.16 9.16 0 0 0-5.69-2.49 4.56 4.56 0 0 0-1.3 0 4.31 4.31 0 0 0-1.63.8 12.27 12.27 0 0 0-2.34 2c-1.08 1.24-1.73 2.87-2.77 4.18a8 8 0 0 1-4.32 3.08c-1.2.28-2.57.18-3.55.9a2.38 2.38 0 0 0-.23 3.54c1 .92 2.77 1.11 3.16 2.37a2.74 2.74 0 0 1-.75 2.31q-.75 1-1.6 2a2.32 2.32 0 0 0-.69 1.11 1.49 1.49 0 0 0 1.06 1.49 4 4 0 0 0 2 .06 15.24 15.24 0 0 0 9.27-5.34 20.2 20.2 0 0 1 3-3.59 7 7 0 0 1 .83-.54 91.14 91.14 0 0 0 4.35-8.06c.51-1.14 1.05-2.26 1.6-3.43z" opacity=".05"/>
    <path d="M174.57 305.82c-.63-1.57.8-3.28.5-4.94a3.63 3.63 0 0 0-.8-1.58 7.15 7.15 0 0 0-3.57-2.3c-1 3.89-1.89 8.09-2.74 12.26a10.67 10.67 0 0 0 7.38 2 2.42 2.42 0 0 0 2-1.11 2.23 2.23 0 0 0-.89-2.37 6.21 6.21 0 0 1-1.88-1.96z" opacity=".15"/>
    <path d="M197.61 246.3c-1.48.92-3.18 2.18-2.95 3.85s2.45 2.51 4.24 3.06a27.62 27.62 0 0 1 6.94 3.24 10 10 0 0 0 1 .62c.65-8.37 1.22-17.66 1.62-24.94a5.34 5.34 0 0 0-2.55-.77 3.22 3.22 0 0 0-2.75 1.15 3.17 3.17 0 0 0-.49 1.95c0 1.6.75 3.16.68 4.76-.09 3.12-3 5.38-5.74 7.08zm3.11-45.48a3.05 3.05 0 0 0-.53-1.6 4.46 4.46 0 0 0-1.63-1.19 45.67 45.67 0 0 0-8.43-3.29 22.12 22.12 0 0 0-7-1c-1.75.08-4.32-.23-5.85.58a4 4 0 0 0-2.25 2.48 4.26 4.26 0 0 0 .34 2.22 13.25 13.25 0 0 1 .75 7.27c-.32 2.5-.08 4.68 2.32 6.17a6.34 6.34 0 0 0 5.34.55 10.74 10.74 0 0 0 3.26-2.08c1.74-1.48 3.44-3.12 5.65-3.84 1.62-.53 3.43-.52 5-1.24a5.28 5.28 0 0 0 3.03-5.03z" opacity=".1"/>
    <path d="M197 226.21c-1.1-.69-2.62-1-3.56-1.88s-.82-2.45-1.67-3.63a2.67 2.67 0 0 0-2.24-1.2c-1.42.09-2.28 1.57-2.55 2.91s-.25 2.8-1.07 3.92a11.78 11.78 0 0 1-2 1.73c-3 2.58.52 4 2.15 5.66 2.95 3-1.25 6.84 1.07 9.88 1.11 1.45 3.44 1.67 5.11.85a7.92 7.92 0 0 0 3.52-4.09c.73-1.66 1.17-3.43 1.94-5.07a15.87 15.87 0 0 0 1.65-3.93 5.21 5.21 0 0 0-2.35-5.15z" opacity=".15"/>
    <path d="M184 297.17c1.33-1.66 1.19-4 .66-6-.36-1.37-.86-2.8-.44-4.16.82-2.66 4.85-4 4.68-6.75-.12-1.81-2.14-3-4-3.2s-3.79.27-5.69.17a4.87 4.87 0 0 1-1.37-.29 43.2 43.2 0 0 1-2.3 5.22 59.85 59.85 0 0 0-3.55 10.12c1.74 1.42 2.6 3.67 4.31 5.14 2.11 1.84 5.91 1.94 7.7-.25z" opacity=".1"/>
    <path d="M189.37 290.38a8.63 8.63 0 0 0-2.49 6.85c.11 2.92 1.06 6.19-.76 8.54-1.06 1.37-3 2.52-2.7 4.19.26 1.27 1.75 1.88 3 2.28a23.43 23.43 0 0 0 3.32.86c3.57-8.32 7.35-17.21 10.21-24.1-3.81-1-8.37-.59-10.58 1.38z" opacity=".15"/>
    <path d="M203.9 202.41c-.79 2.14-.92 4.51-2 6.52a15.21 15.21 0 0 1-4 4.23 6.55 6.55 0 0 0-2 2.26c-.85 1.94.54 4.18 2.35 5.39s4 1.76 5.88 2.86c1.28.75 2.39 1.73 3.69 2.44a7.82 7.82 0 0 0 1 .47c0-.84.08-1.63.11-2.35.46-9.73 1.12-19.55 1.55-25.51-.26-.11-.52-.22-.79-.31-3-.95-4.91 1.59-5.79 4zm-58 6.65c1.55 1.47 3.78 2.07 5.65 3.17a10.88 10.88 0 0 1 3.81 3.75 7.07 7.07 0 0 0 1.47 2.06 3.55 3.55 0 0 0 4.66-.7 5.15 5.15 0 0 0 .71-4.79 14.56 14.56 0 0 1-.9-3c-.16-2 1.36-3.84 2.91-5.25s3.3-2.85 3.82-4.84a6 6 0 0 0-1.43-5.23 14.65 14.65 0 0 0-4.6-3.41 40.67 40.67 0 0 0-5.14-2.4l-5.17-.44s-3.24 12.46-5.79 21.08z" opacity=".05"/>
    <path d="M137.76 276.88a18.71 18.71 0 0 0-2.49-.7 2.67 2.67 0 0 1-1.9-1.55c-.26-.87.3-1.62.63-2.38a9.55 9.55 0 0 0 .86-3.18 4.23 4.23 0 0 0-1.51-3.71 4.7 4.7 0 0 0-2.37-.81 5.69 5.69 0 0 0-5.17 2.12 8.5 8.5 0 0 0-1.1 3.09 7.63 7.63 0 0 1-1.17 3.06c-.85 1.13-2.62 1.53-4.07 2.23a3.27 3.27 0 0 0-2.23 2.85c-.13 2.49 3.87 3.85 3.69 6.34a6.37 6.37 0 0 1-1.16 2.49 6.71 6.71 0 0 0-.84 3.91 5 5 0 0 0 .14.79l20.36-12.93a3.76 3.76 0 0 0-1.67-1.62z" opacity=".15"/>
    <path d="M138.7 240c.3 1.4.08 2.86.28 4.27a4 4 0 0 0 1.55 2.82 3.83 3.83 0 0 0 2.8.45 6.31 6.31 0 0 0 4.36-2.34 8.64 8.64 0 0 0 1.39-5.56 24.17 24.17 0 0 1-.35-3c.06-2.48 1.91-4.53 3.53-6.46s3.2-4.31 2.61-6.72a6.67 6.67 0 0 0-1.62-2.77 21.44 21.44 0 0 0-9.14-5.55c-1.71 6-4.13 14.78-6.5 22.36a7.25 7.25 0 0 1 1.09 2.5z" opacity=".1"/>
    <path d="M124.43 258.29a33.06 33.06 0 0 0-3.78 1.75 13 13 0 0 0 .5 2.72 2.48 2.48 0 0 0 1.39 1.82c1.1.34 2.1-.65 2.91-1.44a12.44 12.44 0 0 1 4.34-2.74c1.58-.59 3-.43 4.61-.78a6 6 0 0 0 4.52-5.74 7.91 7.91 0 0 0-3.87-6.45c-.23-.14-.46-.27-.71-.4a33.66 33.66 0 0 1-1.83 4.06 18 18 0 0 1-8.08 7.2z" opacity=".15"/>
    <path d="M98.9 278.07a3.3 3.3 0 0 0 .6.66c1 .81 2.56 1.15 3 2.35a2.74 2.74 0 0 1-.62 2.35 6.91 6.91 0 0 0-1.28 2.17c-.38 1.56.93 3.14 2.52 3.65a8.28 8.28 0 0 0 4.92-.32c2.33-.73 4.79-2.11 5.31-4.4.42-1.84-.56-3.7-1.67-5.26a4.32 4.32 0 0 1-.73-1.3 3.25 3.25 0 0 1 .48-2.36c1.09-2 2.89-3.56 4.39-5.31s2.75-3.94 2.41-6.17a3.41 3.41 0 0 0-1-2c-6.33 4.07-12.63 10.02-18.33 15.94z" opacity=".1"/>
    <path d="M158.68 121.07c-1.52 2-2.62 5.79-2.57 10.09v31.48l-6.18 28.8c8.13 9 52.21 18.28 60.29 5.23 0 0 7.24-46.81 7.22-55.91 0-6.3-1.78-20.62-12.79-24.71l-24.2-.61-6.21-.83c-6.06.22-10.93.52-15.56 6.46z" fill="#37474f"/>
    <circle cx="203.99" cy="76.36" fill="#263238" r="16.59" transform="rotate(-86.89 203.984 76.36)"/>
    <path d="M174.71 86.59s2 12.76 3 14.89a5.72 5.72 0 0 0 3.16 2.84l.29-8.88z" fill="#263238"/>
    <path d="M179.06 68.7a6.23 6.23 0 0 0-5.24 1.53c-2.33 2.14-1.48 9.28.89 16.36l5 .86z" fill="#263238"/>
    <path d="M181.25 87.53c-1 .55-2.39-1.48-3.57-2.85s-5.17-3.39-7.44.79 1.25 10.25 4.41 11.43c5.44 2 6.47-1.47 6.47-1.47l-.66 20c4.48 5.59 21.76 10.65 18.05.45l.32-6.08a21.85 21.85 0 0 0 6.27.82c4.11-.41 6.84-3 8.55-7.22 2.88-7.19 3.8-14.58 3.45-27.31-.42-15.4-18.76-16.49-28.68-11s-7.17 22.44-7.17 22.44z" fill="#ffa8a7"/>
    <path d="M181.16 89.23c-.45-.24-2.27-3.34-3.47-4.56-1.66-1.69 1.38-16 1.38-16s-1.49-3.67 2.08-7.2a15.14 15.14 0 0 1 6.54-3.86c3.55-1 7-.22 10.53.56 3.73.83 7.52 1.67 11.34 1.46a20.87 20.87 0 0 0 8.54-2.37 3.25 3.25 0 0 1 1.73-.55c1.29.11 1.52 1.59 1.39 2.62a10.39 10.39 0 0 1-2.26 5.25c.91-.14 2.13-.1 2.42.78a1.52 1.52 0 0 1 0 .81 5.19 5.19 0 0 1-1.22 2.16c-3.78 4.43-10.67 6.11-16.32 5.78-4.73-.27-9.24-2.29-14-2.48a4.94 4.94 0 0 0-1.91.21 3.75 3.75 0 0 0-1.93 1.87 9.51 9.51 0 0 0-.79 2.63c-.59 3.17-.56 6.38-1 9.56-.21 1.59-.82 4.55-3.05 3.33z" fill="#263238"/>
    <path d="m179 69.82-6-3.63a3.38 3.38 0 0 1 4.73-1.28 3.66 3.66 0 0 1 1.27 4.91z" fill="#263238"/>
    <path d="M198.82 109.81s-9-2.33-12.08-4.19a10.49 10.49 0 0 1-4.16-4.59 14.34 14.34 0 0 0 2.22 5.26c2.16 3.1 13.89 5.93 13.89 5.93z" fill="#f28f8f"/>
    <ellipse cx="198.92" cy="86.02" fill="#263238" rx="1.9" ry="1.83" transform="rotate(-86.73 198.924 86.017)"/>
    <path d="m199.25 79.81-4 1.94a2.34 2.34 0 0 1 1.08-3.05 2.18 2.18 0 0 1 2.92 1.11z" fill="#263238"/>
    <path d="m198.61 98.82 5 2.21a2.7 2.7 0 0 1-3.58 1.51 2.88 2.88 0 0 1-1.42-3.72z" fill="#f28f8f"/>
    <path d="M214.83 82.93 211.42 80a2.16 2.16 0 0 1 3.12-.31 2.36 2.36 0 0 1 .29 3.24z" fill="#263238"/>
    <ellipse cx="212.51" cy="86.59" fill="#263238" rx="1.9" ry="1.83" transform="rotate(-86.73 212.503 86.592)"/>
    <path d="m206.06 84.74-1.59 10.95 6.69-.36z" fill="#f28f8f"/>
    <path d="M157.46 353.61c-.72.37-.84 1.23-.67 2.88s2.06 4.53 5.87 5.75 8.15.9 10 1.76c2.72 1.26 4.58 3.72 10.33 6.6a23.52 23.52 0 0 0 14.22 2.32c4.64-.57 5.88-2.9 5.88-2.9s1.31-3.21.33-4-45.96-12.41-45.96-12.41z" fill="#263238"/>
    <path d="M168 309.12c-3.23-.16-2.41 1.88-3.14 8.42-.77 6.89-1.15 15-3.3 21.5s-4.09 10.81-4.09 15.35a11.74 11.74 0 0 0 6.25 5c4.33 1.43 7.5 1.1 10.12 2.23 4.25 1.82 6.57 5.79 14.11 7.33 8.16 1.67 12.35-.21 15.49-1.94 0 0 1.05-5-1.64-7.34-6.36-3.24-16.61-10.75-18.88-14.69s.91-9.73 3.76-18.69c2.61-8.21 4.73-9.79 2.15-10.9l-.87 2s-2.3.46-10.38-1.91-10-4.2-10-4.2zM95.2 282s-1.64-2.1-3.81.18-9.86 12.22-14.73 15.18-5.71 4-11.19 6.42a10.23 10.23 0 0 0-3 8.6c.59 4.11-.64 7.87-2.56 12-2.17 4.66-1.78 11.2 1.17 16.47a15.17 15.17 0 0 0 7 6.29c4.36 0 8.55-.4 8.48-7.77a46.74 46.74 0 0 1 2.8-17.7c2.5-7.34 6.06-7.38 14.06-12.61s15.81-8 14.6-10.67l-1.73 1.1s-5.67-2-11.15-9c-2.89-3.74-2.09-6.23-2.09-6.23z" fill="#37474f"/>
    <path d="M289.52 430.88A16.39 16.39 0 0 0 282.1 418c-2.15-1.24-4.08-1.29-5.43-.38l-5 2.85 10.63 18.07 5-2.85c1.35-.69 2.22-2.4 2.22-4.81z" fill="#455a64"/>
    <path d="M276.91 421a16.39 16.39 0 0 1 7.41 12.84c0 4.73-3.32 6.64-7.41 4.28a16.39 16.39 0 0 1-7.41-12.84c0-4.7 3.32-6.62 7.41-4.28z" fill="#37474f"/>
    <path d="M274.4 428.14c0-1.85 1.12-2.7 2.51-1.9a6 6 0 0 1 2.51 4.8c0 1.85-1.12 2.7-2.51 1.9a6 6 0 0 1-2.51-4.8z" fill="#455a64"/>
    <path d="M285.6 413.14s0 8.46-4 11.45c-.76.56-1.57 1-2 1.35-1 .86-.35 2.43.9 3.1 1.82 1 11.72-1.66 15.91-9.71z" fill="#37474f"/>
    <path d="M281.76 415.34s0 8.46-4 11.45c-.76.56-1.57 1-2 1.35-1 .86-.35 2.43.9 3.1 1.82 1 11.72-1.66 15.91-9.71z" fill="#263238"/>
    <path d="M276.91 428.77a1.57 1.57 0 0 1 .71 1.23c0 .45-.32.64-.71.41a1.57 1.57 0 0 1-.71-1.23c0-.46.32-.64.71-.41z" fill="#263238"/>
    <path d="M346.2 398.16a16.39 16.39 0 0 0-7.41-12.84c-2.15-1.24-4.08-1.29-5.43-.38l-5 2.85L339 405.85l5-2.85c1.33-.76 2.2-2.43 2.2-4.84z" fill="#455a64"/>
    <path d="M333.6 388.31a16.39 16.39 0 0 1 7.4 12.84c0 4.73-3.32 6.65-7.41 4.28a16.39 16.39 0 0 1-7.41-12.84c0-4.73 3.32-6.65 7.42-4.28z" fill="#37474f"/>
    <path d="M331.09 395.42c0-1.85 1.12-2.7 2.51-1.9a6 6 0 0 1 2.51 4.8c0 1.85-1.12 2.7-2.51 1.9a6 6 0 0 1-2.51-4.8z" fill="#455a64"/>
    <path d="M342.29 380.42s0 8.46-4 11.45c-.76.56-1.57 1-2 1.35-1 .86-.35 2.43.9 3.1 1.82 1 11.72-1.66 15.91-9.71z" fill="#37474f"/>
    <path d="M338.44 382.62s0 8.46-4 11.45c-.76.56-1.57 1-2 1.35-1 .86-.35 2.43.9 3.1 1.82 1 11.72-1.66 15.91-9.71z" fill="#263238"/>
    <path d="M333.6 396a1.57 1.57 0 0 1 .71 1.23c0 .45-.32.64-.71.41a1.57 1.57 0 0 1-.71-1.23c-.01-.41.31-.59.71-.41z" fill="#263238"/>
    <path d="M239 402a16.39 16.39 0 0 0-7.41-12.84c-2.15-1.24-4.08-1.29-5.43-.38l-5 2.85 10.63 18.07 5-2.85c1.35-.73 2.21-2.39 2.21-4.85z" fill="#455a64"/>
    <path d="M226.41 392.19a16.39 16.39 0 0 1 7.41 12.81c0 4.73-3.32 6.65-7.41 4.28a16.39 16.39 0 0 1-7.41-12.81c0-4.73 3.31-6.64 7.41-4.28z" fill="#37474f"/>
    <path d="M223.9 399.3c0-1.85 1.12-2.7 2.51-1.9a6 6 0 0 1 2.51 4.8c0 1.85-1.12 2.7-2.51 1.9a6 6 0 0 1-2.51-4.8z" fill="#455a64"/>
    <path d="M235.1 384.3s0 8.46-4 11.45c-.76.56-1.57 1-2 1.35-1 .86-.35 2.43.9 3.1 1.82 1 11.72-1.66 15.91-9.71z" fill="#37474f"/>
    <path d="M231.26 386.51s0 8.46-4 11.45c-.76.56-1.57 1-2 1.35-1 .86-.35 2.43.9 3.1 1.82 1 11.72-1.66 15.91-9.71z" fill="#263238"/>
    <path d="M226.41 399.93a1.57 1.57 0 0 1 .71 1.23c0 .45-.32.64-.71.41a1.57 1.57 0 0 1-.71-1.23c0-.45.3-.63.71-.41z" fill="#263238"/>
    <path d="M295.7 369.32a16.39 16.39 0 0 0-7.41-12.84c-2.15-1.24-4.08-1.29-5.43-.38l-5 2.85L288.49 377l5-2.85c1.34-.75 2.21-2.42 2.21-4.83z" fill="#455a64"/>
    <path d="M283.09 359.47a16.39 16.39 0 0 1 7.41 12.84c0 4.73-3.32 6.64-7.41 4.28a16.39 16.39 0 0 1-7.41-12.84c0-4.75 3.32-6.64 7.41-4.28z" fill="#37474f"/>
    <path d="M280.58 366.58c0-1.85 1.12-2.7 2.51-1.9a6 6 0 0 1 2.51 4.8c0 1.85-1.12 2.7-2.51 1.9a6 6 0 0 1-2.51-4.8z" fill="#455a64"/>
    <path d="M291.78 351.58s0 8.46-4 11.45c-.76.56-1.57 1-2 1.35-1 .86-.35 2.43.9 3.1 1.82 1 11.72-1.66 15.91-9.71z" fill="#e0e0e0"/>
    <path d="M287.94 353.79s0 8.46-4 11.45c-.76.56-1.57 1-2 1.35-1 .86-.35 2.43.9 3.1 1.82 1 11.72-1.66 15.91-9.71z" fill="#263238"/>
    <path d="M283.09 367.21a1.57 1.57 0 0 1 .71 1.23c0 .45-.32.64-.71.41a1.57 1.57 0 0 1-.71-1.23c0-.45.32-.62.71-.41z" fill="#263238"/>
    <path d="M308.22 428a15.88 15.88 0 0 1-7.75-1.84L228.2 384.8c-4.07-2.34-8.46-8.09-8.46-13.29v-69.74h3.87v69.73c0 3.54 3.44 8.16 6.52 9.93l72.27 41.36a13.33 13.33 0 0 0 11.68 0l43.12-24.94c1.15-.66 1.83-1.5 1.83-2.23s-.65-1.51-1.79-2.17l-72.5-41.32c-4.06-2.34-8.44-8.09-8.44-13.3v-50.24h3.87v50.22c0 3.55 3.43 8.17 6.49 9.94l72.5 41.32c2.41 1.39 3.73 3.35 3.74 5.52s-1.37 4.2-3.76 5.59L316 426.11a15.91 15.91 0 0 1-7.78 1.89z" fill="#37474f"/>
    <path d="m276.82 293.59-59.31 34.24 96.39 55.66 59.31-34.24z" fill="#52446e"/>
    <path d="m276.82 293.59-59.31 34.24 96.39 55.66 59.31-34.24z" opacity=".1"/>
    <path d="M212.28 230.89a12.89 12.89 0 0 1 5.72-13.43l43.58-25.35c4.35-2.51 8.82-.34 10 4.53l5.22 21.11-5.14 3-5.11-19.75a3.49 3.49 0 0 0-5.41-2.24l-39 22.84a8.47 8.47 0 0 0-3.73 8.66l4.32 18.74-5.23 3z" fill="#37474f"/>
    <path d="M272.8 199c-1.29 2.79-8 5.76-11.08 6.18-3.28.44-7-2.57-7-2.57l2.6-1.52a3.7 3.7 0 0 0-2.1-5.29l-2.5 1.44c-2-1.59-2.37-4.41-5.3-6.34a36 36 0 0 0-3.94-2.1c.28-3.17 5.78-10.11 7.35-10.82 1.81 1.19 4 2.57 5.19 3.25 0 0 14.68 3.55 17 8.47.73 1.59.35 8.01-.22 9.3z" fill="#ffa8a7"/>
    <path d="m217.51 251.99 59.31-34.24v75.84l-59.31 34.24z" fill="#664c8c"/>
    <path d="m217.51 251.99 59.31-34.24v75.84l-59.31 34.24z" fill="#664c8c" opacity=".2"/>
    <path d="M276.82 217.75v75.84l96.39 55.65 22.24-63zm31.54 76.19c-2.55.82-5.37-.85-6.3-3.73l-12.76-39.66c-.93-2.88.39-5.88 2.94-6.7s5.37.85 6.3 3.73l12.76 39.66c.93 2.88-.39 5.88-2.94 6.7zm27.51 14.89c-2.55.82-5.37-.85-6.3-3.73l-12.76-39.66c-.93-2.88.39-5.88 2.94-6.7s5.37.85 6.3 3.73l12.76 39.66c.92 2.87-.39 5.87-2.94 6.7zm27.51 14.89c-2.55.82-5.37-.85-6.3-3.73l-12.76-39.66c-.93-2.88.39-5.88 2.94-6.7s5.37.85 6.3 3.73L366.31 317c.93 2.9-.39 5.89-2.94 6.72z" fill="#7352a2"/>
    <path d="M276.82 217.75v75.84l96.39 55.65 22.24-63zm31.54 76.19c-2.55.82-5.37-.85-6.3-3.73l-12.76-39.66c-.93-2.88.39-5.88 2.94-6.7s5.37.85 6.3 3.73l12.76 39.66c.93 2.88-.39 5.88-2.94 6.7zm27.51 14.89c-2.55.82-5.37-.85-6.3-3.73l-12.76-39.66c-.93-2.88.39-5.88 2.94-6.7s5.37.85 6.3 3.73l12.76 39.66c.92 2.87-.39 5.87-2.94 6.7zm27.51 14.89c-2.55.82-5.37-.85-6.3-3.73l-12.76-39.66c-.93-2.88.39-5.88 2.94-6.7s5.37.85 6.3 3.73L366.31 317c.93 2.9-.39 5.89-2.94 6.72z" fill="#7352a2" opacity=".55"/>
    <path d="M434.56 208.72c-1-2.34-5.22.1-9.62 2.72-4.05 2.41-11.9 7-12.56 6.23s-.49-4.35-1.7-6.57-4-2.69-3.81-.64c.11 1.17-.28 5.14-.37 6.95s-.33 4.26-2 5.48-35.61 9.45-35.61 9.45-28.1-13.6-33.88-16.75-10.42-6.26-18.49-5.16c-10.33 4.72-5.9 14.22-.79 20.11 2.8 3.23 4.2 1 13.82 4.1 11.64 3.8 29.69 14.53 39.35 15.14 10.62-2 38.19-12.3 40.91-13 3.27-.82 5.42-.36 8.05-1 3.16-.83 5.89-1.38 8.64-3.36a3.35 3.35 0 0 0 1.61-2.28c0-.49-.11-1-.08-1.47a17.56 17.56 0 0 0 .41-2.41c-.1-1-1.34-1.94-1.37-3 0-.46.57-1.76.39-2.19-.37-.91-.82-1.12-1.27-1.79-.24-.36-.93-1-.54-1.45s1.85-1.25 4.75-3.64 4.85-3.87 4.16-5.47z" fill="#9a4a4d"/>
    <path d="M340.66 346.23c-13.54 10.54-37.39 6.06-49.57-2.13-11-7.36-23.73-24.12-23.73-24.12s-.94-8.93 3.65-10.24z" fill="#8646d1"/>
    <path d="M340.66 346.23c-13.54 10.54-37.39 6.06-49.57-2.13-11-7.36-23.73-24.12-23.73-24.12s-.94-8.93 3.65-10.24z" opacity=".5"/>
    <path d="M268.47 311.75a8.47 8.47 0 0 0-1 3.66 80 80 0 0 0 17 14.39c15.55 10 26.36 10.88 26.36 10.88a128.72 128.72 0 0 1-25.4-13.38c-9.67-6.58-14.24-11.05-16.96-15.55z" opacity=".2"/>
    <path d="M254.31 329.57c-2.77.82-7.89-.06-11.62-3.77s-5.24-9.73-1.87-14.79 6.93-7.35 8.85-10.48 2.88-8.1 5.06-10.72a9.2 9.2 0 0 1 7-3.2 5.57 5.57 0 0 1 4.45 2.06l1 1.26z" fill="#263238"/>
    <path d="M282 337.22s-11.58-12.4-16.76-17.71-7.71-6.45-6.45-12.51S269 296.38 269 296.38l11.1 12.89 12.59 15.6c-4.57.83-10.5 6.44-10.69 12.35z" fill="#37474f"/>
    <path d="m265.27 319.51-6 .1s.65 7-1.29 8.57c-2.88 2.27-5.32 1.8-10.15-1.8-5.52-4.12-7.07-9.23-5.2-13.48 2.67-6.06 10.1-8.67 11.59-14.88s7.19-13.41 14-7.29c4.85 4.22 7 18 7 18z" fill="#37474f"/>
    <path d="M263.11 302.6h-.73c-6.18-.57-8.73-3.58-8.83-3.71l1-.82-.5.41.5-.41s2.35 2.72 8 3.24 12.18-6.38 12.25-6.45l.94.89c-.33.25-6.61 6.85-12.63 6.85zM248 318.43c-1.86.05-4.55-.23-5.82 1.66 1.43 2.55 2.15 4.22 5.18 6.49 4.83 3.6 7.72 3.88 10.6 1.61 1.95-1.53 1.29-8.57 1.29-8.57-4.79.27-8.3-1.27-11.25-1.19z" fill="#263238"/>
    <path d="M263 319.65c-1.26-.62-2.71-.63-4-1.37a5 5 0 0 1-1.62-1.39c-.27-.35-.46-.68-.93-.71-.24 0-.59.1-.54.4.45 3 4.57 4.15 7 3.41a.18.18 0 0 0 .09-.34zm4-2.85c.3-.39.62-.6.78-1.07 0-.1-.06-.22-.15-.25-1.41-.53-2.46 2-2.37 3.88-.25-.16-.53-.3-.75-.44a6.61 6.61 0 0 1-1.48-1.23 5.17 5.17 0 0 1-1-1.54c-.14-.46 0-1.07-.24-1.47a.48.48 0 0 0-.7 0c-1 1.22.21 3 1.08 3.94.69.74 2.1 1.69 3.2 1.43a1.54 1.54 0 0 0 1.29 1.35c.14 0 .35-.06.26-.23a6 6 0 0 1-.4-2.79 2.67 2.67 0 0 1 .48-1.58zm2.64 1.09c.11-.14 0-.28-.16-.33-1.19-.42-1.94 1.64-2.12 2.42-.24 1-.28 3.63 1.25 3.57.1 0 .34-.07.31-.22a9.25 9.25 0 0 1-.45-3.13 5.23 5.23 0 0 1 1.17-2.31zm2.59 2.59c.11-.14 0-.28-.16-.33-1.19-.42-1.94 1.64-2.12 2.42-.24 1-.28 3.63 1.25 3.57.1 0 .34-.07.31-.22a9.25 9.25 0 0 1-.45-3.13 5.23 5.23 0 0 1 1.17-2.31zm2.59 2.58c.11-.14 0-.28-.16-.33-1.19-.42-1.94 1.64-2.12 2.42-.24 1-.28 3.63 1.25 3.57.1 0 .34-.07.31-.22a9.26 9.26 0 0 1-.45-3.13 5.23 5.23 0 0 1 1.17-2.31zm2.58 2.59c.11-.14 0-.28-.16-.33-1.19-.42-1.94 1.64-2.12 2.42-.24 1-.28 3.63 1.25 3.57.1 0 .34-.07.31-.22a9.25 9.25 0 0 1-.45-3.13 5.22 5.22 0 0 1 1.17-2.31zm2.6 2.59c.11-.14 0-.28-.16-.33-1.19-.42-1.94 1.64-2.12 2.42-.24 1-.28 3.63 1.25 3.57.1 0 .34-.07.31-.22a9.25 9.25 0 0 1-.45-3.13 5.22 5.22 0 0 1 1.17-2.31z" fill="#263238"/>
    <path d="M364.92 320.93c-1.06-4.66-10-15.08-18.77-22.4s-22.65-19.58-22.65-19.58l-55.93 3.34c-3.4 5-4.57 14.69-2.65 20.92 2.61 8.44 5.08 13.59 20.51 24.09a128.72 128.72 0 0 0 25.4 13.38c7.36 2.88 11.8 7.47 13.48 7.82 4.18.87 9 1.11 13.05-.35 5.35-1.94 7.35-6.92 5.83-12.22 1 .1 2.08.15 3 .16h3a24.89 24.89 0 0 0 8.66-1.32c6.15-2.25 8.62-7.11 7.07-13.84z" fill="#8646d1"/>
    <path d="M364.92 320.93c-1.06-4.66-10-15.08-18.77-22.4s-22.65-19.58-22.65-19.58l-55.93 3.34c-3.4 5-4.57 14.69-2.65 20.92 2.61 8.44 5.08 13.59 20.51 24.09a128.72 128.72 0 0 0 25.4 13.38c7.36 2.88 11.8 7.47 13.48 7.82 4.18.87 9 1.11 13.05-.35 5.35-1.94 7.35-6.92 5.83-12.22 1 .1 2.08.15 3 .16h3a24.89 24.89 0 0 0 8.66-1.32c6.15-2.25 8.62-7.11 7.07-13.84z" opacity=".5"/>
    <path d="M330.74 289.63c-1.69 2.05-2.62 3.16-5.35 3.92-2.13.59-4.9.65-5.75 2.69-.91 2.21 1.51 4.37 3.76 5.14s5 1.25 6.11 3.35a17.08 17.08 0 0 1 .84 2.46 6.55 6.55 0 0 0 11.46 1.65 24.12 24.12 0 0 1 1.74-2.57c2.12-2.23 5.82-1.55 8.67-.39a14.71 14.71 0 0 0 2.52.81 106 106 0 0 0-8.62-8.15c-3.73-3.14-8.42-7.17-12.56-10.77a5.68 5.68 0 0 0-2.82 1.86z" opacity=".05"/>
    <path d="M287.4 307.88c.1 3.69 3.55 6.68 7.2 7.23s7.34-.84 10.5-2.76a11.11 11.11 0 0 0 3.35-2.84 4.88 4.88 0 0 0 .88-4.17 6 6 0 0 0-2.68-3.09 14.91 14.91 0 0 0-5.95-2.25 38.17 38.17 0 0 1-4.13-.56c-3.86-1-7-2.88-11.07-3.31-2.6-.28-8 1-5.39 5.06 1.64 2.51 6.44 2 7.19 4.87a8 8 0 0 1 .1 1.82z" opacity=".15"/>
    <path d="M300.53 331.88c.49 1.41 2.31 1.73 3.8 1.77 5.06.13 12.4-2.57 16 2.43.87 1.2 1.4 2.81 2.77 3.38a3.15 3.15 0 0 0 3.29-.82 6.67 6.67 0 0 0 1.61-3.16 11.66 11.66 0 0 0-.24-7.19 7.66 7.66 0 0 0-5.21-4.72c-1.46-.33-3.13-.19-4.29-1.14-2.67-2.19.22-5.53-3-7.32-4.07-2.26-15.06.26-14.15 6.36a5.64 5.64 0 0 0 .25 1c.4 1.15 1.33 2.14 1.35 3.35.06 2.24-2.91 3.98-2.18 6.06zm40.19 5.82c-1.86-.52-6.26.09-7.59 1.56s-.95 3.56-1.68 5.27a6.11 6.11 0 0 1-4 3.24 15.87 15.87 0 0 1-5.25.41c-1.35-.06-2.88-.08-3.82.88a3 3 0 0 0-.38 3.27c7.6.3 15.14-1.1 21-5a8.92 8.92 0 0 0 4.58-7.65 5.59 5.59 0 0 0-2.86-1.98zm-67.17-27.14c2.59-1.72 2.68-5.46 2.13-8.52s-1.4-6.42.15-9.11c1.41-2.45 4.66-4 4.84-6.79.12-1.83-1.18-3.41-2.69-4.52l-11 .66c-3.4 5-4.57 14.69-2.65 20.92a40.34 40.34 0 0 0 2.94 7.46c.26.1.53.21.8.3a6.55 6.55 0 0 0 5.48-.4z" opacity=".05"/>
    <path d="M319.81 280.81a32.1 32.1 0 0 0-18.31 2.36c-1.32.59-2.94.34-3.81 1.67-4.37 6.63 6.13 11.8 11.28 11.59a5.88 5.88 0 0 0 2.72-.65c2.13-1.23 2.79-4.39 5.13-5.14 1.47-.47 3.13.2 4.58-.31 1.62-.58 2.41-2.42 2.69-4.12a4.9 4.9 0 0 0-.46-3.5c-.8-1.22-2.37-1.66-3.82-1.9z" opacity=".1"/>
    <path d="M364.43 321.62c0-.23-.08-.46-.14-.69-.57-2.49-3.4-6.62-7.24-11a7.32 7.32 0 0 1-3.11 1.05 8.38 8.38 0 0 0-4 .69 3.52 3.52 0 0 0-1 4.93c1.43 1.88 4.74 2.26 5.13 4.59.12.7-.09 1.43 0 2.13a3.23 3.23 0 0 0 1.23 1.82 5.27 5.27 0 0 0 6.07.41 10.41 10.41 0 0 0 3.06-3.93zm-71.55 12.29a6.5 6.5 0 0 0 3.4-1.12c2.15-1.61 2.32-4.94 1.1-7.33a4.87 4.87 0 0 0-2.81-2.62c-1.27-.36-2.65.05-3.95-.21a3.89 3.89 0 0 1-2.85-2.52c-.36-1.08-.24-2.28-.66-3.34a5 5 0 0 0-3.23-2.64c-2.56-.82-6.23-.71-8.29 1.11-1.63 1.44-2.79 3.68-2.23 5.78a8.51 8.51 0 0 0 2.73 3.72c4.83 4.54 9.33 9.88 16.79 9.17zm66.12.45a6 6 0 0 0-.09-.66c-.62-3.15-3.58-5.26-6.49-6.6-2.19-1-4.85-2.19-5.17-4.58-.08-.64 0-1.3-.09-1.94a4.36 4.36 0 0 0-2.86-2.95c-2.94-1.2-7.14-1.3-8.23 2-1.81 5.54 3.08 7.62 5 11.73.52 1.12.95 2.28 1.5 3.37.21.41.43.8.68 1.19 1 .1 2.08.15 3 .16h3a24.89 24.89 0 0 0 8.66-1.32c.35-.1.71-.25 1.09-.4zm-68.53 9.74a51.61 51.61 0 0 0 17.94 7.14c1.85-.58 3.79-1.28 5-2.83s1.06-4.24-.72-5.08c-2-.93-4 .87-6.11 1.5a5.91 5.91 0 0 1-5.48-1.14 23.91 23.91 0 0 1-2.26-2.61c-2.23-2.56-12.46-6.14-14.47-1.83a58.21 58.21 0 0 0 6.1 4.85z" opacity=".05"/>
    <path d="M346.25 336.09c-1 0-2-.07-3-.16-5.48-11.7-30.66-31.39-32.24-32.74l-.08-.08c.05-.08.12-.12.19-.19l1.16-1.65a44.44 44.44 0 0 1 4-6.69 44.15 44.15 0 0 1-2.66 7.77c3.7 3.31 17.59 15 21.73 19 4.28 4.1 8.79 8.89 10.9 14.74z" opacity=".2"/>
    <path d="M316.51 210.43a33.87 33.87 0 0 1 11 14c3.81 8.33 3.6 15.33-3.56 24.79 0 2.24-3.72 15-3.72 15s3.31 13.65 3.25 14.73c0 0-3.86 11.24-23.44 12.83-18.57 1.51-26.9-2-33.72-7.81 4.09-11.65 12.53-23.72 12.53-23.72-.65-12.72-4.85-29.13-3.64-33.78 1.51-5.77 11.16-12.07 13.54-12.29l16.54-2.95z" fill="#37474f"/>
    <g fill="#263238">
        <path d="M275.57 280.64c-1.25-5.6 5.13-16.62 5.13-16.62l5.71 5.1c-3.06-6.58-4-14.08-3.32-22.34 0 0 28.9 9 39.25 9.86a50.85 50.85 0 0 0 1.62-7.44l.26-.36-6.48-5.8-27.81-16.9-13-3.1a10.63 10.63 0 0 0-1.73 3.42c-1.22 4.65 3 21.07 3.64 33.78 0 0-8.44 12.07-12.53 23.72 6.83 5.84 15.15 9.32 33.72 7.81-.03.01-23.21-5.53-24.46-11.13zM310.7 205l-2.18.13a25 25 0 0 1-26.38-23.42 25 25 0 0 1 23.48-26.39l2.18-.12a25 25 0 0 1 26.33 23.48A25 25 0 0 1 310.7 205z"/>
        <path d="M268.44 217.6A17.65 17.65 0 0 0 285 199l-1.52-26.55a17.65 17.65 0 0 0-16.61 18.63z"/>
        <path d="M285 171.91a3.94 3.94 0 0 1-5.49-5.65z"/>
    </g>
    <path d="M322.68 166.94c2.73 1.82 9.15 9.29 8 24.13-1 12.58-5.24 15.47-7.34 16.26s-6 0-9.84-.83l-.31 5.72s3.09 3.28 3.31 5.38c.36 3.47-5.92 3.79-10.93 1.76a18.83 18.83 0 0 1-8.29-6.55l.93-17.33s-3.6 2.35-6.63.1c-4.1-3-4.17-8.44-1.57-10.81s7.88-1.29 8.68 2.23c0 0 5.15 1.61 13.57-2.43s9.61-12.78 10.42-17.63z" fill="#b16668"/>
    <path d="m314.19 182.13-3.4 1.86a2 2 0 0 1 .8-2.7 1.89 1.89 0 0 1 2.6.84z" fill="#263238"/>
    <path d="m316.62 197.84 3.62 1.38a1.9 1.9 0 0 1-2.47 1.19 2 2 0 0 1-1.15-2.57z" fill="#9a4a4d"/>
    <ellipse cx="327.52" cy="186.65" fill="#263238" rx="1.65" ry="1.59" transform="rotate(-89.58 327.521 186.646)"/>
    <ellipse cx="314.97" cy="187.37" fill="#263238" rx="1.65" ry="1.59" transform="rotate(-89.58 314.963 187.37)"/>
    <path d="m321.68 185.34-.27 9.56 5.1-1.28zM313.51 206.5c-3.19-.54-9.5-2.84-10.8-5.07 0 0 0 1.48 2 3.59s8.7 3.94 8.7 3.94z" fill="#9a4a4d"/>
    <path d="M320.74 165.74s2.27 9.84-1.58 18.71c0 0 12.12 1.42 13.29-7.73 0 0-.18-7.6-5.3-12.38z" fill="#263238"/>
    <path d="M288.75 214.17c-8.92 1.24-14.51 6.41-14.28 13.5s8 11.33 16.11 15.35c10.55 5.23 32.22 12.63 38.14 12.94s30.18-34.83 30.18-34.83L345.77 216l-19.84 21.17-26.28-11.86s-5.05-7.72-10.9-11.14z" fill="#b16668"/>
    <path d="M365.75 187.45a3.41 3.41 0 0 0-3.44.34 10.77 10.77 0 0 0-4.87 8.44 3.45 3.45 0 0 0 1.38 3.12c.29.18 2.2 1.21 2.48 1.37a3.41 3.41 0 0 0 3.45-.33 10.77 10.77 0 0 0 4.87-8.44 3.43 3.43 0 0 0-1.4-3.13c-.29-.18-2.22-1.22-2.47-1.37z" fill="#455a64"/>
    <path d="M359.86 197.56c0 3.11 2.18 4.37 4.87 2.81a10.77 10.77 0 0 0 4.87-8.44c0-3.11-2.18-4.37-4.87-2.81a10.77 10.77 0 0 0-4.87 8.44z" fill="#37474f"/>
    <path d="m395.56 200-28.08-10.21a1.34 1.34 0 0 0-.57-.12 3.29 3.29 0 0 0-1.58.51 9.61 9.61 0 0 0-4.27 7.4c0 .57.1 1.78.93 2.16l25.1 15z" fill="#8646d1"/>
    <path d="m395.56 200-28.08-10.21a1.34 1.34 0 0 0-.57-.12 3.29 3.29 0 0 0-1.58.51 9.61 9.61 0 0 0-4.27 7.4c0 .57.1 1.78.93 2.16l25.1 15z" opacity=".5"/>
    <path d="M393 196.51c-1.32-.77-3.14-.66-5.15.5a16.13 16.13 0 0 0-7.3 12.64c0 2.28.79 3.89 2.06 4.67.43.26 3.3 1.81 3.71 2 1.32.77 3.14.67 5.16-.5a16.13 16.13 0 0 0 7.3-12.64c0-2.3-.8-3.91-2.09-4.68-.42-.2-3.27-1.75-3.69-1.99z" fill="#455a64"/>
    <path d="M384.19 211.66c0 4.65 3.27 6.54 7.3 4.21a16.13 16.13 0 0 0 7.3-12.64c0-4.65-3.27-6.54-7.3-4.21a16.13 16.13 0 0 0-7.3 12.64z" fill="#37474f"/>
    <path d="M388.23 215.07c-2 0-2.24-2.39-2.24-3.41a14.38 14.38 0 0 1 6.4-11.08 4.92 4.92 0 0 1 2.36-.76c2 0 2.24 2.39 2.24 3.41a14.38 14.38 0 0 1-6.4 11.08 4.92 4.92 0 0 1-2.36.76z" fill="#263238"/>
    <path d="M394.59 200.84a7 7 0 0 0-.07-1 5.16 5.16 0 0 0-2.14.74 14.38 14.38 0 0 0-6.4 11.08 7 7 0 0 0 .07 1 5.16 5.16 0 0 0 2.14-.74 14.38 14.38 0 0 0 6.4-11.08z" fill="#8646d1"/>
    <path d="M394.59 200.84a7 7 0 0 0-.07-1 5.16 5.16 0 0 0-2.14.74 14.38 14.38 0 0 0-6.4 11.08 7 7 0 0 0 .07 1 5.16 5.16 0 0 0 2.14-.74 14.38 14.38 0 0 0 6.4-11.08z" opacity=".3"/>
    <path d="M390.51 202.83c1.37-1.66 3.13-2.21 3.41-1.6s-.58 6.59-6.36 10.11a20.33 20.33 0 0 0 4.64-6.1c.88-1.99.07-3.62-1.69-2.41z" fill="#e0e0e0"/>
    <path d="M353.59 194.47a3.41 3.41 0 0 0-3.44.34 10.77 10.77 0 0 0-4.87 8.44 3.45 3.45 0 0 0 1.38 3.12c.29.18 2.2 1.21 2.48 1.37a3.41 3.41 0 0 0 3.45-.33 10.77 10.77 0 0 0 4.87-8.44 3.43 3.43 0 0 0-1.4-3.13c-.29-.18-2.19-1.22-2.47-1.37z" fill="#455a64"/>
    <path d="M347.7 204.58c0 3.11 2.18 4.37 4.87 2.81a10.77 10.77 0 0 0 4.87-8.44c0-3.11-2.18-4.37-4.87-2.81a10.77 10.77 0 0 0-4.87 8.44z" fill="#37474f"/>
    <path d="m378.53 209.81-23.1-13h-.08a1.33 1.33 0 0 0-.57-.12 3.29 3.29 0 0 0-1.58.51 9.61 9.61 0 0 0-4.27 7.4 2.69 2.69 0 0 0 .69 2l20.46 18z" fill="#8646d1" opacity=".5"/>
    <path d="m378.53 209.81-23.1-13h-.08a1.33 1.33 0 0 0-.57-.12 3.29 3.29 0 0 0-1.58.51 9.61 9.61 0 0 0-4.27 7.4 2.69 2.69 0 0 0 .69 2l20.46 18z" opacity=".5"/>
    <path d="M378.24 209.37a4.37 4.37 0 0 1-.92-2.94 11.37 11.37 0 0 1 2-6L369.6 206a4.29 4.29 0 0 1 1.44-.44l7.49 4.2z" fill="#263238"/>
    <path d="M376 206.34c-1.32-.77-3.14-.66-5.15.5a16.13 16.13 0 0 0-7.3 12.64c0 2.28.79 3.89 2.06 4.67.43.26 3.3 1.81 3.71 2 1.32.77 3.14.67 5.16-.5a16.13 16.13 0 0 0 7.3-12.64c0-2.3-.8-3.91-2.09-4.68-.45-.21-3.3-1.75-3.69-1.99z" fill="#455a64"/>
    <path d="M367.16 221.48c0 4.65 3.27 6.54 7.3 4.21a16.13 16.13 0 0 0 7.3-12.64c0-4.65-3.27-6.54-7.3-4.21a16.13 16.13 0 0 0-7.3 12.64z" fill="#37474f"/>
    <path d="M371.2 224.9c-2 0-2.24-2.39-2.24-3.41a14.38 14.38 0 0 1 6.4-11.08 4.92 4.92 0 0 1 2.36-.76c2 0 2.24 2.39 2.24 3.41a14.38 14.38 0 0 1-6.4 11.08 4.92 4.92 0 0 1-2.36.76z" fill="#263238"/>
    <path d="M377.56 210.67a7 7 0 0 0-.07-1 5.16 5.16 0 0 0-2.14.74 14.38 14.38 0 0 0-6.4 11.08 7 7 0 0 0 .07 1 5.16 5.16 0 0 0 2.14-.74 14.38 14.38 0 0 0 6.4-11.08z" fill="#8646d1"/>
    <path d="M377.56 210.67a7 7 0 0 0-.07-1 5.16 5.16 0 0 0-2.14.74 14.38 14.38 0 0 0-6.4 11.08 7 7 0 0 0 .07 1 5.16 5.16 0 0 0 2.14-.74 14.38 14.38 0 0 0 6.4-11.08z" opacity=".3"/>
    <path d="M373.48 212.66c1.37-1.66 3.13-2.21 3.41-1.6s-.58 6.59-6.36 10.11a20.33 20.33 0 0 0 4.64-6.1c.89-1.99.07-3.62-1.69-2.41z" fill="#e0e0e0"/>
    <path d="m369.6 194.75 9.72 5.68-9.72 5.61-9.79-5.65z" fill="#37474f"/>
    <path d="M345.77 216c4.23-4.41 2.52-9.55 4.26-13.21s9-6.73 12.17-6 12.75 6.65 11.13 9.13a6.93 6.93 0 0 0-1.18.31l-1-.58a12 12 0 0 0-6.76 4.41c-2.44 3.54-2.44 4.22-2.5 5.52s1.7 3.28 1.7 3.28c-1.29 1.25-3.58 1.15-5.59 3.63-2.16 2.67-3.46 4.59-3.46 4.59z" fill="#b16668"/>
    <path d="M217.51 252v75.84l96.39 55.65 22.24-63zM249 328.19c-2.55.82-5.37-.85-6.3-3.73L230 284.81c-.93-2.88.39-5.88 2.94-6.7s5.37.85 6.3 3.73L252 321.49c.91 2.88-.41 5.88-3 6.7zm27.51 14.89c-2.55.82-5.37-.85-6.3-3.73l-12.72-39.65c-.93-2.88.39-5.88 2.94-6.7s5.37.85 6.3 3.73l12.76 39.66c.93 2.87-.39 5.87-2.94 6.69zM304.06 358c-2.55.82-5.37-.85-6.3-3.73L285 314.59c-.93-2.88.39-5.88 2.94-6.7s5.37.85 6.3 3.73L307 351.27c.92 2.88-.39 5.88-2.94 6.73z" fill="#7b56af"/>
    <path d="M217.51 252v75.84l96.39 55.65 22.24-63zM249 328.19c-2.55.82-5.37-.85-6.3-3.73L230 284.81c-.93-2.88.39-5.88 2.94-6.7s5.37.85 6.3 3.73L252 321.49c.91 2.88-.41 5.88-3 6.7zm27.51 14.89c-2.55.82-5.37-.85-6.3-3.73l-12.72-39.65c-.93-2.88.39-5.88 2.94-6.7s5.37.85 6.3 3.73l12.76 39.66c.93 2.87-.39 5.87-2.94 6.69zM304.06 358c-2.55.82-5.37-.85-6.3-3.73L285 314.59c-.93-2.88.39-5.88 2.94-6.7s5.37.85 6.3 3.73L307 351.27c.92 2.88-.39 5.88-2.94 6.73z" fill="#7b56af" opacity=".65"/>
    <path d="m336.14 320.49 59.31-34.24-22.24 63-59.31 34.24z" fill="#604881"/>
    <path d="m336.14 320.49 59.31-34.24-22.24 63-59.31 34.24z" fill="#604881" opacity=".3"/>
    <path d="M169.87 114.61c-4.72 0-14.81 7.49-13.38 20.86.75 7 16.74 37 20.83 43.73s37.19 27.25 40.12 29.19 3.27 4.76 5.3 6.34l2.5-1.44a3.7 3.7 0 0 1 2.1 5.29l-2.6 1.52s3.74 3 7 2.57c3.11-.42 9.79-3.39 11.07-6.18.59-1.28 1-7.69.2-9.31-2.31-4.92-17-8.47-17-8.47L195 169z" fill="#ffa8a7"/>
    <path d="M172.43 114.61s-8-1.17-13 5c-4.53 5.56-5.08 14-2.5 21.53s15.43 33.49 17.77 38.08 28.1 19.74 28.1 19.74 3.29-9.85 10.65-12.28L196 168.43l-18.06-38.75s.16-8.97-5.51-15.07z" fill="#263238"/>
    <path d="m301.64 3.43-40.17 23.13a3.55 3.55 0 0 0-1.6 2.78v54.93a3.5 3.5 0 0 0 1.61 2.73l5.75 3.22a3.59 3.59 0 0 0 3.22 0l40.16-23.12a3.55 3.55 0 0 0 1.6-2.78V9.39a3.5 3.5 0 0 0-1.61-2.76l-5.75-3.22a3.59 3.59 0 0 0-3.21.02z" fill="#794fb6"/>
    <path d="M268.84 89.31V34.39a3.55 3.55 0 0 1 1.6-2.78l40.17-23.14c.89-.51 1.6-.1 1.6.93v54.92a3.55 3.55 0 0 1-1.6 2.78l-40.16 23.14c-.89.51-1.61.09-1.61-.93z" fill="#794fb6"/>
    <path d="M270.45 90.24a3.68 3.68 0 0 1-3.22 0L261.48 87a3.49 3.49 0 0 1-1.62-2.76v-54.9a3.31 3.31 0 0 1 .51-1.64l8.94 5.1a3.19 3.19 0 0 0-.47 1.58v54.93c0 .94.66 1.48 1.61.93z" opacity=".2"/>
    <path d="M312.19 9.1c-.13-.81-.79-1.1-1.59-.64l-40.15 23.15a3.29 3.29 0 0 0-1.13 1.2l-8.95-5.1a3.21 3.21 0 0 1 1.1-1.14l40.17-23.15a3.59 3.59 0 0 1 3.22 0l5.74 3.22a3.54 3.54 0 0 1 1.59 2.46z" fill="#fff" opacity=".4"/>
    <path d="M255.47 70.08c-1-.6-8.55-4.85-8.8-5a1.5 1.5 0 0 1-.32-2.29l13.65-17 8.83 5-13.64 17a1.51 1.51 0 0 0 .28 2.29z" fill="#9b7dcc"/>
    <path d="M255.47 70.08c-1-.6-8.55-4.85-8.8-5a1.5 1.5 0 0 1-.32-2.29l13.65-17 8.83 5-13.64 17a1.51 1.51 0 0 0 .28 2.29z" fill="#fff" opacity=".4"/>
    <path d="m268.84 50.79-13.65 17a1.44 1.44 0 0 0 .92 2.46l12.73 1.38z" fill="#794fb6"/>
    <path d="M286.21 38.47q.07 1.44.07 2.58t-.07 2.55a13.93 13.93 0 0 1-1.67 6 10.34 10.34 0 0 1-3.9 4.13q-2.41 1.39-3.9.37t-1.67-4.1q-.07-1.34-.07-2.48t.07-2.66a13.88 13.88 0 0 1 1.58-6 10.3 10.3 0 0 1 4-4.18q2.54-1.47 4-.42t1.56 4.21zm10.16-9.89a6.29 6.29 0 0 1 .5-1 2.06 2.06 0 0 1 .74-.69l3.58-2.06c.25-.15.45-.16.6-.06a.75.75 0 0 1 .22.64 1.62 1.62 0 0 1 0 .28 2.87 2.87 0 0 1-.1.38l-17 44.22a6.29 6.29 0 0 1-.5 1 2.07 2.07 0 0 1-.74.69L280.08 74q-.38.22-.6.06a.75.75 0 0 1-.22-.64 1.58 1.58 0 0 1 0-.28 2.62 2.62 0 0 1 .1-.38zm-17 19.56a3.41 3.41 0 0 0 .32 1.45q.27.49.92.12a2.05 2.05 0 0 0 .92-1.18 6.71 6.71 0 0 0 .32-1.82q.15-3.36 0-6.33a3.45 3.45 0 0 0-.32-1.45q-.27-.49-.92-.12a2.06 2.06 0 0 0-.92 1.18 6.68 6.68 0 0 0-.32 1.83q-.11 3.12.04 6.32zm27.51-.73q.12 1.44.12 2.59t-.07 2.55a13.94 13.94 0 0 1-1.67 6 10.34 10.34 0 0 1-3.9 4.13q-2.41 1.39-3.9.37T295.78 59q-.07-1.34-.07-2.48t.07-2.66a13.87 13.87 0 0 1 1.58-6 10.3 10.3 0 0 1 4-4.18q2.54-1.47 4-.42t1.56 4.14zm-6.81 9.66a3.41 3.41 0 0 0 .32 1.45c.18.33.49.37.92.12a2.06 2.06 0 0 0 .92-1.18 6.74 6.74 0 0 0 .32-1.82q.15-3.36 0-6.33a3.47 3.47 0 0 0-.32-1.45q-.27-.49-.92-.12a2.05 2.05 0 0 0-.92 1.18 6.67 6.67 0 0 0-.32 1.82q-.07 3.13.04 6.33z" fill="#fafafa"/>
</svg>
