<svg width="12" height="14" viewBox="0 0 12 14" fill="none" xmlns="http://www.w3.org/2000/svg">
<path d="M8.66667 7.00016C8.66667 7.17697 8.59643 7.34654 8.47141 7.47157C8.34638 7.59659 8.17681 7.66683 8 7.66683H4C3.82319 7.66683 3.65362 7.59659 3.5286 7.47157C3.40357 7.34654 3.33333 7.17697 3.33333 7.00016C3.33333 6.82335 3.40357 6.65378 3.5286 6.52876C3.65362 6.40373 3.82319 6.3335 4 6.3335H8C8.17681 6.3335 8.34638 6.40373 8.47141 6.52876C8.59643 6.65378 8.66667 6.82335 8.66667 7.00016ZM6 9.00016H4C3.82319 9.00016 3.65362 9.0704 3.5286 9.19542C3.40357 9.32045 3.33333 9.49002 3.33333 9.66683C3.33333 9.84364 3.40357 10.0132 3.5286 10.1382C3.65362 10.2633 3.82319 10.3335 4 10.3335H6C6.17681 10.3335 6.34638 10.2633 6.4714 10.1382C6.59643 10.0132 6.66667 9.84364 6.66667 9.66683C6.66667 9.49002 6.59643 9.32045 6.4714 9.19542C6.34638 9.0704 6.17681 9.00016 6 9.00016ZM12 2.3335V11.6668C12 12.1973 11.7893 12.706 11.4142 13.081C11.0391 13.4561 10.5304 13.6668 10 13.6668H2C1.46957 13.6668 0.960859 13.4561 0.585787 13.081C0.210714 12.706 0 12.1973 0 11.6668V2.3335C0 1.80306 0.210714 1.29436 0.585787 0.919283C0.960859 0.54421 1.46957 0.333496 2 0.333496H10C10.5304 0.333496 11.0391 0.54421 11.4142 0.919283C11.7893 1.29436 12 1.80306 12 2.3335ZM7.33333 3.00016C7.51014 3.00016 7.67971 2.92992 7.80474 2.8049C7.92976 2.67988 8 2.51031 8 2.3335V1.66683H4V2.3335C4 2.51031 4.07024 2.67988 4.19526 2.8049C4.32029 2.92992 4.48986 3.00016 4.66667 3.00016H7.33333ZM10.6667 2.3335C10.6667 2.15668 10.5964 1.98712 10.4714 1.86209C10.3464 1.73707 10.1768 1.66683 10 1.66683H9.33333V2.3335C9.33333 2.86393 9.12262 3.37264 8.74755 3.74771C8.37247 4.12278 7.86377 4.3335 7.33333 4.3335H4.66667C4.13623 4.3335 3.62753 4.12278 3.25245 3.74771C2.87738 3.37264 2.66667 2.86393 2.66667 2.3335V1.66683H2C1.82319 1.66683 1.65362 1.73707 1.5286 1.86209C1.40357 1.98712 1.33333 2.15668 1.33333 2.3335V11.6668C1.33333 11.8436 1.40357 12.0132 1.5286 12.1382C1.65362 12.2633 1.82319 12.3335 2 12.3335H10C10.1768 12.3335 10.3464 12.2633 10.4714 12.1382C10.5964 12.0132 10.6667 11.8436 10.6667 11.6668V2.3335Z" fill="#222221"/>
</svg>
