
<svg version="1.1" id="Layer_1" xmlns="http://www.w3.org/2000/svg" xmlns:xlink="http://www.w3.org/1999/xlink" x="0px" y="0px"
	 width="100%" viewBox="0 0 96 53" enable-background="new 0 0 96 53" xml:space="preserve">
<path fill="#FEFAFA" opacity="1.000000" stroke="none" 
	d="
M62.000000,54.000000 
	C41.333336,54.000000 21.166674,54.000000 1.000008,54.000000 
	C1.000005,36.333340 1.000005,18.666679 1.000003,1.000015 
	C32.999989,1.000010 64.999977,1.000010 96.999969,1.000005 
	C96.999985,18.666651 96.999985,36.333302 96.999992,53.999977 
	C85.500000,54.000000 74.000000,54.000000 62.000000,54.000000 
M91.860939,41.861538 
	C91.241417,39.810318 91.072479,37.441551 89.901016,35.779316 
	C87.948090,33.008232 85.353249,30.689545 82.713501,27.840170 
	C85.416290,25.299707 88.066696,23.394361 89.880157,20.884335 
	C90.968964,19.377308 90.751732,16.926691 91.121468,14.900148 
	C89.098915,15.146019 86.516884,14.698933 85.172295,15.784518 
	C82.515144,17.929838 80.542702,20.923225 77.421959,24.579666 
	C74.307335,20.898447 72.334419,17.862003 69.656082,15.699074 
	C68.321976,14.621695 65.695732,15.144337 63.653984,14.943208 
	C63.954010,16.845984 63.622589,19.281822 64.685333,20.540714 
	C66.906685,23.172041 69.863510,25.182484 73.748077,28.497477 
	C70.243851,31.311382 67.612549,33.099033 65.394852,35.302883 
	C63.444534,37.241020 59.819916,39.337292 63.112766,42.623367 
	C66.330498,45.834476 68.473030,42.586586 70.423813,40.420151 
	C72.616081,37.985538 74.608002,35.370514 76.454544,33.117687 
	C80.139565,36.583008 82.457527,39.292339 85.301804,41.228485 
	C86.876389,42.300323 89.331764,42.078247 91.860939,41.861538 
M17.989910,24.450792 
	C23.938684,24.881367 29.884676,25.398657 35.841137,25.589968 
	C36.358654,25.606590 37.292286,23.519833 37.447151,22.333658 
	C39.500610,6.605713 38.811790,5.845794 23.185413,5.997107 
	C22.853449,6.000321 22.518106,6.028694 22.189949,5.993307 
	C18.679169,5.614712 17.377211,7.413621 17.459728,10.687683 
	C17.568350,14.997349 17.617523,19.308514 17.989910,24.450792 
M8.819776,29.846241 
	C5.958010,29.620689 5.011370,31.182005 5.070926,33.778778 
	C5.502820,52.610104 1.919288,48.831783 19.691790,49.275917 
	C20.353962,49.292461 21.223209,49.535824 21.641058,49.213463 
	C22.874752,48.261684 24.763311,47.191513 24.928850,45.969048 
	C27.046820,30.328320 26.570581,29.838507 11.255909,29.841545 
	C10.758842,29.841644 10.261776,29.842274 8.819776,29.846241 
M50.047291,31.859962 
	C49.523426,31.270088 48.999996,30.169168 48.475632,30.168724 
	C42.697006,30.163826 36.918240,30.330061 31.139507,30.449921 
	C30.815058,34.708202 30.483946,38.966000 30.173113,43.225273 
	C30.124754,43.887924 30.202669,44.559261 30.164593,45.223278 
	C29.990732,48.255383 31.524122,49.376251 34.419498,49.302902 
	C38.248158,49.205910 42.085262,49.170616 45.911041,49.314106 
	C49.208508,49.437778 50.331730,47.948566 50.201508,44.797581 
	C50.036572,40.806499 50.151966,36.803829 50.047291,31.859962 
z"/>
<path fill="#E82222" opacity="1.000000" stroke="none" 
	d="
M91.625526,42.150475 
	C89.331764,42.078247 86.876389,42.300323 85.301804,41.228485 
	C82.457527,39.292339 80.139565,36.583008 76.454544,33.117687 
	C74.608002,35.370514 72.616081,37.985538 70.423813,40.420151 
	C68.473030,42.586586 66.330498,45.834476 63.112766,42.623367 
	C59.819916,39.337292 63.444534,37.241020 65.394852,35.302883 
	C67.612549,33.099033 70.243851,31.311382 73.748077,28.497477 
	C69.863510,25.182484 66.906685,23.172041 64.685333,20.540714 
	C63.622589,19.281822 63.954010,16.845984 63.653984,14.943208 
	C65.695732,15.144337 68.321976,14.621695 69.656082,15.699074 
	C72.334419,17.862003 74.307335,20.898447 77.421959,24.579666 
	C80.542702,20.923225 82.515144,17.929838 85.172295,15.784518 
	C86.516884,14.698933 89.098915,15.146019 91.121468,14.900148 
	C90.751732,16.926691 90.968964,19.377308 89.880157,20.884335 
	C88.066696,23.394361 85.416290,25.299707 82.713501,27.840170 
	C85.353249,30.689545 87.948090,33.008232 89.901016,35.779316 
	C91.072479,37.441551 91.241417,39.810318 91.625526,42.150475 
z"/>
<path fill="#E71E1E" opacity="1.000000" stroke="none" 
	d="
M17.841084,24.034912 
	C17.617523,19.308514 17.568350,14.997349 17.459728,10.687683 
	C17.377211,7.413621 18.679169,5.614712 22.189949,5.993307 
	C22.518106,6.028694 22.853449,6.000321 23.185413,5.997107 
	C38.811790,5.845794 39.500610,6.605713 37.447151,22.333658 
	C37.292286,23.519833 36.358654,25.606590 35.841137,25.589968 
	C29.884676,25.398657 23.938684,24.881367 17.841084,24.034912 
z"/>
<path fill="#E71B1B" opacity="1.000000" stroke="none" 
	d="
M9.292242,29.844448 
	C10.261776,29.842274 10.758842,29.841644 11.255909,29.841545 
	C26.570581,29.838507 27.046820,30.328320 24.928850,45.969048 
	C24.763311,47.191513 22.874752,48.261684 21.641058,49.213463 
	C21.223209,49.535824 20.353962,49.292461 19.691790,49.275917 
	C1.919288,48.831783 5.502820,52.610104 5.070926,33.778778 
	C5.011370,31.182005 5.958010,29.620689 9.292242,29.844448 
z"/>
<path fill="#E71C1C" opacity="1.000000" stroke="none" 
	d="
M50.096878,32.333061 
	C50.151966,36.803829 50.036572,40.806499 50.201508,44.797581 
	C50.331730,47.948566 49.208508,49.437778 45.911041,49.314106 
	C42.085262,49.170616 38.248158,49.205910 34.419498,49.302902 
	C31.524122,49.376251 29.990732,48.255383 30.164593,45.223278 
	C30.202669,44.559261 30.124754,43.887924 30.173113,43.225273 
	C30.483946,38.966000 30.815058,34.708202 31.139507,30.449921 
	C36.918240,30.330061 42.697006,30.163826 48.475632,30.168724 
	C48.999996,30.169168 49.523426,31.270088 50.096878,32.333061 
z"/>
</svg>