<svg width="11" height="11" viewBox="0 0 11 11" fill="none" xmlns="http://www.w3.org/2000/svg">
<path d="M10.0563 1.05011L9.95002 0.943858C9.59845 0.592732 9.12189 0.395508 8.62502 0.395508C8.12814 0.395508 7.65158 0.592732 7.30002 0.943858L1.30627 6.93136C1.22632 7.01262 1.17013 7.1142 1.14377 7.22511L0.518767 9.72511C0.48901 9.83076 0.487602 9.94239 0.514684 10.0488C0.541767 10.1551 0.596384 10.2525 0.673041 10.331C0.749699 10.4096 0.845694 10.4666 0.951367 10.4963C1.05704 10.5259 1.16867 10.5273 1.27502 10.5001L3.77502 9.87511C3.88592 9.84874 3.9875 9.79255 4.06877 9.71261L10.0563 3.71886C10.4074 3.36729 10.6046 2.89073 10.6046 2.39386C10.6046 1.89698 10.4074 1.42042 10.0563 1.06886V1.05011ZM3.30627 8.68761L1.98127 9.01886L2.31252 7.69386L6.42502 3.58136L7.41877 4.57511L3.30627 8.68761ZM9.17502 2.81886L8.30002 3.68761L7.31252 2.70011L8.18127 1.82511C8.23937 1.76653 8.30849 1.72003 8.38466 1.6883C8.46082 1.65657 8.54251 1.64023 8.62502 1.64023C8.70752 1.64023 8.78921 1.65657 8.86538 1.6883C8.94154 1.72003 9.01066 1.76653 9.06877 1.82511L9.17502 1.93136C9.2336 1.98946 9.28009 2.05859 9.31182 2.13475C9.34355 2.21091 9.35989 2.2926 9.35989 2.37511C9.35989 2.45762 9.34355 2.53931 9.31182 2.61547C9.28009 2.69163 9.2336 2.76076 9.17502 2.81886V2.81886Z" fill="#54328E"/>
</svg>
