<svg width="10" height="10" viewBox="0 0 10 10" fill="none" xmlns="http://www.w3.org/2000/svg">
<path d="M7.91662 0.833496H5.34578C5.01437 0.833788 4.69665 0.965675 4.46245 1.20016L1.12912 4.5335C0.895032 4.76787 0.76355 5.08558 0.76355 5.41683C0.76355 5.74808 0.895032 6.06579 1.12912 6.30016L3.69995 8.871C3.93433 9.10508 4.25203 9.23656 4.58328 9.23656C4.91453 9.23656 5.23224 9.10508 5.46662 8.871L8.79995 5.53766C9.03444 5.30347 9.16632 4.98574 9.16662 4.65433V2.0835C9.16662 1.75198 9.03492 1.43403 8.8005 1.19961C8.56608 0.965192 8.24814 0.833496 7.91662 0.833496ZM8.33328 4.65433C8.3336 4.70917 8.32309 4.76352 8.30235 4.81429C8.28162 4.86506 8.25107 4.91123 8.21245 4.95016L4.87912 8.2835C4.84038 8.32255 4.7943 8.35355 4.74352 8.3747C4.69275 8.39585 4.63829 8.40675 4.58328 8.40675C4.52828 8.40675 4.47382 8.39585 4.42304 8.3747C4.37227 8.35355 4.32618 8.32255 4.28745 8.2835L1.71662 5.71266C1.67756 5.67393 1.64657 5.62784 1.62541 5.57707C1.60426 5.5263 1.59337 5.47183 1.59337 5.41683C1.59337 5.36182 1.60426 5.30736 1.62541 5.25659C1.64657 5.20581 1.67756 5.15973 1.71662 5.121L5.04995 1.78766C5.08888 1.74905 5.13506 1.71849 5.18582 1.69776C5.23659 1.67702 5.29095 1.66651 5.34578 1.66683H7.91662C8.02712 1.66683 8.1331 1.71073 8.21124 1.78887C8.28938 1.86701 8.33328 1.97299 8.33328 2.0835V4.65433ZM6.24995 2.50016C6.00272 2.50016 5.76105 2.57347 5.55549 2.71083C5.34993 2.84818 5.18971 3.0434 5.0951 3.27181C5.00049 3.50022 4.97574 3.75155 5.02397 3.99403C5.0722 4.2365 5.19125 4.45923 5.36607 4.63405C5.54088 4.80886 5.76361 4.92791 6.00609 4.97614C6.24856 5.02438 6.4999 4.99962 6.7283 4.90501C6.95671 4.8104 7.15194 4.65019 7.28929 4.44463C7.42664 4.23906 7.49995 3.99739 7.49995 3.75016C7.49995 3.41864 7.36825 3.1007 7.13383 2.86628C6.89941 2.63186 6.58147 2.50016 6.24995 2.50016ZM6.24995 4.16683C6.16754 4.16683 6.08698 4.14239 6.01846 4.09661C5.94994 4.05082 5.89654 3.98575 5.865 3.90961C5.83346 3.83348 5.82521 3.7497 5.84129 3.66887C5.85737 3.58805 5.89705 3.51381 5.95532 3.45553C6.01359 3.39726 6.08784 3.35758 6.16866 3.3415C6.24949 3.32542 6.33327 3.33368 6.4094 3.36521C6.48554 3.39675 6.55061 3.45015 6.5964 3.51867C6.64218 3.5872 6.66662 3.66775 6.66662 3.75016C6.66662 3.86067 6.62272 3.96665 6.54458 4.04479C6.46644 4.12293 6.36046 4.16683 6.24995 4.16683Z" fill="#38AE04"/>
</svg>
