<svg width="28" height="26" viewBox="0 0 28 26" fill="none" xmlns="http://www.w3.org/2000/svg">
<path d="M6.9165 10.1667L13.9998 1.66675L21.0832 10.1667" stroke="#54328E" stroke-width="2" stroke-linecap="round" stroke-linejoin="round"/>
<path d="M26.75 10.1667L23.9167 21.5001C23.7842 22.3121 23.4281 23.0403 22.9104 23.558C22.3927 24.0757 21.7462 24.3501 21.0833 24.3334H6.91667C6.25382 24.3501 5.60727 24.0757 5.08957 23.558C4.57187 23.0403 4.21579 22.3121 4.08333 21.5001L1.25 10.1667H26.75Z" stroke="#54328E" stroke-width="2" stroke-linecap="round" stroke-linejoin="round"/>
<path d="M13.9998 20.0834C15.5646 20.0834 16.8332 18.8149 16.8332 17.2501C16.8332 15.6853 15.5646 14.4167 13.9998 14.4167C12.435 14.4167 11.1665 15.6853 11.1665 17.2501C11.1665 18.8149 12.435 20.0834 13.9998 20.0834Z" stroke="#54328E" stroke-width="2" stroke-linecap="round" stroke-linejoin="round"/>
</svg>
