<svg width="20" height="20" viewBox="0 0 20 20" fill="none" xmlns="http://www.w3.org/2000/svg">
<path d="M5.9 16.92C5.9 16.9556 5.91893 16.9885 5.94969 17.0064C7.17944 17.7224 8.57701 18.0996 10 18.0996C11.423 18.0996 12.8206 17.7224 14.0503 17.0064C14.0811 16.9885 14.1 16.9556 14.1 16.92V16C14.1 15.7083 13.9841 15.4285 13.7778 15.2222C13.5715 15.0159 13.2917 14.9 13 14.9H7C6.70827 14.9 6.42848 15.0159 6.22219 15.2222C6.0159 15.4285 5.9 15.7083 5.9 16V16.92ZM15.8324 15.3717C15.8405 15.4082 15.8683 15.4371 15.9044 15.4467C15.9406 15.4562 15.979 15.4448 16.0041 15.4171C17.0565 14.2549 17.749 12.8123 17.9976 11.2642C18.2461 9.7162 18.0401 8.12929 17.4044 6.69606C16.7687 5.26284 15.7307 4.04491 14.4164 3.19006C13.1021 2.3352 11.5679 1.88017 10 1.88017C8.43213 1.88017 6.89795 2.3352 5.58363 3.19006C4.2693 4.04491 3.23132 5.26284 2.59564 6.69606C1.95995 8.12929 1.75388 9.7162 2.00243 11.2642C2.25099 12.8123 2.94348 14.2549 3.99588 15.4171C4.02098 15.4448 4.05944 15.4562 4.09559 15.4467C4.13174 15.4371 4.15953 15.4082 4.16763 15.3717C4.31067 14.7272 4.66931 14.1508 5.1843 13.7377C5.69929 13.3247 6.3398 13.0997 6.99996 13.1H7H13H13C13.6602 13.0997 14.3007 13.3247 14.8157 13.7377C15.3307 14.1508 15.6893 14.7272 15.8324 15.3717ZM7.83328 4.75727C8.47463 4.32873 9.22866 4.1 10 4.1C11.0343 4.1 12.0263 4.51089 12.7577 5.24228C13.4891 5.97368 13.9 6.96566 13.9 8C13.9 8.77135 13.6713 9.52537 13.2427 10.1667C12.8142 10.8081 12.2051 11.3079 11.4925 11.6031C10.7798 11.8983 9.99568 11.9755 9.23915 11.8251C8.48263 11.6746 7.78771 11.3031 7.24229 10.7577C6.69686 10.2123 6.32542 9.51738 6.17494 8.76085C6.02446 8.00433 6.10169 7.22017 6.39687 6.50753C6.69206 5.7949 7.19193 5.18581 7.83328 4.75727ZM8.83331 9.74609C9.17865 9.97684 9.58466 10.1 10 10.1C10.557 10.1 11.0911 9.87875 11.4849 9.48492C11.8788 9.0911 12.1 8.55695 12.1 8C12.1 7.58466 11.9768 7.17865 11.7461 6.8333C11.5153 6.48796 11.1874 6.2188 10.8036 6.05985C10.4199 5.90091 9.99768 5.85932 9.59031 5.94035C9.18295 6.02138 8.80877 6.22139 8.51508 6.51508C8.22139 6.80877 8.02138 7.18295 7.94036 7.59031C7.85933 7.99767 7.90091 8.41991 8.05986 8.80363C8.2188 9.18736 8.48796 9.51534 8.83331 9.74609ZM4.49986 1.76845C6.12791 0.680625 8.04197 0.1 10 0.1C11.3001 0.1 12.5874 0.356071 13.7886 0.853593C14.9897 1.35111 16.0811 2.08034 17.0004 2.99964C17.9197 3.91894 18.6489 5.01031 19.1464 6.21143C19.6439 7.41256 19.9 8.69991 19.9 10C19.9 11.958 19.3194 13.8721 18.2316 15.5001C17.1437 17.1282 15.5976 18.3971 13.7886 19.1464C11.9796 19.8957 9.98902 20.0918 8.06861 19.7098C6.1482 19.3278 4.38419 18.3849 2.99965 17.0004C1.61511 15.6158 0.672224 13.8518 0.29023 11.9314C-0.0917635 10.011 0.10429 8.02042 0.853597 6.21143C1.6029 4.40245 2.87181 2.85628 4.49986 1.76845Z" fill="black" stroke="white" stroke-width="0.2" stroke-linecap="round" stroke-linejoin="round"/>
</svg>
