<svg width="20" height="20" viewBox="0 0 20 20" fill="none" xmlns="http://www.w3.org/2000/svg">
<g clip-path="url(#clip0_1156_6217)">
<path d="M15 6.6665C15.663 6.6665 16.2989 6.9299 16.7678 7.39874C17.2366 7.86758 17.5 8.50346 17.5 9.1665C17.5 9.82955 17.2366 10.4654 16.7678 10.9343C16.2989 11.4031 15.663 11.6665 15 11.6665" stroke="black" stroke-width="1.5" stroke-linecap="round" stroke-linejoin="round"/>
<path d="M8.3335 6.6665V15.8332C8.3335 16.0542 8.2457 16.2661 8.08942 16.4224C7.93314 16.5787 7.72118 16.6665 7.50016 16.6665H6.66683C6.44582 16.6665 6.23385 16.5787 6.07757 16.4224C5.92129 16.2661 5.8335 16.0542 5.8335 15.8332V11.6665" stroke="black" stroke-width="1.5" stroke-linecap="round" stroke-linejoin="round"/>
<path d="M10 6.66646L13.77 3.52479C13.8795 3.43355 14.0128 3.37542 14.1542 3.35721C14.2956 3.33901 14.4393 3.36148 14.5684 3.422C14.6975 3.48252 14.8066 3.57858 14.8831 3.69892C14.9595 3.81926 15.0001 3.95889 15 4.10146V14.2315C15.0001 14.374 14.9595 14.5137 14.8831 14.634C14.8066 14.7543 14.6975 14.8504 14.5684 14.9109C14.4393 14.9714 14.2956 14.9939 14.1542 14.9757C14.0128 14.9575 13.8795 14.8994 13.77 14.8081L10 11.6665H3.33333C3.11232 11.6665 2.90036 11.5787 2.74408 11.4224C2.5878 11.2661 2.5 11.0541 2.5 10.8331V7.49979C2.5 7.27878 2.5878 7.06682 2.74408 6.91054C2.90036 6.75426 3.11232 6.66646 3.33333 6.66646H10" stroke="black" stroke-width="1.5" stroke-linecap="round" stroke-linejoin="round"/>
</g>
<defs>
<clipPath id="clip0_1156_6217">
<rect width="20" height="20" fill="white"/>
</clipPath>
</defs>
</svg>
