<svg width="18" height="18" viewBox="0 0 18 18" fill="none" xmlns="http://www.w3.org/2000/svg">
<path d="M13.5 4.5V4.5075" stroke="black" stroke-width="1.5" stroke-linecap="round" stroke-linejoin="round"/>
<path d="M13.5 9.75L10.875 6C10.6223 5.54327 10.4931 5.02852 10.5003 4.5066C10.5074 3.98467 10.6506 3.47364 10.9157 3.024C11.1808 2.57436 11.5586 2.20166 12.0119 1.94274C12.4651 1.68382 12.978 1.54763 13.5 1.54763C14.022 1.54763 14.5349 1.68382 14.9881 1.94274C15.4414 2.20166 15.8192 2.57436 16.0843 3.024C16.3494 3.47364 16.4926 3.98467 16.4997 4.5066C16.5069 5.02852 16.3777 5.54327 16.125 6L13.5 9.75Z" stroke="black" stroke-width="1.5" stroke-linecap="round" stroke-linejoin="round"/>
<path d="M7.875 3.5625L6.75 3L2.25 5.25V15L6.75 12.75L11.25 15L15.75 12.75V11.25" stroke="black" stroke-width="1.5" stroke-linecap="round" stroke-linejoin="round"/>
<path d="M6.75 3V12.75" stroke="black" stroke-width="1.5" stroke-linecap="round" stroke-linejoin="round"/>
<path d="M11.25 11.25V15" stroke="black" stroke-width="1.5" stroke-linecap="round" stroke-linejoin="round"/>
</svg>
