<svg width="13" height="11" viewBox="0 0 13 11" fill="none" xmlns="http://www.w3.org/2000/svg">
<path d="M11.7262 3.47L11.7261 3.47L11.7267 3.47104L12.3517 4.72104L12.4187 4.6875L12.3517 4.72112C12.5699 5.15628 12.6807 5.63735 12.675 6.12412V6.125V8C12.675 8.31163 12.5512 8.61049 12.3309 8.83085C12.1105 9.05121 11.8116 9.175 11.5 9.175H11.3875H11.3349L11.317 9.22441C11.1909 9.5719 10.9608 9.87214 10.6581 10.0843C10.3554 10.2965 9.99467 10.4103 9.625 10.4103C9.25533 10.4103 8.89462 10.2965 8.5919 10.0843C8.28918 9.87214 8.05912 9.5719 7.933 9.22441L7.91507 9.175H7.8625H5.1375H5.08514L5.06709 9.22415C4.93748 9.57724 4.70052 9.88085 4.38949 10.0923C4.07847 10.3038 3.709 10.4126 3.33299 10.4033C2.95699 10.3941 2.59333 10.2672 2.2931 10.0407C1.99287 9.81411 1.77115 9.4992 1.65909 9.14015L1.64721 9.10208L1.609 9.09065C1.23931 8.98003 0.914955 8.75354 0.683771 8.44457C0.452621 8.13565 0.326851 7.76064 0.325 7.37482V2.375C0.325 1.89761 0.514642 1.43977 0.852208 1.10221C1.18977 0.764642 1.64761 0.575 2.125 0.575H6.5C6.97739 0.575 7.43523 0.764642 7.77279 1.10221C8.11036 1.43977 8.3 1.89761 8.3 2.375V2.45H8.375L10.1 2.45L10.1002 2.45C10.4398 2.44929 10.7727 2.54469 11.0605 2.72518C11.3482 2.90567 11.579 3.16389 11.7262 3.47ZM12.75 8V6.125L8.375 2.375C8.375 1.87772 8.17746 1.40081 7.82583 1.04917C7.47419 0.697544 6.99728 0.5 6.5 0.5H2.125C1.62772 0.5 1.15081 0.697544 0.799175 1.04917C0.447544 1.40081 0.25 1.87772 0.25 2.375V7.375C0.251889 7.77696 0.382904 8.16767 0.62372 8.48951C0.864537 8.81135 1.20241 9.04728 1.5875 9.1625C1.70423 9.5365 1.93518 9.86454 2.24792 10.1005C2.56066 10.3365 2.93947 10.4686 3.33115 10.4783C3.72282 10.488 4.10768 10.3747 4.43167 10.1544C4.75565 9.93406 5.00249 9.61779 5.1375 9.25H7.8625C7.99388 9.61197 8.23352 9.92471 8.54885 10.1457C8.86419 10.3667 9.23993 10.4853 9.625 10.4853C10.0101 10.4853 10.3858 10.3667 10.7011 10.1457C11.0165 9.92471 11.2561 9.61197 11.3875 9.25H11.5C11.8315 9.25 12.1495 9.1183 12.3839 8.88388C12.6183 8.64946 12.75 8.33152 12.75 8ZM7.125 8.075H7.2V8V2.375C7.2 2.18935 7.12625 2.0113 6.99497 1.88003C6.8637 1.74875 6.68565 1.675 6.5 1.675H2.125C1.93935 1.675 1.7613 1.74875 1.63003 1.88003C1.49875 2.0113 1.425 2.18935 1.425 2.375L1.425 7.375L1.425 7.37531C1.42539 7.46793 1.44414 7.55954 1.48019 7.64486C1.51624 7.73017 1.56886 7.80748 1.635 7.87231L1.70944 7.94528L1.75497 7.8515C1.90954 7.53311 2.15455 7.26735 2.45935 7.08745C2.76416 6.90756 3.11523 6.82152 3.46868 6.84009C3.82212 6.85866 4.16225 6.98101 4.44652 7.19185C4.7308 7.40269 4.94661 7.69267 5.06697 8.0255L5.08487 8.075H5.1375H7.125ZM11.5 8.075H11.575L10.1 3.625V3.55H10.0998H8.375H8.3V3.625V5.5V7.2375V7.40703L8.42545 7.293C8.75395 6.9944 9.18121 6.82772 9.62513 6.825C9.99638 6.82611 10.3582 6.94199 10.661 7.15676C10.9639 7.3716 11.193 7.67487 11.3168 8.025L11.3345 8.075H11.3875H11.5ZM2.9861 9.20703C3.10122 9.28395 3.23655 9.325 3.375 9.325C3.56065 9.325 3.7387 9.25125 3.86997 9.11998C4.00125 8.9887 4.075 8.81065 4.075 8.625C4.075 8.48655 4.03395 8.35121 3.95703 8.2361C3.88011 8.12099 3.77079 8.03127 3.64288 7.97828C3.51497 7.9253 3.37422 7.91144 3.23844 7.93845C3.10265 7.96546 2.97792 8.03213 2.88003 8.13002C2.78213 8.22792 2.71546 8.35265 2.68845 8.48844C2.66144 8.62422 2.6753 8.76497 2.72828 8.89288C2.78127 9.02079 2.87099 9.13011 2.9861 9.20703ZM9.2361 9.20703C9.35122 9.28395 9.48655 9.325 9.625 9.325C9.81065 9.325 9.9887 9.25125 10.12 9.11998C10.2513 8.9887 10.325 8.81065 10.325 8.625C10.325 8.48655 10.2839 8.35122 10.207 8.2361C10.1301 8.12099 10.0208 8.03127 9.89288 7.97828C9.76497 7.9253 9.62422 7.91144 9.48844 7.93845C9.35265 7.96546 9.22792 8.03213 9.13002 8.13002C9.03213 8.22792 8.96546 8.35265 8.93845 8.48844C8.91144 8.62422 8.9253 8.76497 8.97828 8.89288C9.03127 9.02079 9.12099 9.13011 9.2361 9.20703ZM4.7 4.875V3.625C4.7 3.47913 4.75795 3.33924 4.86109 3.23609C4.96424 3.13295 5.10413 3.075 5.25 3.075C5.39587 3.075 5.53576 3.13295 5.63891 3.23609C5.74205 3.33924 5.8 3.47913 5.8 3.625V4.875C5.8 5.02087 5.74205 5.16076 5.63891 5.26391C5.53576 5.36705 5.39587 5.425 5.25 5.425C5.10413 5.425 4.96424 5.36705 4.86109 5.26391C4.75795 5.16076 4.7 5.02087 4.7 4.875Z" fill="#54328E" stroke="white" stroke-width="0.15"/>
</svg>
