<svg width="10" height="10" viewBox="0 0 10 10" fill="none" xmlns="http://www.w3.org/2000/svg">
<path d="M5.41683 3.3335V5.41683C5.41683 5.52734 5.37293 5.63332 5.29479 5.71146C5.21665 5.7896 5.11067 5.8335 5.00016 5.8335C4.88966 5.8335 4.78368 5.7896 4.70554 5.71146C4.6274 5.63332 4.5835 5.52734 4.5835 5.41683V3.3335C4.5835 3.22299 4.6274 3.11701 4.70554 3.03887C4.78368 2.96073 4.88966 2.91683 5.00016 2.91683C5.11067 2.91683 5.21665 2.96073 5.29479 3.03887C5.37293 3.11701 5.41683 3.22299 5.41683 3.3335ZM4.70433 6.371C4.74326 6.33238 4.78944 6.30183 4.8402 6.28109C4.89097 6.26036 4.94533 6.24985 5.00016 6.25016C4.94533 6.24985 4.89097 6.26036 4.8402 6.28109C4.78944 6.30183 4.74326 6.33238 4.70433 6.371ZM4.5835 6.66683C4.58318 6.61199 4.59369 6.55763 4.61443 6.50687C4.63516 6.4561 4.66571 6.40993 4.70433 6.371C4.66571 6.40993 4.63516 6.4561 4.61443 6.50687C4.59369 6.55763 4.58318 6.61199 4.5835 6.66683ZM5.00016 6.25016C4.91776 6.25016 4.8372 6.2746 4.76868 6.32038C4.70016 6.36617 4.64675 6.43124 4.61521 6.50738C4.58368 6.58351 4.57543 6.66729 4.5915 6.74812C4.60758 6.82894 4.64726 6.90319 4.70554 6.96146C4.76381 7.01973 4.83805 7.05941 4.91888 7.07549C4.9997 7.09157 5.08348 7.08332 5.15962 7.05178C5.23575 7.02024 5.30083 6.96684 5.34661 6.89832C5.39239 6.8298 5.41683 6.74924 5.41683 6.66683C5.41683 6.55632 5.37293 6.45034 5.29479 6.3722C5.21665 6.29406 5.11067 6.25016 5.00016 6.25016ZM9.16683 5.00016C9.16683 5.82425 8.92246 6.62983 8.46462 7.31504C8.00678 8.00024 7.35604 8.5343 6.59468 8.84966C5.83332 9.16503 4.99554 9.24754 4.18729 9.08677C3.37903 8.926 2.63661 8.52916 2.05389 7.94644C1.47117 7.36372 1.07433 6.62129 0.913559 5.81304C0.752788 5.00479 0.835301 4.16701 1.15067 3.40565C1.46603 2.64429 2.00008 1.99355 2.68529 1.53571C3.37049 1.07787 4.17608 0.833496 5.00016 0.833496C5.54734 0.833496 6.08916 0.94127 6.59468 1.15066C7.1002 1.36006 7.55953 1.66697 7.94644 2.05388C8.33335 2.4408 8.64027 2.90013 8.84966 3.40565C9.05906 3.91117 9.16683 4.45299 9.16683 5.00016ZM8.3335 5.00016C8.3335 4.34089 8.138 3.69643 7.77173 3.14826C7.40546 2.6001 6.88486 2.17286 6.27578 1.92056C5.66669 1.66827 4.99647 1.60226 4.34986 1.73088C3.70326 1.8595 3.10932 2.17697 2.64314 2.64314C2.17697 3.10932 1.8595 3.70326 1.73088 4.34986C1.60226 4.99647 1.66827 5.66669 1.92057 6.27577C2.17286 6.88486 2.6001 7.40546 3.14826 7.77173C3.69643 8.138 4.34089 8.3335 5.00016 8.3335C5.88422 8.3335 6.73207 7.98231 7.35719 7.35719C7.98231 6.73206 8.3335 5.88422 8.3335 5.00016Z" fill="#FFC120"/>
</svg>
